<?xml version="1.0" standalone="no"?>
<!DOCTYPE svg PUBLIC "-//W3C//DTD SVG 1.1//EN" "http://www.w3.org/Graphics/SVG/1.1/DTD/svg11.dtd" >
<svg>
<metadata>
Created by FontForge 20110222 at Tue Aug 13 00:55:13 2013
 By Orthosie Webhosting
Digitised data (c) 2004 Monotype Imaging. All Rights Reserved. Neo Sans is designed by Sebastian Lester.
</metadata>
<defs>
<font id="NeoSansProRegular" horiz-adv-x="605" >
  <font-face 
    font-family="NeoSansProRegular"
    font-weight="400"
    font-stretch="normal"
    units-per-em="1000"
    panose-1="2 11 5 4 3 5 4 4 2 4"
    ascent="765"
    descent="-235"
    x-height="550"
    cap-height="743"
    bbox="-123.333 -216 1394 980"
    underline-thickness="57"
    underline-position="-21"
    unicode-range="U+0020-FB04"
  />
<missing-glyph horiz-adv-x="500" 
d="M12 665h475v-665h-475v665zM250 375l161 243h-323zM60 91l7 10t18 27t25.5 39t29.5 45q35 54 81 121l-161 242v-484zM278 333l162 -243v485zM250 290l-162 -242h323z" />
    <glyph glyph-name="f_b" unicode="fb" horiz-adv-x="933" 
d="M883 240q0 -56 -13 -102t-40 -78t-68 -49.5t-97 -17.5q-45 0 -91 4t-93 13q-14 2 -17.5 7t-3.5 16v658h-164q-35 0 -51 -14t-16 -55v-72h105q8 0 13.5 -5t5.5 -13v-39q0 -17 -19 -17h-105v-456q0 -8 -5.5 -14t-13.5 -6h-49q-8 0 -14 6t-6 14v456l-97 11q-19 2 -19 18v27
q0 8 5.5 13t13.5 5h97v72q0 40 10.5 67t29.5 43t46 22.5t60 6.5q10 0 33.5 -0.5t51.5 -1.5t56.5 -2.5t49.5 -4.5h51q8 0 13.5 -5.5t5.5 -13.5v-186q29 5 61 7.5t56 2.5q109 0 163.5 -63.5t54.5 -181.5v-72zM795 312q0 80 -28.5 124t-101.5 44q-12 0 -27 -0.5t-31 -1
t-31.5 -2t-27.5 -3.5v-397q26 -2 58.5 -4t58.5 -2q74 0 102 44t28 126v72z" />
    <glyph glyph-name="f_f_b" unicode="ffb" horiz-adv-x="1241" 
d="M356 706q0 -15 -18 -15h-48q-35 0 -48 -14t-13 -55v-72h231v72q0 40 10.5 67t29.5 43t46 22.5t60 6.5q10 0 31.5 -0.5t47.5 -1.5t53 -2.5t48 -4.5h51q8 0 13.5 -5.5t5.5 -13.5v-186q29 5 61 7.5t56 2.5q109 0 163.5 -63.5t54.5 -181.5v-72q0 -56 -13 -102t-40 -78
t-68 -49.5t-97 -17.5q-45 0 -91 4t-93 13q-14 2 -17.5 7t-3.5 16v658h-153q-35 0 -51 -14t-16 -55v-72h105q8 0 13.5 -5t5.5 -13v-39q0 -17 -19 -17h-105v-456q0 -8 -5.5 -14t-13.5 -6h-49q-8 0 -14 6t-6 14v456h-231v-456q0 -8 -5.5 -14t-13.5 -6h-49q-8 0 -14 6t-6 14v456
l-97 11q-19 2 -19 18v27q0 8 5.5 13t13.5 5h97v72q0 40 9.5 67t27.5 43t44 22.5t59 6.5q20 0 33 -2t23 -4q19 -5 19 -16v-33zM1103 312q0 80 -28.5 124t-101.5 44q-12 0 -27 -0.5t-31 -1t-31.5 -2t-27.5 -3.5v-397q26 -2 58.5 -4t58.5 -2q74 0 102 44t28 126v72z" />
    <glyph glyph-name="f_f_h" unicode="ffh" horiz-adv-x="1257" 
d="M856 526q36 16 78.5 23.5t74.5 7.5q40 0 73 -12t57 -37t37 -64.5t13 -94.5v-329q0 -8 -6 -14t-14 -6h-48q-8 0 -14 6t-6 14v329q0 75 -29 103t-78 28q-12 0 -28.5 -1.5t-35.5 -5t-38.5 -9t-35.5 -12.5v-432q0 -8 -6 -14t-14 -6h-49q-8 0 -13.5 6t-5.5 14v671h-153
q-35 0 -51 -14t-16 -55v-72h105q8 0 13.5 -5t5.5 -13v-39q0 -17 -19 -17h-105v-456q0 -8 -5.5 -14t-13.5 -6h-49q-8 0 -14 6t-6 14v456h-231v-456q0 -8 -5.5 -14t-13.5 -6h-49q-8 0 -14 6t-6 14v456l-97 11q-19 2 -19 18v27q0 8 5.5 13t13.5 5h97v72q0 40 9.5 67t27.5 43
t44 22.5t59 6.5q20 0 33 -2t23 -4q19 -5 19 -16v-33q0 -15 -18 -15h-48q-35 0 -48 -14t-13 -55v-72h231v72q0 40 10.5 67t29.5 43t46 22.5t60 6.5q10 0 31.5 -0.5t47.5 -1.5t53 -2.5t48 -4.5h51q8 0 13.5 -5.5t5.5 -13.5v-207z" />
    <glyph glyph-name="f_f_j" unicode="ffj" horiz-adv-x="947" 
d="M867 -64q0 -39 -8.5 -64.5t-24 -41t-39 -21.5t-53.5 -6q-15 0 -27 1t-27 3q-18 3 -18 16v37q0 14 21 14h41q29 0 38 12t9 50v540h-231v-456q0 -8 -5.5 -14t-13.5 -6h-49q-8 0 -14 6t-6 14v456h-231v-456q0 -8 -5.5 -14t-13.5 -6h-49q-8 0 -14 6t-6 14v456l-97 11
q-19 2 -19 18v27q0 8 5.5 13t13.5 5h97v72q0 40 9.5 67t27.5 43t44 22.5t59 6.5q20 0 33 -2t23 -4q19 -5 19 -16v-33q0 -15 -18 -15h-48q-35 0 -48 -14t-13 -55v-72h231v72q0 40 9.5 67t27.5 43t44 22.5t59 6.5q20 0 33 -2t23 -4q19 -5 19 -16v-33q0 -15 -18 -15h-48
q-35 0 -48 -14t-13 -55v-72h301q8 0 13 -6t5 -14v-594zM869 657q0 -8 -6 -13.5t-14 -5.5h-51q-8 0 -14 5.5t-6 13.5v81q0 8 6 14t14 6h51q8 0 14 -6t6 -14v-81z" />
    <glyph glyph-name="f_f_k" unicode="ffk" horiz-adv-x="1196" 
d="M615 691q-35 0 -51 -14t-16 -55v-72h105q8 0 13.5 -5t5.5 -13v-39q0 -17 -19 -17h-105v-456q0 -8 -5.5 -14t-13.5 -6h-49q-8 0 -14 6t-6 14v456h-231v-456q0 -8 -5.5 -14t-13.5 -6h-49q-8 0 -14 6t-6 14v456l-97 11q-19 2 -19 18v27q0 8 5.5 13t13.5 5h97v72q0 40 9.5 67
t27.5 43t44 22.5t59 6.5q20 0 33 -2t23 -4q19 -5 19 -16v-33q0 -15 -18 -15h-48q-35 0 -48 -14t-13 -55v-72h231v72q0 40 10.5 67t29.5 43t46 22.5t60 6.5q10 0 31.5 -0.5t47.5 -1.5t53 -2.5t48 -4.5h51q8 0 13.5 -5.5t5.5 -13.5v-417l200 225q5 5 8.5 7t11.5 2h70
q15 0 15 -11q0 -6 -5 -11l-220 -238l222 -268q3 -3 3 -9q0 -13 -11 -13h-72q-8 0 -12.5 2.5t-10.5 10.5l-199 246v-239q0 -8 -6 -14t-14 -6h-48q-8 0 -14 6t-6 14v671h-153z" />
    <glyph glyph-name="f_h" unicode="fh" horiz-adv-x="949" 
d="M548 526q36 16 78.5 23.5t74.5 7.5q40 0 73 -12t57 -37t37 -64.5t13 -94.5v-329q0 -8 -6 -14t-14 -6h-48q-8 0 -14 6t-6 14v329q0 75 -29 103t-78 28q-12 0 -28.5 -1.5t-35.5 -5t-38.5 -9t-35.5 -12.5v-432q0 -8 -6 -14t-14 -6h-49q-8 0 -13.5 6t-5.5 14v671h-164
q-35 0 -51 -14t-16 -55v-72h105q8 0 13.5 -5t5.5 -13v-39q0 -17 -19 -17h-105v-456q0 -8 -5.5 -14t-13.5 -6h-49q-8 0 -14 6t-6 14v456l-97 11q-19 2 -19 18v27q0 8 5.5 13t13.5 5h97v72q0 40 10.5 67t29.5 43t46 22.5t60 6.5q10 0 33.5 -0.5t51.5 -1.5t56.5 -2.5t49.5 -4.5
h51q8 0 13.5 -5.5t5.5 -13.5v-207z" />
    <glyph glyph-name="f_j" unicode="fj" horiz-adv-x="628" 
d="M548 -64q0 -39 -8.5 -64.5t-24 -41t-39 -21.5t-53.5 -6q-15 0 -27 1t-27 3q-18 3 -18 16v37q0 14 21 14h41q29 0 38 12t9 50v540h-231v-456q0 -8 -5.5 -14t-13.5 -6h-49q-8 0 -14 6t-6 14v456l-97 11q-19 2 -19 18v27q0 8 5.5 13t13.5 5h97v72q0 40 9.5 67t27.5 43
t44 22.5t59 6.5q20 0 33 -2t23 -4q19 -5 19 -16v-33q0 -15 -18 -15h-48q-35 0 -48 -14t-13 -55v-72h301q8 0 13 -6t5 -14v-594zM550 657q0 -8 -6 -13.5t-14 -5.5h-51q-8 0 -14 5.5t-6 13.5v81q0 8 6 14t14 6h51q8 0 14 -6t6 -14v-81z" />
    <glyph glyph-name="f_k" unicode="fk" horiz-adv-x="888" 
d="M296 691q-35 0 -51 -14t-16 -55v-72h105q8 0 13.5 -5t5.5 -13v-39q0 -17 -19 -17h-105v-456q0 -8 -5.5 -14t-13.5 -6h-49q-8 0 -14 6t-6 14v456l-97 11q-19 2 -19 18v27q0 8 5.5 13t13.5 5h97v72q0 40 10.5 67t29.5 43t46 22.5t60 6.5q10 0 33.5 -0.5t51.5 -1.5
t56.5 -2.5t49.5 -4.5h51q8 0 13.5 -5.5t5.5 -13.5v-417l200 225q5 5 8.5 7t11.5 2h70q15 0 15 -11q0 -6 -5 -11l-220 -238l222 -268q3 -3 3 -9q0 -13 -11 -13h-72q-8 0 -12.5 2.5t-10.5 10.5l-199 246v-239q0 -8 -6 -14t-14 -6h-48q-8 0 -14 6t-6 14v671h-164z" />
    <glyph glyph-name="f_f" unicode="ff" horiz-adv-x="700" 
d="M675 706q0 -15 -18 -15h-48q-35 0 -48 -14t-13 -55v-72h105q8 0 13.5 -5t5.5 -13v-39q0 -17 -19 -17h-105v-456q0 -8 -5.5 -14t-13.5 -6h-49q-8 0 -14 6t-6 14v456h-231v-456q0 -8 -5.5 -14t-13.5 -6h-49q-8 0 -14 6t-6 14v456l-97 11q-19 2 -19 18v27q0 8 5.5 13t13.5 5
h97v72q0 40 9.5 67t27.5 43t44 22.5t59 6.5q20 0 33 -2t23 -4q19 -5 19 -16v-33q0 -15 -18 -15h-48q-35 0 -48 -14t-13 -55v-72h231v72q0 40 9.5 67t27.5 43t44 22.5t59 6.5q20 0 33 -2t23 -4q19 -5 19 -16v-33v0z" />
    <glyph glyph-name="fi" unicode="fi" horiz-adv-x="628" 
d="M548 20q0 -8 -6 -14t-14 -6h-48q-8 0 -14 6t-6 14v456h-231v-456q0 -8 -5.5 -14t-13.5 -6h-49q-8 0 -14 6t-6 14v456l-97 11q-19 2 -19 18v27q0 8 5.5 13t13.5 5h97v72q0 40 9.5 67t27.5 43t44 22.5t59 6.5q20 0 33 -2t23 -4q19 -5 19 -16v-33q0 -15 -18 -15h-48
q-35 0 -48 -14t-13 -55v-72h299q8 0 14 -6t6 -14v-510zM550 658q0 -8 -6 -14t-14 -6h-51q-8 0 -14 6t-6 14v80q0 8 6 14t14 6h51q8 0 14 -6t6 -14v-80z" />
    <glyph glyph-name="fl" unicode="fl" horiz-adv-x="625" 
d="M548 20q0 -8 -5 -14t-13 -6h-52q-8 0 -13 6t-5 14v671h-164q-35 0 -51 -14t-16 -55v-72h105q8 0 13.5 -5t5.5 -13v-39q0 -17 -19 -17h-105v-456q0 -8 -5.5 -14t-13.5 -6h-49q-8 0 -14 6t-6 14v456l-97 11q-19 2 -19 18v27q0 8 5.5 13t13.5 5h97v72q0 40 10.5 67t29.5 43
t46 22.5t60 6.5q10 0 33.5 -0.5t51.5 -1.5t56.5 -2.5t49.5 -4.5h52q8 0 13 -5.5t5 -13.5v-713v0z" />
    <glyph glyph-name="f_f_i" unicode="ffi" horiz-adv-x="947" 
d="M867 20q0 -8 -6 -14t-14 -6h-48q-8 0 -14 6t-6 14v456h-231v-456q0 -8 -5.5 -14t-13.5 -6h-49q-8 0 -14 6t-6 14v456h-231v-456q0 -8 -5.5 -14t-13.5 -6h-49q-8 0 -14 6t-6 14v456l-97 11q-19 2 -19 18v27q0 8 5.5 13t13.5 5h97v72q0 40 9.5 67t27.5 43t44 22.5t59 6.5
q20 0 33 -2t23 -4q19 -5 19 -16v-33q0 -15 -18 -15h-48q-35 0 -48 -14t-13 -55v-72h231v72q0 40 9.5 67t27.5 43t44 22.5t59 6.5q20 0 33 -2t23 -4q19 -5 19 -16v-33q0 -15 -18 -15h-48q-35 0 -48 -14t-13 -55v-72h299q8 0 14 -6t6 -14v-510zM869 658q0 -8 -6 -14t-14 -6
h-51q-8 0 -14 6t-6 14v80q0 8 6 14t14 6h51q8 0 14 -6t6 -14v-80z" />
    <glyph glyph-name="f_f_l" unicode="ffl" horiz-adv-x="944" 
d="M356 706q0 -15 -18 -15h-48q-35 0 -48 -14t-13 -55v-72h231v72q0 40 10.5 67t29.5 43t46 22.5t60 6.5q10 0 33 -0.5t51 -1.5t56.5 -2.5t49.5 -4.5h52q8 0 13 -5.5t5 -13.5v-713q0 -8 -5 -14t-13 -6h-52q-8 0 -13 6t-5 14v671h-163q-35 0 -51 -14t-16 -55v-72h105
q8 0 13.5 -5t5.5 -13v-39q0 -17 -19 -17h-105v-456q0 -8 -5.5 -14t-13.5 -6h-49q-8 0 -14 6t-6 14v456h-231v-456q0 -8 -5.5 -14t-13.5 -6h-49q-8 0 -14 6t-6 14v456l-97 11q-19 2 -19 18v27q0 8 5.5 13t13.5 5h97v72q0 40 9.5 67t27.5 43t44 22.5t59 6.5q20 0 33 -2t23 -4
q19 -5 19 -16v-33v0z" />
    <glyph glyph-name=".notdef" horiz-adv-x="500" 
d="M12 665h475v-665h-475v665zM250 375l161 243h-323zM60 91l7 10t18 27t25.5 39t29.5 45q35 54 81 121l-161 242v-484zM278 333l162 -243v485zM250 290l-162 -242h323z" />
    <glyph glyph-name=".null" horiz-adv-x="0" 
 />
    <glyph glyph-name="nonmarkingreturn" horiz-adv-x="247" 
 />
    <glyph glyph-name="space" unicode=" " horiz-adv-x="247" 
 />
    <glyph glyph-name="exclam" unicode="!" horiz-adv-x="217" 
d="M146 213q0 -8 -5.5 -13.5t-13.5 -5.5h-36q-8 0 -14 5.5t-6 13.5l-7 520q0 8 6 13.5t14 5.5h50q8 0 14 -5.5t6 -13.5zM152 19q0 -19 -19 -19h-48q-8 0 -13.5 5.5t-5.5 13.5v94q0 8 5.5 13.5t13.5 5.5h48q8 0 13.5 -5.5t5.5 -13.5v-94z" />
    <glyph glyph-name="quotedbl" unicode="&#x22;" horiz-adv-x="362" 
d="M333 741q0 -5 -1 -8l-58 -189q-5 -19 -19 -19h-47q-9 0 -9 10q0 6 1 9l46 189q4 19 20 19h56q11 0 11 -11zM163 741q0 -5 -1 -8l-58 -189q-5 -19 -19 -19h-47q-9 0 -9 10q0 6 1 9l46 189q4 19 20 19h56q11 0 11 -11z" />
    <glyph glyph-name="numbersign" unicode="#" horiz-adv-x="660" 
d="M610 510l-2 -22q-2 -19 -20 -19h-97l-18 -202h98q8 0 12 -5.5t4 -13.5v-2l-2 -21q-2 -19 -20 -19h-98l-16 -187q-1 -8 -5.5 -13.5t-12.5 -5.5h-44q-8 0 -12 5t-4 12v2l16 187h-155l-16 -187q-1 -8 -5.5 -13.5t-12.5 -5.5h-45q-7 0 -11.5 5t-4.5 12v2l16 187h-93
q-8 0 -12 5.5t-4 13.5v2l2 21q2 19 20 19h93l18 202h-94q-8 0 -12 5.5t-4 13.5v2l2 22q2 19 20 19h93l17 193q1 8 6 13.5t13 5.5h45q7 0 11 -5t4 -12v-2l-17 -193h155l17 193q1 8 6 13.5t13 5.5h44q8 0 11.5 -5t3.5 -12v-2l-17 -193h98q8 0 12 -5.5t4 -13.5v-2zM258 469
l-18 -202h155l18 202h-155z" />
    <glyph glyph-name="dollar" unicode="$" 
d="M528 193q0 -32 -8.5 -63.5t-29 -58.5t-56 -47t-89.5 -27v-94q0 -8 -6 -14t-14 -6h-47q-8 0 -14 6t-6 14v90q-45 1 -79.5 5t-63.5 9q-13 2 -16 6t-3 12v41q0 8 5 12t12 4h3q17 -2 38.5 -3.5t44 -2.5t44 -2t38.5 -1q45 0 74.5 9t46.5 25t24 38t7 48q0 19 -6 34.5t-20 30.5
t-37 31.5t-57 37.5l-97 59q-69 42 -103.5 84.5t-34.5 102.5q0 78 46.5 120.5t133.5 53.5v86q0 8 6 14t14 6h47q8 0 14 -6t6 -14v-83q41 -2 81 -5.5t65 -7.5q17 -3 17 -17v-43q0 -16 -17 -16h-2q-33 2 -80.5 5.5t-91.5 3.5q-78 0 -112.5 -21t-34.5 -76q0 -35 26 -61t83 -60
l92 -55q43 -26 73 -50t49 -48t27 -50t8 -56z" />
    <glyph glyph-name="percent" unicode="%" horiz-adv-x="794" 
d="M749 155q0 -82 -35.5 -122t-98.5 -40t-99 40t-36 122v93q0 83 36 122.5t99 39.5t98.5 -39.5t35.5 -122.5v-93zM650 737q0 -3 -5 -13l-418 -708q-6 -11 -10 -15.5t-12 -4.5h-49q-10 0 -10 8q0 7 4 12l418 708q7 11 11 15t12 4h51q8 0 8 -6zM314 496q0 -82 -35.5 -122
t-98.5 -40t-99 40t-36 122v93q0 83 36 122t99 39t98.5 -39t35.5 -122v-93zM687 248q0 57 -19 81t-53 24t-53.5 -24t-19.5 -81v-93q0 -57 19.5 -81t53.5 -24t53 24t19 81v93zM252 589q0 57 -19 81t-53 24t-53.5 -24t-19.5 -81v-93q0 -57 19.5 -81t53.5 -24t53 24t19 81v93z
" />
    <glyph glyph-name="ampersand" unicode="&#x26;" horiz-adv-x="678" 
d="M641 11q0 -5 -3.5 -8t-7.5 -3h-69q-7 0 -10 2t-6 5l-50 54q-37 -32 -86 -50t-111 -18q-46 0 -90 9.5t-78.5 31t-55.5 56.5t-21 86v8q0 31 8.5 56.5t26 49t44.5 45.5t65 46l-7 8q-35 40 -56 69.5t-31.5 51.5t-13.5 39t-3 34v8q0 80 56.5 119.5t153.5 39.5q42 0 78 -10
t63 -30t42.5 -49.5t15.5 -69.5v-8q0 -25 -6 -47t-23 -45t-47 -48.5t-77 -57.5l-28 -19l181 -195q20 36 29.5 81t9.5 95v14q0 16 16 16h43q17 0 17 -16v-14q0 -66 -15.5 -124.5t-47.5 -105.5l89 -95q5 -5 5 -11zM412 591q0 50 -32 71t-84 21q-57 0 -92.5 -20t-35.5 -72v-8
q0 -13 2 -26t10.5 -29.5t25.5 -39t47 -55.5l10 -11l34 21q36 22 58.5 39t35 32.5t17 31.5t4.5 37v8zM248 326q-30 -19 -50 -35t-31.5 -32t-16.5 -34t-5 -41v-8q0 -30 12.5 -52t33.5 -35.5t49 -20t58 -6.5q48 0 85 14t64 37z" />
    <glyph glyph-name="quotesingle" unicode="'" horiz-adv-x="192" 
d="M163 741q0 -5 -1 -8l-58 -189q-5 -19 -19 -19h-47q-9 0 -9 10q0 6 1 9l46 189q4 19 20 19h56q11 0 11 -11z" />
    <glyph glyph-name="parenleft" unicode="(" horiz-adv-x="305" 
d="M280 -201q0 -8 -10 -8h-47q-8 0 -12.5 1.5t-10.5 9.5q-33 40 -59 93t-44 113t-27.5 125.5t-9.5 131.5v13q0 66 9.5 131.5t27.5 125.5t44 112.5t59 93.5q6 8 10.5 9.5t12.5 1.5h47q10 0 10 -8q0 -6 -3 -10q-64 -94 -96.5 -209t-32.5 -247v-13q0 -132 32.5 -247t96.5 -209
q3 -5 3 -10z" />
    <glyph glyph-name="parenright" unicode=")" horiz-adv-x="305" 
d="M259 265q0 -66 -9.5 -131.5t-27.5 -125.5t-44 -113t-59 -93q-6 -8 -10.5 -9.5t-12.5 -1.5h-47q-10 0 -10 8q0 5 3 10q64 94 96.5 209t32.5 247v13q0 132 -32.5 247t-96.5 209q-3 4 -3 10q0 8 10 8h47q8 0 12.5 -1.5t10.5 -9.5q33 -41 59 -93.5t44 -112.5t27.5 -125.5
t9.5 -131.5v-13v0z" />
    <glyph glyph-name="asterisk" unicode="*" horiz-adv-x="465" 
d="M419 598q0 -10 -14 -15l-125 -39l77 -106q5 -7 5 -13q0 -7 -6 -11l-24 -18q-5 -3 -8 -3q-8 0 -15 10l-76 106l-76 -106q-7 -10 -15 -10q-4 0 -8 3l-25 18q-6 4 -6 11q0 6 5 13l78 106l-124 39q-6 2 -10.5 6t-4.5 9q0 2 0.5 2.5t0.5 2.5l9 29q3 10 13 10q3 0 9 -2l124 -41
v131q0 19 15 19h30q15 0 15 -19l-1 -131l125 41q6 2 9 2q10 0 13 -10l9 -29q1 -2 1 -5z" />
    <glyph glyph-name="plus" unicode="+" 
d="M530 371q0 -8 -6 -12t-14 -4h-172v-171q0 -8 -4 -14t-12 -6h-40q-8 0 -12 6t-4 14v171h-171q-8 0 -14 4t-6 12v40q0 8 6 12t14 4h171v172q0 8 4 14t12 6h40q8 0 12 -6t4 -14v-172h172q8 0 14 -4t6 -12v-40v0z" />
    <glyph glyph-name="comma" unicode="," horiz-adv-x="214" 
d="M169 118q0 -2 -2 -8l-75 -189q-4 -10 -7.5 -14.5t-11.5 -4.5h-41q-12 0 -12 12q0 5 1 7l57 189q6 19 20 19h58q13 0 13 -11z" />
    <glyph glyph-name="hyphen" unicode="-" horiz-adv-x="333" 
d="M285 273q0 -17 -19 -17h-199q-19 0 -19 17v39q0 8 5.5 13t13.5 5h199q19 0 19 -18v-39v0z" />
    <glyph glyph-name="period" unicode="." horiz-adv-x="214" 
d="M150 21q0 -8 -5.5 -14t-13.5 -6h-48q-8 0 -13.5 6t-5.5 14v93q0 8 5.5 13.5t13.5 5.5h48q8 0 13.5 -5.5t5.5 -13.5v-93v0z" />
    <glyph glyph-name="slash" unicode="/" horiz-adv-x="355" 
d="M333 729q0 -4 -1 -6l-226 -703q-2 -8 -6 -14t-12 -6h-51q-7 0 -10.5 4.5t-3.5 9.5q0 4 1 6l227 703q2 8 5.5 14t11.5 6h51q7 0 10.5 -4.5t3.5 -9.5z" />
    <glyph glyph-name="zero" unicode="0" 
d="M548 304q0 -83 -17 -142t-49 -96.5t-77 -55t-102 -17.5t-102.5 17.5t-77.5 55t-49 96.5t-17 142v135q0 83 17 142t49 96.5t77.5 55t102.5 17.5t102 -17.5t77 -55t49 -96.5t17 -142v-135zM457 439q0 63 -11 107.5t-31 72.5t-48.5 41t-63.5 13t-63.5 -13t-48.5 -41
t-31 -72.5t-11 -107.5v-135q0 -63 11 -107.5t31 -72.5t48.5 -41t63.5 -13t63.5 13t48.5 41t31 72.5t11 107.5v135z" />
    <glyph glyph-name="one" unicode="1" 
d="M90 0q-8 0 -14 5t-6 13v44q0 8 6 12.5t14 4.5h159v570l-157 -66q-6 -2 -14 -2.5t-8 10.5v51q0 5 2.5 7.5t7.5 5.5l179 82q12 6 21 6h41q8 0 13.5 -5.5t5.5 -13.5v-645h160q8 0 14 -4.5t6 -12.5v-44q0 -8 -6 -13t-14 -5h-410z" />
    <glyph glyph-name="two" unicode="2" 
d="M526 571q0 -59 -30 -102.5t-100 -90.5l-96 -65q-42 -28 -69 -52.5t-42.5 -49.5t-22 -51.5t-6.5 -59.5v-21h337q8 0 14 -4.5t6 -12.5v-44q0 -8 -6 -13t-14 -5h-397q-8 0 -14 5.5t-6 13.5v81q0 78 35.5 143t117.5 120l101 68q31 21 51 37t31.5 31.5t16 32t4.5 39.5
q0 54 -34.5 78.5t-115.5 24.5q-39 0 -87 -4.5t-90 -10.5h-4q-16 0 -16 18v35q0 8 5.5 12t13.5 6q38 10 85.5 15t92.5 5q122 0 180.5 -43t58.5 -136z" />
    <glyph glyph-name="three" unicode="3" 
d="M521 207q0 -56 -18.5 -96.5t-51.5 -66.5t-78.5 -38.5t-100.5 -12.5q-48 0 -90.5 6t-78.5 14q-8 2 -13.5 6.5t-5.5 12.5v34q0 17 17 17h3q45 -6 89 -10t79 -4q82 0 119 33t37 105v21q0 20 -5.5 41.5t-19 39.5t-36 29.5t-56.5 11.5h-182q-19 0 -19 18v35q0 19 19 19h182
q36 0 59 11t35.5 28.5t17.5 38.5t5 41v14q0 62 -35.5 90.5t-120.5 28.5q-44 0 -81.5 -4.5t-86.5 -10.5h-3q-17 0 -17 17v35q0 7 5.5 12t13.5 7q36 8 78.5 14t90.5 6q56 0 102 -9.5t78.5 -32.5t50.5 -60.5t18 -92.5v-14q0 -51 -24 -92t-71 -64q27 -13 45 -31t29 -39t16 -43
t5 -44v-21v0z" />
    <glyph glyph-name="four" unicode="4" 
d="M567 216q0 -18 -19 -18h-87v-178q0 -8 -4.5 -14t-12.5 -6h-58q-8 0 -12.5 6t-4.5 14v178h-289q-23 0 -32 8.5t-9 30.5v38q0 21 12 37l296 415q4 6 10 11t19 5h59q26 0 26 -22v-447h87q8 0 13.5 -5t5.5 -13v-40zM370 616q0 6 -4 6h-1q-4 0 -8 -6l-231 -328q-3 -5 -3 -8
q0 -6 8 -6h239v342z" />
    <glyph glyph-name="five" unicode="5" 
d="M528 226q0 -112 -66.5 -172.5t-188.5 -60.5q-49 0 -93.5 4.5t-82.5 13.5q-8 2 -13.5 6t-5.5 14v37q0 15 15 15h5q48 -8 92.5 -11t82.5 -3q85 0 124 40t39 117v15q0 75 -49.5 104.5t-159.5 29.5h-120q-7 0 -11.5 5t-4.5 12v1l28 333q1 8 6.5 12.5t13.5 4.5h344
q8 0 14 -4.5t6 -12.5v-44q0 -8 -6 -12t-14 -4h-287l-16 -216h47q70 0 125.5 -10t94.5 -34.5t60 -64.5t21 -100v-15v0z" />
    <glyph glyph-name="six" unicode="6" 
d="M546 246q0 -119 -60.5 -186t-183.5 -67q-112 0 -177 68.5t-65 215.5v175q0 80 16.5 136.5t49.5 92.5t82 52.5t113 16.5q60 0 100.5 -5t71.5 -12q9 -2 16 -6t7 -13v-39q0 -9 -5 -13.5t-13 -4.5q-2 0 -3 0.5t-3 0.5q-38 8 -80.5 12t-90.5 4q-58 0 -92 -16.5t-51.5 -45.5
t-22.5 -70t-5 -90v-11q31 7 67.5 13.5t83.5 6.5q49 0 93 -10t78 -34t54 -64.5t20 -100.5v-6zM456 252q0 40 -13 67t-35 42.5t-49.5 22t-57.5 6.5q-18 0 -39 -1.5t-41.5 -4t-39 -6t-31.5 -6.5v-95q0 -61 10 -101.5t29.5 -64.5t48 -34t64.5 -10q35 0 63.5 9t48.5 30t31 55
t11 85v6z" />
    <glyph glyph-name="seven" unicode="7" 
d="M533 680q0 -24 -13 -52l-288 -613q-8 -15 -22 -15h-60q-8 0 -11.5 4.5t-3.5 10.5q0 5 3 11l302 628q1 1 1 4q0 7 -7 7h-341q-8 0 -14 4.5t-6 12.5v42q0 8 6 13.5t14 5.5h365q42 0 58.5 -18.5t16.5 -44.5z" />
    <glyph glyph-name="eight" unicode="8" 
d="M551 207q0 -55 -19.5 -95t-52.5 -66.5t-77 -39.5t-94 -13h-10q-50 0 -94 13t-77 39.5t-52.5 66.5t-19.5 95v19q0 23 6.5 46t18.5 44.5t30 40t42 31.5q-48 24 -71.5 65t-23.5 91v9q0 52 18.5 89t50.5 61t76.5 35.5t95.5 11.5h10q51 0 95.5 -11.5t76.5 -35.5t50.5 -61
t18.5 -89v-9q0 -50 -23.5 -91t-71.5 -65q24 -13 42 -31.5t30 -40t18.5 -44.5t6.5 -46v-19zM461 553q0 60 -39 91.5t-114 31.5h-10q-75 0 -114 -31.5t-39 -91.5v-9q0 -23 7 -45t22 -38.5t39 -26.5t59 -10h62q34 0 58.5 10t39.5 26.5t22 38.5t7 45v9zM460 226q0 21 -7 43.5
t-22 41t-39 30t-58 11.5h-62q-35 0 -59 -11.5t-39 -30t-21.5 -41t-6.5 -43.5v-19q0 -65 38.5 -101.5t113.5 -36.5h10q75 0 113.5 36.5t38.5 101.5v19z" />
    <glyph glyph-name="nine" unicode="9" 
d="M537 291q0 -80 -16.5 -136.5t-49.5 -92.5t-82 -52.5t-113 -16.5q-60 0 -100.5 5t-71.5 12q-10 2 -17 6t-7 13v39q0 9 5 13.5t13 4.5q2 0 3 -0.5t3 -0.5q38 -8 80.5 -12t90.5 -4q58 0 92 16.5t52 45.5t23 70t5 90v11q-32 -7 -68.5 -13.5t-82.5 -6.5q-49 0 -93.5 10
t-78.5 34t-54 64.5t-20 100.5v6q0 119 60.5 186t183.5 67q56 0 101 -17t76.5 -51.5t48.5 -88.5t17 -127v-175zM447 466q0 61 -10 101.5t-29.5 64.5t-48 34t-64.5 10q-35 0 -64 -9t-49 -30t-31 -55t-11 -85v-6q0 -41 13 -67.5t35 -42t49.5 -22t57.5 -6.5q18 0 39 1.5t41.5 4
t38.5 6t32 6.5z" />
    <glyph glyph-name="colon" unicode=":" horiz-adv-x="219" 
d="M153 437q0 -8 -6 -13.5t-14 -5.5h-47q-8 0 -14 5.5t-6 13.5v93q0 8 6 14t14 6h47q8 0 14 -6t6 -14v-93zM153 19q0 -8 -6 -13.5t-14 -5.5h-47q-8 0 -14 5.5t-6 13.5v94q0 8 6 13.5t14 5.5h47q8 0 14 -5.5t6 -13.5v-94z" />
    <glyph glyph-name="semicolon" unicode=";" horiz-adv-x="219" 
d="M153 437q0 -19 -19 -19h-49q-8 0 -13.5 5.5t-5.5 13.5v93q0 8 5.5 14t13.5 6h49q8 0 13.5 -6t5.5 -14v-93zM157 117q0 -2 -2 -8l-75 -189q-4 -10 -7.5 -15t-11.5 -5h-40q-12 0 -12 13q0 5 1 7l57 189q6 19 20 19h57q13 0 13 -11z" />
    <glyph glyph-name="less" unicode="&#x3c;" 
d="M482 150q0 -10 -12 -10h-58q-8 0 -15 2.5t-16 10.5l-241 204q-18 15 -18 34t18 34l241 204q9 8 16 10.5t15 2.5h58q12 0 12 -10q0 -8 -10 -17l-262 -224l262 -224q10 -9 10 -17z" />
    <glyph glyph-name="equal" unicode="=" 
d="M515 482q0 -8 -6 -12t-14 -4h-385q-8 0 -14 4t-6 12v40q0 8 6 12t14 4h385q8 0 14 -4t6 -12v-40zM515 261q0 -8 -6 -12t-14 -4h-385q-8 0 -14 4t-6 12v40q0 8 6 12t14 4h385q8 0 14 -4t6 -12v-40z" />
    <glyph glyph-name="greater" unicode="&#x3e;" 
d="M483 391q0 -19 -18 -34l-241 -204q-16 -13 -31 -13h-58q-12 0 -12 10q0 8 10 17l262 224l-262 224q-10 9 -10 17q0 10 12 10h58q8 0 15 -2.5t16 -10.5l241 -204q18 -15 18 -34z" />
    <glyph glyph-name="question" unicode="?" horiz-adv-x="446" 
d="M386 587q0 -18 -3.5 -35t-13.5 -36.5t-28 -43.5t-46 -56l-45 -51q-14 -16 -24 -28t-16.5 -23t-9.5 -23.5t-3 -28.5v-49q0 -8 -6 -13.5t-14 -5.5h-44q-8 0 -13.5 5.5t-5.5 13.5v49q0 24 3 42.5t10.5 35.5t20 34.5t32.5 38.5l46 51q19 21 31 37t19 30t9.5 27.5t2.5 28.5v12
q0 40 -25 56t-77 16q-36 0 -68.5 -2.5t-66.5 -6.5h-3q-15 0 -15 17v35q0 9 2.5 15t14.5 8q31 6 66.5 9.5t69.5 3.5q43 0 79.5 -7.5t63.5 -25t42 -46.5t15 -72v-12zM198 19q0 -19 -19 -19h-48q-8 0 -14 5.5t-6 13.5v93q0 8 6 14t14 6h48q8 0 13.5 -6t5.5 -14v-93z" />
    <glyph glyph-name="at" unicode="@" horiz-adv-x="767" 
d="M728 366q0 -94 -24 -153.5t-70 -94.5q-47 -35 -114.5 -49.5t-155.5 -14.5q-75 0 -118 36.5t-43 102.5v9t1 9l11 117q8 77 54.5 118t127.5 41q32 0 65.5 -4.5t62.5 -10.5q10 -2 15.5 -6t5.5 -15v-4l-30 -313q47 7 75.5 26.5t44.5 49.5t21 69.5t5 86.5t-15 89.5t-46 74
t-77 50t-108 18.5q-66 0 -118 -18.5t-89 -51.5t-59 -80t-28 -104l-15 -152q-1 -8 -1.5 -16t-0.5 -16q0 -45 15.5 -84t46.5 -67.5t78.5 -45t111.5 -16.5q36 0 72 2t72 5h1q6 0 8 -4q1 -2 1 -3v-32q0 -8 -4 -10.5t-12 -3.5q-20 -2 -57 -5t-82 -3q-72 0 -130 19.5t-99.5 54.5
t-63.5 84.5t-22 109.5v15.5t1 15.5l15 156q6 68 33.5 124.5t73.5 97.5t110.5 63.5t144.5 22.5q77 0 135 -24.5t96.5 -65t58 -92.5t19.5 -108zM457 409q-16 2 -33.5 4t-34.5 2q-45 0 -65.5 -22t-25.5 -67l-11 -114q-1 -5 -1 -9v-8q0 -35 19 -52t63 -17h21h21.5t21.5 2z" />
    <glyph glyph-name="A" unicode="A" horiz-adv-x="633" 
d="M604 16q0 -16 -17 -16h-59q-7 0 -11 4.5t-6 10.5l-65 230h-259l-64 -230q-2 -6 -7 -10.5t-11 -4.5h-59q-17 0 -17 16q0 5 1 7l185 651q6 23 17.5 37.5t25.5 23t29.5 12t29.5 3.5t29 -3t29 -11.5t25.5 -23t17.5 -37.5l185 -652q1 -2 1 -7zM336 653q-5 18 -19 18
q-15 0 -20 -18l-91 -329h221z" />
    <glyph glyph-name="B" unicode="B" horiz-adv-x="616" 
d="M566 205q0 -63 -23.5 -104t-64 -65t-93.5 -33.5t-111 -9.5q-50 0 -92 2t-71 7q-17 2 -25 10t-8 27v666q0 34 32 37q25 3 67.5 5.5t91.5 2.5q60 0 113 -9t93 -31t63.5 -59t23.5 -94v-16q0 -56 -28 -96.5t-79 -60.5q52 -18 81.5 -61t29.5 -101v-17zM471 557
q0 36 -14.5 58.5t-41 35.5t-63.5 17.5t-83 4.5q-26 0 -52 -1t-47 -2v-248h154q43 0 71.5 9.5t45.5 26t23.5 38t6.5 45.5v16zM475 222q0 25 -7 48t-24.5 40.5t-46.5 28t-73 10.5h-154v-275q25 -1 51.5 -2.5t52.5 -1.5q46 0 83.5 6t63.5 21t40 41t14 67v17z" />
    <glyph glyph-name="C" unicode="C" horiz-adv-x="545" 
d="M510 26q0 -9 -6 -13.5t-14 -6.5q-16 -3 -32 -5.5t-35 -4t-43 -2.5t-56 -1q-46 0 -93 14t-85 49.5t-62 95t-24 150.5v139q0 92 24 151.5t62 94.5t85 49t93 14q48 0 91.5 -5.5t76.5 -10.5q16 -2 16 -13v-51q0 -5 -2 -8t-10 -3h-3q-14 1 -33.5 2.5t-42 3t-46.5 2.5t-46 1
q-37 0 -68.5 -11.5t-55 -38t-37 -70t-13.5 -107.5v-139q0 -63 13.5 -106.5t37 -70t55 -38.5t68.5 -12q21 0 44.5 1t46 2t41.5 2.5t33 2.5h4q16 0 16 -16v-41v0z" />
    <glyph glyph-name="D" unicode="D" horiz-adv-x="641" 
d="M584 304q0 -80 -21.5 -139t-61 -97t-95.5 -56.5t-125 -18.5q-29 0 -56.5 1t-52 2.5t-43.5 3t-30 3.5q-21 3 -21 25v687q0 22 21 25q11 2 30 3.5t43.5 3t52 2.5t56.5 1q69 0 125 -18t95.5 -56.5t61 -97t21.5 -139.5v-135zM493 439q0 68 -16.5 113t-45 71.5t-67 37.5
t-83.5 11q-35 0 -60.5 -0.5t-50.5 -2.5v-596q24 -2 50 -2h61q45 0 83.5 11t67 38t45 71.5t16.5 112.5v135z" />
    <glyph glyph-name="E" unicode="E" horiz-adv-x="551" 
d="M496 12q0 -5 -2.5 -9t-7.5 -5q-14 -2 -38 -2.5t-51.5 -1.5t-55.5 -1h-50q-106 0 -159.5 43t-53.5 143v385q0 100 53.5 143t159.5 43q22 0 49.5 -0.5t54.5 -1t51 -2l40 -2.5q5 -1 7.5 -5t2.5 -9v-50q0 -12 -11 -12h-193q-40 0 -64 -5.5t-37 -18t-17.5 -32.5t-4.5 -48v-139
h307q8 0 14 -6t6 -14v-38q0 -8 -6 -14t-14 -6h-307v-168q0 -29 4.5 -48.5t17.5 -32t37 -18t64 -5.5h193q11 0 11 -12v-51v0z" />
    <glyph glyph-name="F" unicode="F" horiz-adv-x="551" 
d="M496 367q0 -8 -6 -14t-14 -6h-307v-327q0 -8 -6 -14t-14 -6h-51q-8 0 -14 6t-6 14v544q0 100 53.5 143t159.5 43q22 0 49.5 -0.5t54.5 -1t51 -2l40 -2.5q5 -1 7.5 -5t2.5 -9v-50q0 -12 -11 -12h-193q-40 0 -64 -5.5t-37 -18t-17.5 -32.5t-4.5 -48v-139h307q8 0 14 -6
t6 -14v-38v0z" />
    <glyph glyph-name="G" unicode="G" horiz-adv-x="612" 
d="M534 30q0 -19 -18 -22q-37 -6 -82.5 -10.5t-116.5 -4.5q-47 0 -93.5 16.5t-83 53t-59.5 96t-23 145.5v134q0 91 24 151t62 96t86 50.5t96 14.5q70 0 115.5 -4.5t74.5 -9.5q7 -1 12 -4t5 -11v-50q0 -10 -13 -10h-4q-22 2 -42.5 3.5t-42.5 2t-47.5 1t-57.5 0.5
q-35 0 -67 -10.5t-56.5 -37t-39 -71t-14.5 -111.5v-134q0 -62 13 -105.5t36 -71.5t53.5 -40.5t65.5 -12.5q46 0 77 2t49 4v286q0 8 5 14t13 6h54q8 0 13.5 -6t5.5 -14v-336v0z" />
    <glyph glyph-name="H" unicode="H" horiz-adv-x="680" 
d="M602 20q0 -8 -6 -14t-14 -6h-51q-8 0 -14 6t-6 14v332h-342v-332q0 -8 -6 -14t-14 -6h-51q-8 0 -14 6t-6 14v703q0 8 6 14t14 6h51q8 0 14 -6t6 -14v-290h342v290q0 8 6 14t14 6h51q8 0 14 -6t6 -14v-703v0z" />
    <glyph glyph-name="I" unicode="I" horiz-adv-x="267" 
d="M179 20q0 -8 -5 -14t-13 -6h-55q-8 0 -13 6t-5 14v704q0 8 5 13.5t13 5.5h55q8 0 13 -5.5t5 -13.5v-704v0z" />
    <glyph glyph-name="J" unicode="J" horiz-adv-x="257" 
d="M179 -37q0 -72 -36 -107.5t-119 -35.5q-17 0 -32.5 3t-20.5 5q-6 3 -6 11v37q0 8 6 12.5t14 4.5h39q40 0 52 16.5t12 53.5v761q0 8 5.5 13.5t13.5 5.5h53q8 0 13.5 -5.5t5.5 -13.5v-761v0z" />
    <glyph glyph-name="K" unicode="K" horiz-adv-x="607" 
d="M564 10q0 -10 -13 -10h-78q-13 0 -22 10l-282 343v-333q0 -8 -5 -14t-13 -6h-55q-8 0 -13 6t-5 14v704q0 8 5.5 13.5t13.5 5.5h53q8 0 13.5 -5.5t5.5 -13.5v-323l288 333q5 5 8.5 7t11.5 2h72q14 0 14 -11q0 -6 -4 -10l-301 -340l301 -360q5 -5 5 -12z" />
    <glyph glyph-name="L" unicode="L" horiz-adv-x="514" 
d="M496 16q0 -5 -2.5 -9t-7.5 -5q-20 -3 -72 -6t-123 -3q-40 0 -78.5 6t-68.5 25.5t-48 56t-18 98.5v544q0 8 6 14t14 6h51q8 0 14 -6t6 -14v-544q0 -29 4.5 -48.5t17.5 -32t37 -18t64 -5.5h193q11 0 11 -12v-47v0z" />
    <glyph glyph-name="M" unicode="M" horiz-adv-x="761" 
d="M684 20q0 -8 -6 -14t-14 -6h-49q-8 0 -14 6t-6 14v593q0 3 -1 3t-2 -2l-143 -296q-8 -15 -17 -22t-28 -7h-46q-19 0 -28 7t-17 22l-143 296q-1 2 -2 2t-1 -3v-593q0 -8 -6 -14t-14 -6h-49q-8 0 -14 6t-6 14v694q0 12 8.5 20.5t20.5 8.5h65q14 0 20.5 -3.5t11.5 -13.5
l165 -343q5 -11 12 -11t12 11l165 343q5 10 11.5 13.5t20.5 3.5h65q12 0 20.5 -8.5t8.5 -20.5v-694v0z" />
    <glyph glyph-name="N" unicode="N" horiz-adv-x="680" 
d="M602 29q0 -12 -8.5 -20.5t-20.5 -8.5h-62q-24 0 -32 16l-309 587q-2 3 -3 3t-1 -3v-584q0 -8 -5 -13.5t-13 -5.5h-52q-8 0 -13 2t-5 10v703q0 12 8.5 20t20.5 8h55q21 0 28 -4.5t13 -15.5l307 -584l2 -3q1 0 1 3v585q0 8 5 13.5t13 5.5h53q8 0 13 -5.5t5 -13.5v-695v0z
" />
    <glyph glyph-name="O" unicode="O" horiz-adv-x="661" 
d="M601 307q0 -83 -20 -142.5t-56 -97.5t-85.5 -56t-108.5 -18t-108.5 18t-85.5 56t-56.5 97.5t-20.5 142.5v129q0 83 20.5 142.5t56.5 97.5t85.5 56t108.5 18t108.5 -18t85.5 -56t56 -97.5t20 -142.5v-129zM509 436q0 63 -12.5 107t-35.5 72t-56 40.5t-74 12.5t-74 -12.5
t-56.5 -40.5t-36 -72t-12.5 -107v-129q0 -63 12.5 -107t35.5 -72t56.5 -40.5t74.5 -12.5t74 12.5t56 40.5t35.5 72t12.5 107v129z" />
    <glyph glyph-name="P" unicode="P" horiz-adv-x="593" 
d="M548 520q0 -63 -21 -105.5t-58.5 -69t-88.5 -38t-112 -11.5q-24 0 -52 1.5t-48 3.5v-281q0 -8 -5 -14t-13 -6h-54q-8 0 -13 6t-5 14v697q0 22 24 25q32 4 77 6t89 2q61 0 112 -11.5t88.5 -37t58.5 -67t21 -101.5v-13zM457 533q0 76 -46 108t-143 32q-23 0 -52.5 -1
t-47.5 -3v-293q9 0 22 -1t27 -1.5t27.5 -1t23.5 -0.5q103 0 146 35t43 113v13z" />
    <glyph glyph-name="Q" unicode="Q" horiz-adv-x="661" 
d="M601 307q0 -75 -16.5 -131t-46.5 -94.5t-72 -59.5t-92 -27v-43q0 -19 2.5 -30.5t9.5 -17.5t19 -8t31 -2h59q9 0 15.5 -4t6.5 -12v-34q0 -13 -21.5 -18.5t-59.5 -5.5q-37 0 -65 5.5t-47 20.5t-28.5 40.5t-9.5 64.5v45q-50 6 -91.5 27.5t-71.5 59.5t-46.5 93.5t-16.5 130.5
v129q0 83 20.5 142.5t56.5 97.5t85.5 56t108.5 18t108.5 -18t85.5 -56t56 -97.5t20 -142.5v-129zM509 436q0 63 -12.5 107t-35.5 72t-56 40.5t-74 12.5t-74 -12.5t-56.5 -40.5t-36 -72t-12.5 -107v-129q0 -63 12.5 -107t35.5 -72t56.5 -40.5t74.5 -12.5t74 12.5t56 40.5
t35.5 72t12.5 107v129z" />
    <glyph glyph-name="R" unicode="R" horiz-adv-x="625" 
d="M586 13q0 -13 -13 -13h-64q-9 0 -14.5 1.5t-11.5 11.5l-179 298h-9h-17q-25 0 -47.5 0.5t-62.5 2.5v-294q0 -8 -5 -14t-13 -6h-54q-8 0 -13 6t-5 14v700q0 11 5 15.5t19 6.5q16 2 37.5 3.5t45 2.5t47.5 1.5t46 0.5q59 0 110.5 -11t89 -36t59 -66t21.5 -102v-7
q0 -42 -11.5 -75.5t-32.5 -58.5t-50 -42t-63 -26l182 -304q3 -5 3 -9zM468 535q0 75 -48 104t-142 29h-27t-30.5 -0.5t-29.5 -1t-23 -1.5v-274q33 -1 63 -1.5t47 -0.5q46 0 81.5 6.5t59.5 22.5t36.5 42.5t12.5 67.5v7z" />
    <glyph glyph-name="S" unicode="S" horiz-adv-x="550" 
d="M500 193q0 -36 -11 -72t-38.5 -64.5t-75.5 -46t-122 -17.5q-53 0 -93 4.5t-73 9.5q-13 2 -16 6t-3 12v40q0 8 5 12t12 4h3q17 -2 38.5 -3t44 -1.5t44 -1t38.5 -0.5q45 0 74.5 8.5t46.5 24t24 37.5t7 48q0 19 -6 34.5t-20 30.5t-37 31.5t-57 37.5l-97 59
q-69 42 -103.5 84.5t-34.5 102.5q0 91 62 134t177 43q22 0 46.5 -1t48 -2.5t44.5 -4t35 -4.5q17 -3 17 -17v-43q0 -16 -17 -16h-2q-33 2 -80.5 4t-91.5 2q-78 0 -112.5 -20t-34.5 -75q0 -35 26 -61t83 -60l92 -55q43 -26 73 -50t49 -48t27 -50t8 -56z" />
    <glyph glyph-name="T" unicode="T" horiz-adv-x="590" 
d="M555 681q0 -16 -19 -16h-195v-645q0 -8 -5 -14t-13 -6h-55q-8 0 -13 6t-5 14v645h-195q-8 0 -14 4t-6 12v44q0 8 6 13t14 5h481q19 0 19 -18v-44v0z" />
    <glyph glyph-name="U" unicode="U" horiz-adv-x="662" 
d="M587 270q0 -143 -67.5 -210t-188.5 -67q-122 0 -189 67t-67 210v454q0 8 5.5 13.5t13.5 5.5h54q8 0 13.5 -5.5t5.5 -13.5v-454q0 -48 8 -85.5t27.5 -62.5t50.5 -38t78 -13q46 0 77.5 13t51 38t27.5 62t8 86v454q0 8 5.5 13.5t13.5 5.5h54q8 0 13.5 -5.5t5.5 -13.5v-454v0
z" />
    <glyph glyph-name="V" unicode="V" horiz-adv-x="643" 
d="M609 726q0 -4 -1 -6l-184 -651q-7 -24 -18.5 -38.5t-25 -23t-29 -11.5t-29.5 -3t-29 3t-29 11.5t-25.5 23t-18.5 38.5l-185 651q-1 2 -1 6q0 8 5 12.5t13 4.5h58q6 0 11 -4.5t7 -10.5l174 -637q6 -21 20 -21q13 0 19 21l175 637q2 6 6.5 10.5t10.5 4.5h59q17 0 17 -17z
" />
    <glyph glyph-name="W" unicode="W" horiz-adv-x="825" 
d="M791 723l-111 -676q-5 -31 -21.5 -41t-40.5 -10h-43q-21 0 -36 13.5t-21 36.5l-98 370q-2 7 -3 8t-3 1h-1h-1q-2 0 -3 -1t-3 -8l-99 -370q-6 -23 -21 -36.5t-36 -13.5h-42q-24 0 -40.5 10t-21.5 41l-111 676v3q0 17 17 17h58q14 0 17 -17l97 -637q2 -8 2 -11.5t3 -3.5
q4 0 7 15l98 370q10 40 47 40h64q37 0 47 -40l98 -370q3 -15 7 -15q3 0 3 3.5t2 11.5l97 637q3 17 17 17h58q17 0 17 -17v-3z" />
    <glyph glyph-name="X" unicode="X" horiz-adv-x="646" 
d="M604 14q0 -5 -4 -9.5t-12 -4.5h-63q-8 0 -12 3.5t-9 11.5l-183 291l-179 -291q-10 -15 -21 -15h-59q-8 0 -12 4.5t-4 10.5q0 5 3 10l222 353l-220 341q-3 4 -3 10q0 14 15 14h65q8 0 11.5 -2.5t6.5 -7.5l180 -285l174 285q5 7 9 8.5t10 1.5h59q8 0 12 -4.5t4 -10.5
q0 -5 -3 -9l-215 -343l225 -351q3 -5 3 -11z" />
    <glyph glyph-name="Y" unicode="Y" horiz-adv-x="583" 
d="M549 729q0 -5 -3 -11l-155 -348q-14 -30 -27 -45t-27 -21v-284q0 -8 -5 -14t-13 -6h-55q-8 0 -13 6t-5 14v284q-14 5 -27 20.5t-27 45.5l-154 348q-3 6 -3 11q0 14 17 14h61q5 0 10.5 -4.5t7.5 -9.5l138 -324q8 -17 13 -21.5t10 -4.5t10 4.5t13 21.5l139 324q2 5 6.5 9.5
t10.5 4.5h61q17 0 17 -14z" />
    <glyph glyph-name="Z" unicode="Z" horiz-adv-x="597" 
d="M544 18q0 -8 -6 -13t-14 -5h-385q-48 0 -65.5 14t-17.5 54q0 13 3.5 30t11.5 28l358 521q3 4 3 8q0 7 -10 7h-332q-8 0 -14 4.5t-6 12.5v47q0 8 6 12.5t14 4.5h356q42 0 63.5 -12.5t21.5 -53.5q0 -14 -4 -31t-12 -28l-357 -521q-3 -5 -3 -9q0 -6 10 -6h359q8 0 14 -4.5
t6 -12.5v-47v0z" />
    <glyph glyph-name="bracketleft" unicode="[" horiz-adv-x="327" 
d="M303 -174q0 -8 -6 -14t-14 -6h-186q-8 0 -12.5 5.5t-4.5 13.5v899q0 8 4.5 13.5t12.5 5.5h186q8 0 14 -6t6 -14v-33q0 -8 -6 -14t-14 -6h-114v-791h114q8 0 14 -6t6 -14v-33v0z" />
    <glyph glyph-name="backslash" unicode="\" horiz-adv-x="355" 
d="M333 14q0 -5 -3.5 -9.5t-10.5 -4.5h-51q-8 0 -12 6t-6 14l-226 703q-1 2 -1 6q0 5 3.5 9.5t10.5 4.5h51q8 0 11.5 -6t5.5 -14l227 -703q1 -2 1 -6z" />
    <glyph glyph-name="bracketright" unicode="]" horiz-adv-x="327" 
d="M247 -175q0 -8 -4.5 -13.5t-12.5 -5.5h-186q-8 0 -14 6t-6 14v33q0 8 6 14t14 6h114v791h-114q-8 0 -14 6t-6 14v33q0 8 6 14t14 6h186q8 0 12.5 -5.5t4.5 -13.5v-899v0z" />
    <glyph glyph-name="asciicircum" unicode="^" 
d="M505 572q0 -9 -11 -9h-60q-11 0 -15.5 4.5t-12.5 13.5l-103 120l-103 -120q-8 -9 -12.5 -13.5t-15.5 -4.5h-60q-11 0 -11 9q0 6 4 11l115 149q8 11 13.5 14.5t16.5 3.5h106q11 0 16.5 -3.5t13.5 -14.5l115 -149q4 -5 4 -11z" />
    <glyph glyph-name="underscore" unicode="_" horiz-adv-x="494" 
d="M525 -90q0 -8 -6 -12t-14 -4h-515q-8 0 -14 4t-6 12v25q0 8 6 12t14 4h515q8 0 14 -4t6 -12v-25v0z" />
    <glyph glyph-name="grave" unicode="`" horiz-adv-x="372" 
d="M243 630q0 -7 -9 -7h-54q-8 0 -12 3.5t-11 11.5l-113 126q-4 4 -4 8q0 7 11 7h66q9 0 13.5 -3.5t11.5 -11.5l97 -124q4 -4 4 -10z" />
    <glyph glyph-name="a" unicode="a" horiz-adv-x="519" 
d="M451 20q0 -8 -6 -14t-14 -6h-46q-8 0 -14 6t-6 14v22q-36 -21 -74 -35t-80 -14q-32 0 -61.5 7.5t-52 26.5t-36 50t-13.5 78v12q0 40 12.5 70.5t41 51t74.5 30.5t113 10h74v40q0 63 -24 88t-83 25q-49 0 -86 -2.5t-67 -5.5h-5q-7 0 -12.5 3t-5.5 13v35q0 16 21 19
q31 5 67.5 9t87.5 4q104 0 149.5 -50t45.5 -138v-349zM363 266h-74q-45 0 -75 -5.5t-47 -17t-24 -30t-7 -45.5v-12q0 -54 24 -72.5t68 -18.5q35 0 67 10t68 30v161z" />
    <glyph glyph-name="b" unicode="b" horiz-adv-x="541" 
d="M491 240q0 -56 -13 -102t-40 -78t-68 -49.5t-97 -17.5q-45 0 -91 4t-93 13q-14 2 -17.5 7t-3.5 16v700q0 8 5 13.5t13 5.5h51q8 0 13.5 -5.5t5.5 -13.5v-186q29 5 61 7.5t56 2.5q109 0 163.5 -63.5t54.5 -181.5v-72zM403 312q0 80 -28.5 124t-101.5 44q-12 0 -27 -0.5
t-31 -1t-31.5 -2t-27.5 -3.5v-397q26 -2 58.5 -4t58.5 -2q74 0 102 44t28 126v72z" />
    <glyph glyph-name="c" unicode="c" horiz-adv-x="452" 
d="M408 26q0 -10 -4 -15t-16 -7q-25 -5 -57.5 -8t-67.5 -3q-51 0 -90.5 17.5t-67 49t-41.5 76.5t-14 100v78q0 55 14 100t41 76.5t67 49t91 17.5q35 0 67.5 -3t57.5 -8q12 -2 16 -6.5t4 -15.5v-36q0 -8 -5 -11.5t-12 -3.5h-4q-33 4 -60 5.5t-64 1.5q-60 0 -92.5 -40.5
t-32.5 -125.5v-78q0 -85 32 -125.5t93 -40.5q37 0 64 1.5t60 5.5h4q7 0 12 -3.5t5 -11.5v-36v0z" />
    <glyph glyph-name="d" unicode="d" horiz-adv-x="541" 
d="M473 33q0 -10 -3.5 -15.5t-17.5 -7.5q-47 -9 -92.5 -13t-91.5 -4q-56 0 -97 17.5t-68 49.5t-40 78t-13 102v72q0 118 54 181.5t164 63.5q23 0 55.5 -2.5t61.5 -7.5v186q0 8 5.5 13.5t13.5 5.5h51q8 0 13 -5.5t5 -13.5v-700zM385 473q-25 5 -59 6t-58 1q-37 0 -62 -11
t-40 -32.5t-21.5 -53t-6.5 -71.5v-72q0 -82 28 -126t102 -44q26 0 58.5 2t58.5 4v397z" />
    <glyph glyph-name="e" unicode="e" horiz-adv-x="544" 
d="M492 269q0 -22 -19 -22h-335v-14q0 -89 35 -126t104 -37q44 0 93.5 3t84.5 8h5q6 0 11 -3t5 -11v-34q0 -10 -4 -15.5t-16 -7.5q-43 -8 -85.5 -12.5t-93.5 -4.5q-43 0 -84 11.5t-72.5 39t-51 73.5t-19.5 116v90q0 108 57 171t165 63q55 0 96 -16.5t68.5 -47t41.5 -74
t14 -96.5v-54zM403 323q0 85 -32.5 121t-98.5 36q-65 0 -99.5 -38t-34.5 -119v-9h265v9z" />
    <glyph glyph-name="f" unicode="f" horiz-adv-x="381" 
d="M356 706q0 -15 -18 -15h-48q-35 0 -48 -14t-13 -55v-72h105q8 0 13.5 -5t5.5 -13v-39q0 -17 -19 -17h-105v-456q0 -8 -5.5 -14t-13.5 -6h-49q-8 0 -14 6t-6 14v456l-97 11q-19 2 -19 18v27q0 8 5.5 13t13.5 5h97v72q0 40 9.5 67t27.5 43t44 22.5t59 6.5q20 0 33 -2t23 -4
q19 -5 19 -16v-33v0z" />
    <glyph glyph-name="g" unicode="g" horiz-adv-x="559" 
d="M523 502q0 -10 -5 -13.5t-13 -5.5l-36 -7q14 -14 24 -38t10 -65v-8q0 -83 -53 -127t-169 -44q-40 0 -67 5.5t-49 14.5q-25 -12 -25 -34q0 -13 7 -20t24 -12l149 -38q37 -9 71.5 -20t61.5 -27.5t43 -40.5t16 -59v-8q0 -72 -52.5 -113.5t-175.5 -41.5q-119 0 -174.5 42.5
t-55.5 116.5v9q0 42 19 75t44 52l-7 3q-24 11 -35 33t-11 45v1q0 20 10 40t31 32q-23 22 -34.5 50t-11.5 66v8q0 33 10.5 65t36 57t68 40t107.5 15h219q9 0 16 -6.5t7 -15.5v-26zM416 373q0 22 -6 42t-21 34t-41.5 22.5t-66.5 8.5q-42 0 -68.5 -9t-41 -23.5t-20 -34
t-5.5 -40.5v-8q0 -17 5 -35t19.5 -33t41 -24.5t69.5 -9.5q40 0 66.5 7.5t41.5 21t21 32t6 41.5v8zM424 -37q0 29 -27.5 45t-94.5 33l-113 29q-22 -19 -35.5 -41t-13.5 -61v-9q0 -21 7 -38t23.5 -28.5t44 -18t69.5 -6.5q43 0 70 6t42.5 17t21.5 27t6 37v8z" />
    <glyph glyph-name="h" unicode="h" horiz-adv-x="557" 
d="M489 20q0 -8 -6 -14t-14 -6h-48q-8 0 -14 6t-6 14v329q0 75 -29 103t-78 28q-12 0 -28.5 -1.5t-35.5 -5t-38.5 -9t-35.5 -12.5v-432q0 -8 -6 -14t-14 -6h-49q-8 0 -13.5 6t-5.5 14v712q0 8 5.5 14t13.5 6h50q8 0 13.5 -6t5.5 -14v-206q36 16 78.5 23.5t74.5 7.5
q40 0 73 -12t57 -37t37 -64.5t13 -94.5v-329v0z" />
    <glyph glyph-name="i" unicode="i" horiz-adv-x="247" 
d="M169 658q0 -8 -6 -14t-14 -6h-51q-8 0 -14 6t-6 14v80q0 8 6 14t14 6h51q8 0 14 -6t6 -14v-80zM167 20q0 -8 -6 -14t-14 -6h-48q-8 0 -14 6t-6 14v510q0 8 6 14t14 6h48q8 0 14 -6t6 -14v-510z" />
    <glyph glyph-name="j" unicode="j" horiz-adv-x="247" 
d="M169 657q0 -8 -6 -13.5t-14 -5.5h-51q-8 0 -14 5.5t-6 13.5v81q0 8 6 14t14 6h51q8 0 14 -6t6 -14v-81zM167 -64q0 -39 -8.5 -64.5t-24 -41t-39 -21.5t-53.5 -6q-15 0 -27 1t-27 3q-18 3 -18 16v37q0 14 21 14h41q29 0 38 12t9 50v594q0 8 5 14t13 6h52q8 0 13 -6t5 -14
v-594z" />
    <glyph glyph-name="k" unicode="k" horiz-adv-x="496" 
d="M461 13q0 -13 -11 -13h-72q-8 0 -12.5 2.5t-10.5 10.5l-199 246v-239q0 -8 -6 -14t-14 -6h-48q-8 0 -14 6t-6 14v712q0 8 6 14t14 6h48q8 0 14 -6t6 -14v-416l200 225q5 5 8.5 7t11.5 2h70q15 0 15 -11q0 -6 -5 -11l-220 -238l222 -268q3 -3 3 -9z" />
    <glyph glyph-name="l" unicode="l" horiz-adv-x="244" 
d="M166 20q0 -8 -5 -14t-13 -6h-52q-8 0 -13 6t-5 14v713q0 8 5 13.5t13 5.5h52q8 0 13 -5.5t5 -13.5v-713v0z" />
    <glyph glyph-name="m" unicode="m" horiz-adv-x="798" 
d="M730 20q0 -8 -6 -14t-14 -6h-48q-8 0 -14 6t-6 14v354q0 31 -7 52t-19 33t-29 17t-36 5q-27 0 -57.5 -8t-59.5 -19q9 -33 9 -78v-356q0 -8 -5 -14t-13 -6h-53q-8 0 -12.5 6t-4.5 14v356q0 33 -4.5 53.5t-14.5 32t-24.5 15.5t-33.5 4q-27 0 -58.5 -11.5t-63.5 -27.5v-422
q0 -8 -5 -14t-13 -6h-53q-8 0 -12.5 6t-4.5 14v510q0 8 5.5 14t13.5 6h50q8 0 13.5 -6t5.5 -14v-19q30 19 67 33t79 14q32 0 56.5 -9.5t43.5 -31.5q42 20 84.5 30.5t81.5 10.5q34 0 63.5 -9t51.5 -30.5t34.5 -57t12.5 -87.5v-354v0z" />
    <glyph glyph-name="n" unicode="n" horiz-adv-x="557" 
d="M489 20q0 -8 -6 -14t-14 -6h-48q-8 0 -14 6t-6 14v329q0 38 -6.5 63.5t-20 40.5t-34.5 21.5t-49 6.5q-32 0 -66 -11t-69 -28v-422q0 -8 -6 -14t-14 -6h-49q-8 0 -13.5 6t-5.5 14v510q0 8 5.5 14t13.5 6h50q8 0 13.5 -6t5.5 -14v-19q42 23 78 34.5t81 11.5q91 0 132.5 -54
t41.5 -154v-329v0z" />
    <glyph glyph-name="o" unicode="o" horiz-adv-x="545" 
d="M495 237q0 -55 -14 -100t-42 -77t-70 -49.5t-97 -17.5t-96.5 17.5t-69.5 49.5t-42 77t-14 100v76q0 55 14 100t42 77t69.5 49.5t96.5 17.5t97 -17.5t70 -49.5t42 -77t14 -100v-76zM407 313q0 77 -32 122t-103 45q-70 0 -102 -44.5t-32 -122.5v-76q0 -77 31.5 -122
t102.5 -45q70 0 102.5 44.5t32.5 122.5v76z" />
    <glyph glyph-name="p" unicode="p" horiz-adv-x="541" 
d="M491 238q0 -118 -54 -181.5t-164 -63.5q-23 0 -55.5 3t-61.5 8v-181q0 -8 -5.5 -13.5t-13.5 -5.5h-51q-8 0 -13 5.5t-5 13.5v688q0 10 3.5 15t17.5 8q40 10 89 16.5t95 6.5q56 0 97 -17.5t68 -50t40 -78t13 -101.5v-72zM403 310q0 39 -6.5 71t-21.5 54.5t-40 35t-62 12.5
q-32 0 -64 -3t-53 -7v-396q25 -5 59 -7.5t58 -2.5q37 0 62 11.5t40 33.5t21.5 54t6.5 72v72z" />
    <glyph glyph-name="q" unicode="q" horiz-adv-x="541" 
d="M473 -177q0 -8 -5 -13.5t-13 -5.5h-51q-8 0 -13.5 5.5t-5.5 13.5v181q-29 -5 -61 -8t-56 -3q-109 0 -163.5 63.5t-54.5 181.5v72q0 56 13 101.5t40 78t68 50t97 17.5q45 0 94.5 -6.5t89.5 -16.5q14 -3 17.5 -7.5t3.5 -15.5v-688zM385 473q-20 4 -52.5 7t-64.5 3
q-37 0 -62 -12t-40 -34.5t-21.5 -54.5t-6.5 -72v-72q0 -40 6.5 -72t21.5 -54t40 -33.5t62 -11.5q12 0 27 0.5t31 2t31.5 3.5t27.5 4v396z" />
    <glyph glyph-name="r" unicode="r" horiz-adv-x="342" 
d="M315 498q0 -17 -21 -17q-35 0 -67.5 -9.5t-70.5 -32.5v-419q0 -8 -6 -14t-14 -6h-49q-8 0 -13.5 6t-5.5 14v510q0 8 5.5 14t13.5 6h47q8 0 13.5 -6t5.5 -14v-21q38 26 72.5 37t68.5 11q21 0 21 -18v-41v0z" />
    <glyph glyph-name="s" unicode="s" horiz-adv-x="466" 
d="M416 138q0 -38 -13.5 -65.5t-38 -45t-59 -26t-76.5 -8.5q-14 0 -33.5 0.5t-41 2.5t-43.5 4.5t-40 7.5q-21 5 -21 20v35q0 7 5 11t13 4h4q18 -2 39.5 -4t43.5 -3.5t41 -2.5t33 -1q49 0 74 15t25 56q0 23 -16 40t-59 43l-101 60q-46 28 -74 61.5t-28 81.5q0 39 14 64.5
t38 41t57 21.5t72 6q42 0 81.5 -3.5t74.5 -9.5q19 -3 19 -20v-33q0 -17 -17 -17h-3q-26 2 -69.5 5t-85.5 3t-67.5 -10t-25.5 -48q0 -23 17 -39.5t52 -36.5l99 -59q62 -37 86 -72t24 -79z" />
    <glyph glyph-name="t" unicode="t" horiz-adv-x="385" 
d="M360 15q0 -14 -18 -17q-15 -2 -33 -3.5t-32 -1.5q-35 0 -60.5 5.5t-42 20.5t-25 41t-8.5 67v349l-97 11q-19 2 -19 18v27q0 18 19 18h97v98q0 17 18 20l52 8h3q6 0 10.5 -4.5t4.5 -12.5v-109h108q8 0 14 -6t6 -14v-34q0 -8 -6 -14t-14 -6h-108v-349q0 -41 12 -52t42 -11
h56q21 0 21 -14v-35v0z" />
    <glyph glyph-name="u" unicode="u" horiz-adv-x="557" 
d="M489 20q0 -8 -5.5 -14t-13.5 -6h-50q-8 0 -13.5 6t-5.5 14v19q-42 -23 -78 -34.5t-81 -11.5q-91 0 -132.5 54t-41.5 154v329q0 8 6 14t14 6h48q8 0 14 -6t6 -14v-329q0 -38 6.5 -63.5t20 -40.5t34 -21.5t49.5 -6.5q32 0 66 11t69 28v422q0 8 6 14t14 6h49q8 0 13.5 -6
t5.5 -14v-510v0z" />
    <glyph glyph-name="v" unicode="v" horiz-adv-x="530" 
d="M491 533q0 -4 -1 -7l-135 -476q-10 -34 -34 -45.5t-56 -11.5t-56 11.5t-34 45.5l-135 476q-1 3 -1 7q0 17 16 17h55q13 0 19 -19l115 -436q5 -18 9 -23.5t12 -5.5q7 0 11.5 5.5t9.5 23.5l115 436q6 19 19 19h55q16 0 16 -17z" />
    <glyph glyph-name="w" unicode="w" horiz-adv-x="786" 
d="M748 526l-97 -464q-5 -24 -10 -37.5t-14 -20.5t-23.5 -9t-36.5 -2q-20 0 -33 2.5t-22 10t-15 21.5t-12 38l-87 340q-2 5 -2.5 6t-2.5 1t-2.5 -1t-2.5 -6l-87 -340q-6 -22 -12 -36t-15 -22t-22.5 -11t-32.5 -3q-23 0 -37 2t-23 9t-14 21t-10 37l-97 464v4q0 8 5.5 14
t13.5 6h54q7 0 11.5 -5t5.5 -11l83 -456q2 -9 4 -10.5t4 -1.5q5 0 8 12l98 384q5 17 14.5 23.5t25.5 6.5h56q16 0 25.5 -6.5t14.5 -23.5l98 -384q3 -12 8 -12q2 0 4 1.5t4 10.5l83 456q1 6 5.5 11t11.5 5h54q8 0 13.5 -6t5.5 -14v-4z" />
    <glyph glyph-name="x" unicode="x" horiz-adv-x="547" 
d="M511 11q0 -11 -13 -11h-69q-9 0 -14 8l-143 209l-143 -207q-5 -7 -7.5 -8.5t-9.5 -1.5h-60q-12 0 -12 10q0 7 5 13l180 257l-170 245q-5 8 -5 13q0 12 15 12h65q6 0 10.5 -3t9.5 -11l127 -188l128 188q7 10 10.5 12t10.5 2h58q13 0 13 -12q0 -5 -5 -13l-168 -239
l183 -263q4 -5 4 -12z" />
    <glyph glyph-name="y" unicode="y" horiz-adv-x="534" 
d="M495 533q0 -5 -1 -7l-165 -576q-12 -41 -25.5 -69t-34.5 -45.5t-50.5 -25.5t-72.5 -8q-21 0 -44.5 2.5t-39.5 6.5q-9 2 -15 5t-6 11v37q0 16 19 16h3q17 -2 44.5 -4t44.5 -2q21 0 37 3.5t27.5 13t20 26t14.5 42.5l10 41h-14q-11 0 -21.5 2t-20 9t-17.5 21t-15 37
l-133 457q-1 2 -1 7q0 17 18 17h55q6 0 10.5 -5t6.5 -11l118 -434q4 -15 9 -18.5t10 -3.5h16l122 457q2 6 7 10.5t12 4.5h56q16 0 16 -17z" />
    <glyph glyph-name="z" unicode="z" horiz-adv-x="482" 
d="M432 20q0 -8 -6 -14t-14 -6h-302q-32 0 -46.5 17t-14.5 38v19q0 21 5 34.5t18 30.5l258 321q4 6 4 9q0 7 -10 7h-243q-8 0 -14 6t-6 14v34q0 8 6 14t14 6h294q31 0 43.5 -13t12.5 -36v-24q0 -16 -5.5 -28.5t-17.5 -26.5l-263 -329q-5 -5 -5 -11q0 -8 8 -8h264q8 0 14 -6
t6 -14v-34v0z" />
    <glyph glyph-name="braceleft" unicode="{" horiz-adv-x="331" 
d="M304 -174q0 -8 -6 -14t-14 -6h-51q-46 0 -75.5 6.5t-47 22.5t-24 42.5t-6.5 66.5v176q0 23 -3 41t-9.5 32.5t-18 27t-29.5 24.5v58q18 12 29.5 24.5t18 26.5t9.5 32t3 41v178q0 40 6.5 66.5t24 42.5t47 22.5t75.5 6.5h50q8 0 14 -6t6 -14v-33q0 -8 -6 -14t-14 -6h-45
q-22 0 -35.5 -2.5t-21 -10t-10 -20t-2.5 -32.5v-178q0 -53 -15 -89.5t-56 -64.5q40 -28 55.5 -64t15.5 -89v-176q0 -20 2.5 -32.5t10 -20t21 -10t35.5 -2.5h46q8 0 14 -6t6 -14v-33v0z" />
    <glyph glyph-name="bar" unicode="|" horiz-adv-x="249" 
d="M169 -175q0 -8 -5 -13.5t-13 -5.5h-52q-8 0 -13.5 5.5t-5.5 13.5v899q0 8 5.5 13.5t13.5 5.5h52q8 0 13 -5.5t5 -13.5v-899v0z" />
    <glyph glyph-name="braceright" unicode="}" horiz-adv-x="331" 
d="M311 245q-18 -12 -29.5 -24.5t-18 -27t-9.5 -32.5t-3 -41v-176q0 -40 -7 -66.5t-24 -42.5t-46.5 -22.5t-75.5 -6.5h-51q-8 0 -14 6t-6 14v33q0 8 6 14t14 6h46q22 0 35.5 2.5t21 10t10 20t2.5 32.5v176q0 53 15.5 89t55.5 64q-41 28 -56 64.5t-15 89.5v178
q0 20 -2.5 32.5t-10 20t-21 10t-35.5 2.5h-45q-8 0 -14 6t-6 14v33q0 8 6 14t14 6h50q46 0 75.5 -6.5t46.5 -22.5t24 -42.5t7 -66.5v-178q0 -23 3 -41t9.5 -32t18 -26.5t29.5 -24.5v-58v0z" />
    <glyph glyph-name="asciitilde" unicode="~" 
d="M514 467q0 -63 -24.5 -95.5t-84.5 -32.5q-20 0 -39.5 7.5t-36.5 20.5l-73 58q-22 17 -32 24t-21 7q-29 0 -35.5 -16t-6.5 -43v-26q0 -8 -6 -14t-14 -6h-29q-8 0 -14 6t-6 14v26q0 65 28.5 97.5t82.5 32.5q20 0 39.5 -7.5t35.5 -20.5l85 -68q9 -8 21.5 -14t20.5 -6
q28 0 34 13t6 43v28q0 8 6 14t14 6h29q8 0 14 -6t6 -14v-28v0z" />
    <glyph glyph-name="uni00A0" unicode="&#xa0;" horiz-adv-x="247" 
 />
    <glyph glyph-name="exclamdown" unicode="&#xa1;" horiz-adv-x="217" 
d="M153 437q0 -8 -5.5 -13.5t-13.5 -5.5h-48q-8 0 -13.5 5.5t-5.5 13.5v94q0 19 19 19h48q8 0 13.5 -5.5t5.5 -13.5v-94zM84 -203q-8 0 -13.5 5.5t-5.5 13.5l7 520q0 8 6 13.5t14 5.5h35q8 0 14 -5.5t6 -13.5l8 -520q0 -8 -6 -13.5t-14 -5.5h-51z" />
    <glyph glyph-name="cent" unicode="&#xa2;" 
d="M482 26q0 -10 -4 -15t-16 -7q-19 -3 -43.5 -5.5t-50.5 -4.5v-90q0 -8 -6 -14t-14 -6h-41q-8 0 -14 6t-6 14v94q-79 16 -121 78.5t-42 159.5v78q0 97 42 159.5t121 78.5v93q0 8 6 14t14 6h41q8 0 14 -6t6 -14v-89q26 -2 50.5 -4.5t43.5 -5.5q12 -2 16 -6.5t4 -15.5v-36
q0 -8 -5 -11.5t-12 -3.5h-4q-33 4 -60 6t-64 2q-60 0 -92.5 -41t-32.5 -126v-78q0 -85 32 -126t93 -41q37 0 64 2t60 6h4q7 0 12 -3.5t5 -11.5v-36v0z" />
    <glyph glyph-name="sterling" unicode="&#xa3;" 
d="M535 17q0 -8 -6 -12.5t-14 -4.5h-399q-9 0 -13 5t-4 10v39q0 8 3.5 13t6.5 10q17 29 24 54t7 64v152h-52q-8 0 -13 5t-5 13v42q0 8 6 13t14 5h50v65q0 62 10.5 109.5t36 79t68 47.5t106.5 16q19 0 41 -1t42.5 -3t39 -4.5t32.5 -4.5q12 -2 15.5 -5.5t3.5 -11.5v-41
q0 -17 -15 -17h-5q-33 4 -76 7.5t-78 3.5q-39 0 -64 -8.5t-40 -28.5t-20.5 -53.5t-5.5 -84.5v-65h215q8 0 13.5 -5t5.5 -13v-42q0 -8 -6 -13t-14 -5h-214v-152q0 -38 -11 -67t-24 -52h319q8 0 14 -3.5t6 -11.5v-44v0z" />
    <glyph glyph-name="currency" unicode="&#xa4;" 
d="M548 574q0 -8 -7 -15l-82 -82q17 -23 25 -50t8 -54q0 -28 -8.5 -55t-25.5 -51l82 -82q7 -7 7 -15q0 -7 -5 -12l-27 -27q-5 -5 -11 -5q-8 0 -15 7l-84 84q-47 -33 -102 -33q-27 0 -54 8t-50 25l-82 -82q-3 -3 -7 -5.5t-9 -2.5t-10 5l-27 28q-5 7 -5 11q0 8 7 15l81 81
q-17 23 -25.5 50.5t-8.5 55.5q0 27 7.5 53.5t24.5 49.5l-81 81q-7 7 -7 15t5 12l28 27q5 5 11 5q7 0 15 -8l80 -80q24 17 51 25.5t55 8.5q58 0 106 -34l82 82q7 7 15 7q6 0 11 -5l27 -27q5 -5 5 -11zM421 373q0 25 -9.5 46.5t-26 37.5t-38 25.5t-46.5 9.5t-46.5 -9.5
t-38 -25.5t-26 -37.5t-9.5 -46.5t9.5 -46.5t26 -38t38 -26t46.5 -9.5t46.5 9.5t38 26t26 38t9.5 46.5z" />
    <glyph glyph-name="yen" unicode="&#xa5;" 
d="M569 231q0 -8 -6 -14t-14 -6h-200v-191q0 -8 -5 -14t-13 -6h-57q-8 0 -12.5 6t-4.5 14v191h-201q-8 0 -14 6t-6 14v30q0 8 6 14t14 6h201v21l-55 110h-146q-8 0 -14 6t-6 14v30q0 8 6 14t14 6h111l-119 236q-3 7 -3 12q0 13 16 13h63q5 0 10 -4.5t7 -9.5l162 -339
l162 339q2 5 6.5 9.5t10.5 4.5h62q17 0 17 -14q0 -5 -3 -11l-119 -236h110q8 0 14 -6t6 -14v-30q0 -8 -6 -14t-14 -6h-145l-55 -110v-21h200q8 0 14 -6t6 -14v-30v0z" />
    <glyph glyph-name="brokenbar" unicode="&#xa6;" horiz-adv-x="249" 
d="M169 362q0 -8 -5 -14t-13 -6h-53q-8 0 -13 6t-5 14v347q0 8 5 13.5t13 5.5h53q8 0 13 -5.5t5 -13.5v-347zM169 -191q0 -8 -5 -14t-13 -6h-53q-8 0 -13 6t-5 14v347q0 8 5 13.5t13 5.5h53q8 0 13 -5.5t5 -13.5v-347z" />
    <glyph glyph-name="section" unicode="&#xa7;" horiz-adv-x="547" 
d="M499 -17q0 -38 -11 -73.5t-38.5 -63.5t-75.5 -45t-122 -17q-53 0 -94 4.5t-74 9.5q-7 2 -13 6.5t-6 12.5v42q0 8 6 12.5t14 4.5h2q41 -4 81 -7t81 -3h3q45 0 74 8.5t46 24t23.5 37t6.5 47.5q0 20 -4.5 35.5t-16.5 30t-33 29.5t-54 35l-112 67q-40 24 -66 45.5t-41 43.5
t-21 46t-6 53q0 32 10 57t24 48q-16 17 -25 43.5t-9 57.5q0 41 12.5 74t41 55.5t74 34.5t111.5 12q21 0 47 -1.5t50.5 -3.5t45.5 -4t32 -4q8 -2 13 -6.5t5 -12.5v-43q0 -8 -5 -12.5t-13 -4.5h-1q-44 2 -87 5.5t-87 3.5t-72 -5.5t-44 -17t-22 -29t-6 -41.5q0 -17 4.5 -31
t16 -27t31 -27t49.5 -32l109 -64q45 -26 73 -50t44.5 -48t22.5 -49t6 -53q0 -29 -6.5 -57t-22.5 -52q16 -23 22.5 -48t6.5 -53zM407 193q0 20 -5 35.5t-16.5 29.5t-31 28.5t-49.5 32.5l-90 55q-17 11 -36.5 23t-35.5 24q-5 -16 -7 -25t-2 -28q0 -35 22.5 -61.5t66.5 -52.5
l110 -64q23 -14 36.5 -22.5t30.5 -20.5q3 8 4 13t2 9.5t1 9.5v14z" />
    <glyph glyph-name="dieresis" unicode="&#xa8;" horiz-adv-x="373" 
d="M314 660q0 -8 -6 -13.5t-14 -5.5h-39q-8 0 -14 5.5t-6 13.5v81q0 8 6 14t14 6h39q8 0 14 -6t6 -14v-81zM139 660q0 -8 -6 -13.5t-14 -5.5h-39q-8 0 -14 5.5t-6 13.5v81q0 8 6 14t14 6h39q8 0 14 -6t6 -14v-81z" />
    <glyph glyph-name="copyright" unicode="&#xa9;" horiz-adv-x="750" 
d="M700 374q0 -67 -26 -126t-70 -103t-103.5 -69.5t-126.5 -25.5t-126 25.5t-103 69.5t-69.5 103t-25.5 126t25.5 126.5t69.5 104t103 70.5t126 26t126.5 -26t103.5 -70.5t70 -104t26 -126.5zM656 374q0 58 -22 110t-60.5 90t-90 60.5t-109.5 22.5q-59 0 -110 -22.5
t-89 -60.5t-60 -90t-22 -110q0 -59 22 -110t60 -88.5t89 -59.5t110 -22q58 0 109.5 22t90 59.5t60.5 88.5t22 110zM476 183q0 -8 -5 -11t-10 -4q-11 -2 -33.5 -4.5t-57.5 -2.5q-32 0 -60 10t-48.5 31.5t-32.5 56.5t-12 85v66q0 50 12 85t32.5 57t48.5 32t60 10q35 0 57.5 -3
t33.5 -5q5 -1 10 -3.5t5 -10.5v-28q0 -8 -4 -10t-9 -2h-3q-16 2 -39.5 3.5t-50.5 1.5q-18 0 -34.5 -6t-29 -21t-20 -39.5t-7.5 -60.5v-66q0 -36 7.5 -60.5t20 -39t29 -20.5t34.5 -6q26 0 50 1.5t40 3.5h2q5 0 9.5 -2.5t4.5 -10.5v-27z" />
    <glyph glyph-name="ordfeminine" unicode="&#xaa;" horiz-adv-x="294" 
d="M264 450q0 -14 -10 -16q-23 -7 -48 -10t-50 -3q-68 0 -97 23.5t-29 74.5v7q0 48 34.5 70t107.5 22h32v13q0 35 -12.5 49t-41.5 14q-27 0 -47 -1.5t-37 -3.5h-2q-5 0 -9.5 3t-4.5 10v21q0 7 4.5 10t10.5 4q17 3 37.5 6t47.5 3q60 0 87 -29t27 -86v-181zM205 576h-23h-9
q-48 -2 -66.5 -12.5t-18.5 -37.5v-7q0 -26 13.5 -38.5t54.5 -12.5q14 0 27.5 1.5t21.5 3.5v103z" />
    <glyph glyph-name="guillemotleft" unicode="&#xab;" horiz-adv-x="614" 
d="M560 79q0 -9 -11 -9h-58q-6 0 -10.5 2t-10.5 8l-169 169q-5 5 -8 13.5t-3 14.5t3 14.5t8 13.5l169 169q6 6 10.5 8t10.5 2h58q11 0 11 -9q0 -7 -6 -13l-178 -185l178 -185q6 -6 6 -13zM300 79q0 -9 -11 -9h-58q-6 0 -10.5 2t-10.5 8l-169 169q-5 5 -8 13.5t-3 14.5
t3 14.5t8 13.5l169 169q6 6 10.5 8t10.5 2h58q11 0 11 -9q0 -7 -6 -13l-178 -185l178 -185q6 -6 6 -13z" />
    <glyph glyph-name="logicalnot" unicode="&#xac;" 
d="M515 247q0 -8 -6 -14t-14 -6h-32q-8 0 -14 6t-6 14v219h-333q-8 0 -14 4t-6 12v40q0 8 6 12t14 4h388q17 0 17 -17v-274v0z" />
    <glyph glyph-name="uni00AD" unicode="&#xad;" horiz-adv-x="333" 
d="M285 273q0 -17 -19 -17h-199q-19 0 -19 17v39q0 8 5.5 13t13.5 5h199q19 0 19 -18v-39v0z" />
    <glyph glyph-name="registered" unicode="&#xae;" horiz-adv-x="598" 
d="M569 484q0 -56 -21 -105t-58 -85t-86 -57t-105 -21t-105 21t-85.5 57t-57.5 85t-21 105t21 105t57.5 85.5t85.5 57.5t105 21t105 -21t86 -57.5t58 -85.5t21 -105zM528 484q0 47 -18 89t-49 73t-73 49t-89 18t-88.5 -18t-72.5 -49t-48.5 -73t-17.5 -89t17.5 -88.5
t48.5 -72.5t72.5 -48.5t88.5 -17.5t89 17.5t73 48.5t49 72.5t18 88.5zM425 331q0 -13 -12 -13h-28q-8 0 -12 8l-81 128l-12 3h-40v-124q0 -5 -4 -10t-10 -5h-25q-6 0 -9.5 5t-3.5 10v302q0 20 18 22q6 1 15.5 1.5t20 1t21.5 0.5h19q63 0 97 -22t34 -79v-4q0 -38 -17.5 -59.5
t-49.5 -30.5l77 -125q2 -4 2 -9zM363 559q0 30 -18 42t-60 12h-32h-14v-112q8 0 24 -0.5t22 -0.5q42 0 60 12.5t18 42.5v4z" />
    <glyph glyph-name="macron" unicode="&#xaf;" horiz-adv-x="373" 
d="M351 692q0 -8 -6 -12.5t-14 -4.5h-288q-8 0 -14 4.5t-6 12.5v34q0 8 6 12.5t14 4.5h288q8 0 14 -4.5t6 -12.5v-34v0z" />
    <glyph glyph-name="degree" unicode="&#xb0;" horiz-adv-x="342" 
d="M314 608q0 -29 -11 -55t-30.5 -45.5t-45.5 -30.5t-55 -11t-55 11t-45.5 30.5t-31 45.5t-11.5 55t11.5 55t31 45.5t45.5 30.5t55 11t55 -11t45.5 -30.5t30.5 -45.5t11 -55zM260 608q0 18 -7 34t-19 28t-28 19t-34 7t-34 -7t-28 -19t-19 -28t-7 -34t7 -34t19 -28t28 -19
t34 -7t34 7t28 19t19 28t7 34z" />
    <glyph glyph-name="plusminus" unicode="&#xb1;" 
d="M530 371q0 -8 -6 -12t-14 -4h-172v-171q0 -8 -4 -14t-12 -6h-40q-8 0 -12 6t-4 14v171h-171q-8 0 -14 4t-6 12v40q0 8 6 12t14 4h171v172q0 8 4 14t12 6h40q8 0 12 -6t4 -14v-172h172q8 0 14 -4t6 -12v-40zM530 16q0 -8 -6 -12t-14 -4h-415q-8 0 -14 4t-6 12v33q0 8 6 12
t14 4h415q8 0 14 -4t6 -12v-33z" />
    <glyph glyph-name="two.superior" unicode="&#xb2;" horiz-adv-x="333" 
d="M294 642q0 -34 -17.5 -59t-54.5 -52q-13 -8 -26.5 -17t-25.5 -18q-22 -15 -36 -27.5t-22 -24.5t-11 -25.5t-3 -29.5v-4h173q7 0 12.5 -4.5t5.5 -12.5v-23q0 -8 -5.5 -13t-12.5 -5h-214q-7 0 -12.5 5t-5.5 13v44q0 44 19.5 80.5t66.5 67.5l55 36h-1q15 11 25 19t16 15.5
t8.5 15.5t2.5 19q0 25 -17 36.5t-56 11.5q-20 0 -46 -2.5t-51 -6.5q-16 0 -16 18v19q0 13 15 18q21 5 47 7.5t51 2.5q136 0 136 -104z" />
    <glyph glyph-name="three.superior" unicode="&#xb3;" horiz-adv-x="333" 
d="M292 446q0 -65 -40 -94t-102 -29q-25 0 -49.5 3.5t-43.5 7.5q-6 2 -11 6t-5 12v18q0 18 19 18q25 -4 48.5 -6t41.5 -2q40 0 58 15.5t18 50.5v11q0 9 -2.5 19.5t-9 19.5t-17 14.5t-26.5 5.5h-98q-17 0 -17 16v20q0 17 17 17h98q17 0 27.5 5.5t16.5 13.5t8.5 18.5t2.5 19.5
v7q0 29 -17 43t-59 14q-20 0 -38.5 -2.5t-41.5 -5.5q-2 0 -5 -0.5t-7 -0.5q-17 0 -17 18v18q0 8 4.5 12.5t10.5 6.5q19 4 42 7t52 3q64 0 103 -24.5t39 -88.5v-7q0 -56 -43 -84q26 -16 34.5 -39t8.5 -46v-11v0z" />
    <glyph glyph-name="acute" unicode="&#xb4;" horiz-adv-x="373" 
d="M333 772q0 -4 -4 -8l-113 -126q-7 -8 -11 -11.5t-12 -3.5h-54q-9 0 -9 7q0 6 4 10l98 124q7 8 11 11.5t13 3.5h66q11 0 11 -7z" />
    <glyph glyph-name="mu" unicode="&#xb5;" horiz-adv-x="557" 
d="M489 44q0 -17 -19 -23q-35 -13 -84.5 -20.5t-100.5 -7.5q-79 0 -129 29v-198q0 -8 -6 -14t-14 -6h-48q-8 0 -14 6t-6 14v706q0 8 5.5 14t13.5 6h50q8 0 13.5 -6t5.5 -14v-329q0 -70 31 -101.5t98 -31.5q30 0 61.5 3.5t54.5 10.5v448q0 8 6 14t14 6h49q8 0 13.5 -6
t5.5 -14v-486v0z" />
    <glyph glyph-name="paragraph" unicode="&#xb6;" horiz-adv-x="622" 
d="M557 -176q0 -8 -4.5 -13.5t-12.5 -5.5h-23q-8 0 -12.5 5.5t-4.5 13.5v865h-58v-865q0 -8 -4.5 -13.5t-12.5 -5.5h-23q-8 0 -12.5 5.5t-4.5 13.5v439h-104q-52 0 -95 14.5t-74.5 43t-49 70t-17.5 95.5v34q0 54 17.5 95.5t49 70t74.5 43t95 14.5h260q16 0 16 -19v-900v0z
" />
    <glyph glyph-name="periodcentered" unicode="&#xb7;" horiz-adv-x="214" 
d="M150 345q0 -8 -5.5 -14t-13.5 -6h-48q-8 0 -13.5 6t-5.5 14v93q0 8 5.5 13.5t13.5 5.5h48q8 0 13.5 -5.5t5.5 -13.5v-93v0z" />
    <glyph glyph-name="cedilla" unicode="&#xb8;" horiz-adv-x="366" 
d="M254 -39q0 -4 -4 -8l-113 -126q-7 -8 -11 -11.5t-12 -3.5h-54q-9 0 -9 7q0 6 4 10l97 124q7 8 11.5 11.5t13.5 3.5h66q11 0 11 -7z" />
    <glyph glyph-name="one.superior" unicode="&#xb9;" horiz-adv-x="333" 
d="M71 645q-17 -6 -17 13v28q0 10 10 13l80 38q9 5 15 5.5t17 0.5h6q13 0 15 -5.5t2 -13.5v-378q0 -7 -4.5 -13t-12.5 -6h-30q-8 0 -12.5 5.5t-4.5 13.5v326z" />
    <glyph glyph-name="ordmasculine" unicode="&#xba;" horiz-adv-x="322" 
d="M291 566q0 -70 -32.5 -107.5t-96.5 -37.5t-97 37.5t-33 107.5v35q0 70 33 107.5t97 37.5t96.5 -37.5t32.5 -107.5v-35zM230 601q0 46 -15.5 69t-52.5 23t-53.5 -23t-16.5 -69v-35q0 -46 16.5 -69.5t53.5 -23.5t52.5 23.5t15.5 69.5v35z" />
    <glyph glyph-name="guillemotright" unicode="&#xbb;" horiz-adv-x="614" 
d="M584 277q0 -6 -3 -14.5t-8 -13.5l-169 -169q-10 -10 -21 -10h-58q-11 0 -11 9q0 7 6 13l178 185l-178 185q-6 6 -6 13q0 9 11 9h58q6 0 10.5 -2t10.5 -8l169 -169q5 -5 8 -13.5t3 -14.5zM324 277q0 -6 -3 -14.5t-8 -13.5l-169 -169q-10 -10 -21 -10h-58q-11 0 -11 9
q0 7 6 13l178 185l-178 185q-6 6 -6 13q0 9 11 9h58q6 0 10.5 -2t10.5 -8l169 -169q5 -5 8 -13.5t3 -14.5z" />
    <glyph glyph-name="onequarter" unicode="&#xbc;" horiz-adv-x="741" 
d="M580 737q0 -3 -5 -13l-418 -708q-6 -11 -10 -15.5t-12 -4.5h-49q-10 0 -10 8q0 7 4 12l418 708q7 11 11 15t12 4h51q8 0 8 -6zM57 645q-17 -6 -17 13v28q0 10 10 13l80 38q9 5 15 5.5t17 0.5h6q13 0 15 -5.5t2 -13.5v-378q0 -7 -4.5 -13t-12.5 -6h-30q-8 0 -12.5 5.5
t-4.5 13.5v326zM701 124q0 -8 -5.5 -12.5t-13.5 -4.5h-38v-88q0 -7 -5 -13t-13 -6h-31q-8 0 -12.5 5.5t-4.5 13.5v88h-147q-17 0 -24 5.5t-7 22.5v20q0 15 8 26l162 224q2 5 6 8t14 3h31q23 0 23 -20v-233h38q8 0 13.5 -4.5t5.5 -12.5v-22zM579 325l-113 -162h113v162z" />
    <glyph glyph-name="onehalf" unicode="&#xbd;" horiz-adv-x="744" 
d="M580 737q0 -3 -5 -13l-418 -708q-6 -11 -10 -15.5t-12 -4.5h-49q-10 0 -10 8q0 7 4 12l418 708q7 11 11 15t12 4h51q8 0 8 -6zM57 645q-17 -6 -17 13v28q0 10 10 13l80 38q9 5 15 5.5t17 0.5h6q13 0 15 -5.5t2 -13.5v-378q0 -7 -4.5 -13t-12.5 -6h-30q-8 0 -12.5 5.5
t-4.5 13.5v326zM704 315q0 -34 -17.5 -59t-54.5 -52q-13 -8 -26.5 -17t-25.5 -18q-22 -15 -36 -27.5t-22 -24.5t-11 -25.5t-3 -29.5v-4h173q7 0 12.5 -4.5t5.5 -12.5v-23q0 -8 -5.5 -13t-12.5 -5h-214q-7 0 -12.5 5t-5.5 13v44q0 44 19.5 80.5t66.5 67.5l55 36h-1
q15 11 25 19t16 15.5t8.5 15.5t2.5 19q0 25 -17 36.5t-56 11.5q-20 0 -46 -2.5t-51 -6.5q-16 0 -16 18v19q0 13 15 18q21 5 47 7.5t51 2.5q136 0 136 -104z" />
    <glyph glyph-name="threequarters" unicode="&#xbe;" horiz-adv-x="826" 
d="M664 737q0 -3 -5 -13l-418 -708q-6 -11 -10 -15.5t-12 -4.5h-49q-10 0 -10 8q0 7 4 12l418 708q7 11 11 15t12 4h51q8 0 8 -6zM786 124q0 -8 -5.5 -12.5t-13.5 -4.5h-38v-88q0 -7 -5 -13t-13 -6h-31q-8 0 -12.5 5.5t-4.5 13.5v88h-147q-17 0 -24 5.5t-7 22.5v20
q0 15 8 26l162 224q2 5 6 8t14 3h31q23 0 23 -20v-233h38q8 0 13.5 -4.5t5.5 -12.5v-22zM664 325l-113 -162h113v162zM291 446q0 -65 -40 -94t-102 -29q-25 0 -49.5 3.5t-43.5 7.5q-6 2 -11 6t-5 12v18q0 18 19 18q25 -4 48.5 -6t41.5 -2q40 0 58 15.5t18 50.5v11
q0 9 -2.5 19.5t-9 19.5t-17 14.5t-26.5 5.5h-98q-17 0 -17 16v20q0 17 17 17h98q17 0 27.5 5.5t16.5 13.5t8.5 18.5t2.5 19.5v7q0 29 -17 43t-59 14q-20 0 -38.5 -2.5t-41.5 -5.5q-2 0 -5 -0.5t-7 -0.5q-17 0 -17 18v18q0 8 4.5 12.5t10.5 6.5q19 4 42 7t52 3
q64 0 103 -24.5t39 -88.5v-7q0 -56 -43 -84q26 -16 34.5 -39t8.5 -46v-11z" />
    <glyph glyph-name="questiondown" unicode="&#xbf;" horiz-adv-x="446" 
d="M328 438q0 -8 -6 -14t-14 -6h-48q-8 0 -13.5 6t-5.5 14v93q0 19 19 19h48q8 0 14 -5.5t6 -13.5v-93zM406 -165q0 -9 -2.5 -15t-14.5 -8q-31 -6 -66.5 -9.5t-69.5 -3.5q-43 0 -79.5 7.5t-63.5 25t-42 46.5t-15 72v12q0 18 3.5 35t13.5 36.5t28 43.5t46 56l45 51
q14 16 24 27.5t16.5 23t9.5 23.5t3 29v49q0 8 6 13.5t14 5.5h44q8 0 13.5 -5.5t5.5 -13.5v-49q0 -24 -3 -42.5t-10.5 -35.5t-20.5 -34.5t-32 -38.5l-46 -51q-19 -21 -31 -37t-19 -30t-9.5 -27.5t-2.5 -28.5v-12q0 -40 25 -56t77 -16q36 0 68.5 2.5t66.5 6.5h3q15 0 15 -17
v-35z" />
    <glyph glyph-name="Agrave" unicode="&#xc0;" horiz-adv-x="633" 
d="M604 16q0 -16 -17 -16h-59q-7 0 -11 4.5t-6 10.5l-65 230h-259l-64 -230q-2 -6 -7 -10.5t-11 -4.5h-59q-17 0 -17 16q0 5 1 7l185 651q6 23 17.5 37.5t25.5 23t29.5 12t29.5 3.5t29 -3t29 -11.5t25.5 -23t17.5 -37.5l185 -652q1 -2 1 -7zM336 653q-5 18 -19 18
q-15 0 -20 -18l-91 -329h221zM385 801q0 -7 -9 -7h-54q-8 0 -12 3.5t-11 11.5l-113 126q-4 4 -4 8q0 7 11 7h66q9 0 13.5 -3.5t11.5 -11.5l97 -124q4 -4 4 -10z" />
    <glyph glyph-name="Aacute" unicode="&#xc1;" horiz-adv-x="633" 
d="M604 16q0 -16 -17 -16h-59q-7 0 -11 4.5t-6 10.5l-65 230h-259l-64 -230q-2 -6 -7 -10.5t-11 -4.5h-59q-17 0 -17 16q0 5 1 7l185 651q6 23 17.5 37.5t25.5 23t29.5 12t29.5 3.5t29 -3t29 -11.5t25.5 -23t17.5 -37.5l185 -652q1 -2 1 -7zM336 653q-5 18 -19 18
q-15 0 -20 -18l-91 -329h221zM469 943q0 -4 -4 -8l-113 -126q-7 -8 -11 -11.5t-12 -3.5h-54q-9 0 -9 7q0 6 4 10l98 124q7 8 11 11.5t13 3.5h66q11 0 11 -7z" />
    <glyph glyph-name="Acircumflex" unicode="&#xc2;" horiz-adv-x="633" 
d="M604 16q0 -16 -17 -16h-59q-7 0 -11 4.5t-6 10.5l-65 230h-259l-64 -230q-2 -6 -7 -10.5t-11 -4.5h-59q-17 0 -17 16q0 5 1 7l185 651q6 23 17.5 37.5t25.5 23t29.5 12t29.5 3.5t29 -3t29 -11.5t25.5 -23t17.5 -37.5l185 -652q1 -2 1 -7zM336 653q-5 18 -19 18
q-15 0 -20 -18l-91 -329h221zM488 801q0 -7 -9 -7h-52q-8 0 -12 3.5t-11 11.5l-82 97l-83 -97q-7 -8 -11 -11.5t-12 -3.5h-52q-9 0 -9 7q0 6 4 10l96 124q7 8 11 11.5t13 3.5h85q9 0 13.5 -3.5t11.5 -11.5l95 -124q4 -4 4 -10z" />
    <glyph glyph-name="Atilde" unicode="&#xc3;" horiz-adv-x="633" 
d="M604 16q0 -16 -17 -16h-59q-7 0 -11 4.5t-6 10.5l-65 230h-259l-64 -230q-2 -6 -7 -10.5t-11 -4.5h-59q-17 0 -17 16q0 5 1 7l185 651q6 23 17.5 37.5t25.5 23t29.5 12t29.5 3.5t29 -3t29 -11.5t25.5 -23t17.5 -37.5l185 -652q1 -2 1 -7zM336 653q-5 18 -19 18
q-15 0 -20 -18l-91 -329h221zM497 894q0 -52 -21.5 -78.5t-72.5 -26.5q-17 0 -33.5 5t-30.5 16l-61 49q-18 14 -25 18t-16 4q-18 0 -24.5 -11.5t-6.5 -34.5v-21q0 -7 -5 -12t-12 -5h-31q-7 0 -11.5 5t-4.5 12v21q0 54 25 81.5t70 27.5q17 0 31.5 -6.5t28.5 -17.5l71 -56
q8 -6 18 -10t17 -4q15 0 22.5 9t7.5 35v23q0 7 5 12t12 5h31q7 0 11.5 -5t4.5 -12v-23z" />
    <glyph glyph-name="Adieresis" unicode="&#xc4;" horiz-adv-x="633" 
d="M604 16q0 -16 -17 -16h-59q-7 0 -11 4.5t-6 10.5l-65 230h-259l-64 -230q-2 -6 -7 -10.5t-11 -4.5h-59q-17 0 -17 16q0 5 1 7l185 651q6 23 17.5 37.5t25.5 23t29.5 12t29.5 3.5t29 -3t29 -11.5t25.5 -23t17.5 -37.5l185 -652q1 -2 1 -7zM336 653q-5 18 -19 18
q-15 0 -20 -18l-91 -329h221zM450 827q0 -8 -6 -13.5t-14 -5.5h-39q-8 0 -14 5.5t-6 13.5v81q0 8 6 14t14 6h39q8 0 14 -6t6 -14v-81zM275 827q0 -8 -6 -13.5t-14 -5.5h-39q-8 0 -14 5.5t-6 13.5v81q0 8 6 14t14 6h39q8 0 14 -6t6 -14v-81z" />
    <glyph glyph-name="Aring" unicode="&#xc5;" horiz-adv-x="633" 
d="M604 16q0 -16 -17 -16h-59q-7 0 -11 4.5t-6 10.5l-65 230h-259l-64 -230q-2 -6 -7 -10.5t-11 -4.5h-59q-17 0 -17 16q0 5 1 7l185 651q6 23 17.5 37.5t25.5 23t29.5 12t29.5 3.5t29 -3t29 -11.5t25.5 -23t17.5 -37.5l185 -652q1 -2 1 -7zM336 653q-5 18 -19 18
q-15 0 -20 -18l-91 -329h221zM417 878q0 -21 -8 -39.5t-21.5 -32t-32 -21.5t-39.5 -8t-39.5 8t-32.5 21.5t-22 32t-8 39.5t8 39.5t22 32.5t32.5 22t39.5 8t39.5 -8t32 -22t21.5 -32.5t8 -39.5zM369 879q0 22 -15.5 37t-37.5 15t-37 -15t-15 -37t15 -37.5t37 -15.5t37.5 15.5
t15.5 37.5z" />
    <glyph glyph-name="AE" unicode="&#xc6;" horiz-adv-x="859" 
d="M804 14q0 -5 -2.5 -9t-7.5 -5q-11 -1 -29.5 -2.5t-41.5 -2.5t-47.5 -1.5t-46.5 -0.5q-106 0 -159.5 43t-53.5 143v66h-239l-64 -230q-2 -6 -7 -10.5t-11 -4.5h-59q-17 0 -17 16q0 5 1 7l185 645q7 23 18.5 37.5t25 23t29 11.5t29.5 3h487q5 0 7.5 -4.5t2.5 -9.5v-53
q0 -12 -11 -12h-286v-239h277q8 0 14 -6t6 -14v-38q0 -8 -6 -14t-14 -6h-277v-168q0 -29 4.5 -48.5t17.5 -32t37 -18t64 -5.5h163q11 0 11 -12v-49zM416 664h-109q-15 0 -20 -17l-91 -323h220v340z" />
    <glyph glyph-name="Ccedilla" unicode="&#xc7;" horiz-adv-x="545" 
d="M510 26q0 -9 -6 -13.5t-14 -6.5q-16 -3 -32 -5.5t-35 -4t-43 -2.5t-56 -1q-46 0 -93 14t-85 49.5t-62 95t-24 150.5v139q0 92 24 151.5t62 94.5t85 49t93 14q48 0 91.5 -5.5t76.5 -10.5q16 -2 16 -13v-51q0 -5 -2 -8t-10 -3h-3q-14 1 -33.5 2.5t-42 3t-46.5 2.5t-46 1
q-37 0 -68.5 -11.5t-55 -38t-37 -70t-13.5 -107.5v-139q0 -63 13.5 -106.5t37 -70t55 -38.5t68.5 -12q21 0 44.5 1t46 2t41.5 2.5t33 2.5h4q16 0 16 -16v-41zM381 -39q0 -4 -4 -8l-113 -126q-7 -8 -11 -11.5t-12 -3.5h-54q-9 0 -9 7q0 4 4 10l97 124q7 8 12 11.5t13 3.5h66
q11 0 11 -7z" />
    <glyph glyph-name="Egrave" unicode="&#xc8;" horiz-adv-x="551" 
d="M496 12q0 -5 -2.5 -9t-7.5 -5q-14 -2 -38 -2.5t-51.5 -1.5t-55.5 -1h-50q-106 0 -159.5 43t-53.5 143v385q0 100 53.5 143t159.5 43q22 0 49.5 -0.5t54.5 -1t51 -2l40 -2.5q5 -1 7.5 -5t2.5 -9v-50q0 -12 -11 -12h-193q-40 0 -64 -5.5t-37 -18t-17.5 -32.5t-4.5 -48v-139
h307q8 0 14 -6t6 -14v-38q0 -8 -6 -14t-14 -6h-307v-168q0 -29 4.5 -48.5t17.5 -32t37 -18t64 -5.5h193q11 0 11 -12v-51zM360 800q0 -7 -9 -7h-54q-8 0 -12 3.5t-11 11.5l-113 126q-4 4 -4 8q0 7 11 7h66q9 0 13.5 -3.5t11.5 -11.5l97 -124q4 -4 4 -10z" />
    <glyph glyph-name="Eacute" unicode="&#xc9;" horiz-adv-x="551" 
d="M496 12q0 -5 -2.5 -9t-7.5 -5q-14 -2 -38 -2.5t-51.5 -1.5t-55.5 -1h-50q-106 0 -159.5 43t-53.5 143v385q0 100 53.5 143t159.5 43q22 0 49.5 -0.5t54.5 -1t51 -2l40 -2.5q5 -1 7.5 -5t2.5 -9v-50q0 -12 -11 -12h-193q-40 0 -64 -5.5t-37 -18t-17.5 -32.5t-4.5 -48v-139
h307q8 0 14 -6t6 -14v-38q0 -8 -6 -14t-14 -6h-307v-168q0 -29 4.5 -48.5t17.5 -32t37 -18t64 -5.5h193q11 0 11 -12v-51zM436 943q0 -4 -4 -8l-113 -126q-7 -8 -11 -11.5t-12 -3.5h-54q-9 0 -9 7q0 6 4 10l98 124q7 8 11 11.5t13 3.5h66q11 0 11 -7z" />
    <glyph glyph-name="Ecircumflex" unicode="&#xca;" horiz-adv-x="551" 
d="M496 12q0 -5 -2.5 -9t-7.5 -5q-14 -2 -38 -2.5t-51.5 -1.5t-55.5 -1h-50q-106 0 -159.5 43t-53.5 143v385q0 100 53.5 143t159.5 43q22 0 49.5 -0.5t54.5 -1t51 -2l40 -2.5q5 -1 7.5 -5t2.5 -9v-50q0 -12 -11 -12h-193q-40 0 -64 -5.5t-37 -18t-17.5 -32.5t-4.5 -48v-139
h307q8 0 14 -6t6 -14v-38q0 -8 -6 -14t-14 -6h-307v-168q0 -29 4.5 -48.5t17.5 -32t37 -18t64 -5.5h193q11 0 11 -12v-51zM456 801q0 -7 -9 -7h-52q-8 0 -12 3.5t-11 11.5l-82 97l-83 -97q-7 -8 -11 -11.5t-12 -3.5h-52q-9 0 -9 7q0 6 4 10l96 124q7 8 11 11.5t13 3.5h85
q9 0 13.5 -3.5t11.5 -11.5l95 -124q4 -4 4 -10z" />
    <glyph glyph-name="Edieresis" unicode="&#xcb;" horiz-adv-x="551" 
d="M496 12q0 -5 -2.5 -9t-7.5 -5q-14 -2 -38 -2.5t-51.5 -1.5t-55.5 -1h-50q-106 0 -159.5 43t-53.5 143v385q0 100 53.5 143t159.5 43q22 0 49.5 -0.5t54.5 -1t51 -2l40 -2.5q5 -1 7.5 -5t2.5 -9v-50q0 -12 -11 -12h-193q-40 0 -64 -5.5t-37 -18t-17.5 -32.5t-4.5 -48v-139
h307q8 0 14 -6t6 -14v-38q0 -8 -6 -14t-14 -6h-307v-168q0 -29 4.5 -48.5t17.5 -32t37 -18t64 -5.5h193q11 0 11 -12v-51zM424 829q0 -8 -6 -13.5t-14 -5.5h-39q-8 0 -14 5.5t-6 13.5v81q0 8 6 14t14 6h39q8 0 14 -6t6 -14v-81zM249 829q0 -8 -6 -13.5t-14 -5.5h-39
q-8 0 -14 5.5t-6 13.5v81q0 8 6 14t14 6h39q8 0 14 -6t6 -14v-81z" />
    <glyph glyph-name="Igrave" unicode="&#xcc;" horiz-adv-x="267" 
d="M179 20q0 -8 -5 -14t-13 -6h-55q-8 0 -13 6t-5 14v704q0 8 5 13.5t13 5.5h55q8 0 13 -5.5t5 -13.5v-704zM198 801q0 -7 -9 -7h-54q-8 0 -12 3.5t-11 11.5l-113 126q-4 4 -4 8q0 7 11 7h66q9 0 13.5 -3.5t11.5 -11.5l97 -124q4 -4 4 -10z" />
    <glyph glyph-name="Iacute" unicode="&#xcd;" horiz-adv-x="267" 
d="M179 20q0 -8 -5 -14t-13 -6h-55q-8 0 -13 6t-5 14v704q0 8 5 13.5t13 5.5h55q8 0 13 -5.5t5 -13.5v-704zM272 943q0 -4 -4 -8l-113 -126q-7 -8 -11 -11.5t-12 -3.5h-54q-9 0 -9 7q0 6 4 10l98 124q7 8 11 11.5t13 3.5h66q11 0 11 -7z" />
    <glyph glyph-name="Icircumflex" unicode="&#xce;" horiz-adv-x="267" 
d="M179 20q0 -8 -5 -14t-13 -6h-55q-8 0 -13 6t-5 14v704q0 8 5 13.5t13 5.5h55q8 0 13 -5.5t5 -13.5v-704zM296 801q0 -7 -9 -7h-52q-8 0 -12 3.5t-11 11.5l-82 97l-83 -97q-7 -8 -11 -11.5t-12 -3.5h-52q-9 0 -9 7q0 6 4 10l96 124q7 8 11 11.5t13 3.5h85q9 0 13.5 -3.5
t11.5 -11.5l95 -124q4 -4 4 -10z" />
    <glyph glyph-name="Idieresis" unicode="&#xcf;" horiz-adv-x="267" 
d="M179 20q0 -8 -5 -14t-13 -6h-55q-8 0 -13 6t-5 14v704q0 8 5 13.5t13 5.5h55q8 0 13 -5.5t5 -13.5v-704zM261 828q0 -8 -6 -13.5t-14 -5.5h-39q-8 0 -14 5.5t-6 13.5v81q0 8 6 14t14 6h39q8 0 14 -6t6 -14v-81zM86 828q0 -8 -6 -13.5t-14 -5.5h-39q-8 0 -14 5.5t-6 13.5
v81q0 8 6 14t14 6h39q8 0 14 -6t6 -14v-81z" />
    <glyph glyph-name="Eth" unicode="&#xd0;" horiz-adv-x="641" 
d="M584 304q0 -80 -21.5 -139t-61 -97t-95.5 -56.5t-125 -18.5q-29 0 -56.5 1t-52 2.5t-43.5 3t-30 3.5q-21 3 -21 25v319h-38q-8 0 -14 6t-6 14v38q0 8 6 14t14 6h38v290q0 22 21 25q11 2 30 3.5t43.5 3t52 2.5t56.5 1q69 0 125 -18t95.5 -56.5t61 -97t21.5 -139.5v-135z
M493 439q0 68 -16.5 113t-45 71.5t-67 37.5t-83.5 11q-35 0 -60.5 -0.5t-50.5 -2.5v-244h103q8 0 14 -6t6 -14v-38q0 -8 -6 -14t-14 -6h-103v-274q24 -2 50 -2h61q45 0 83.5 11t67 38t45 71.5t16.5 112.5v135z" />
    <glyph glyph-name="Ntilde" unicode="&#xd1;" horiz-adv-x="680" 
d="M602 29q0 -12 -8.5 -20.5t-20.5 -8.5h-62q-24 0 -32 16l-309 587q-2 3 -3 3t-1 -3v-584q0 -8 -5 -13.5t-13 -5.5h-52q-8 0 -13 2t-5 10v703q0 12 8.5 20t20.5 8h55q21 0 28 -4.5t13 -15.5l307 -584l2 -3q1 0 1 3v585q0 8 5 13.5t13 5.5h53q8 0 13 -5.5t5 -13.5v-695z
M508 892q0 -52 -21.5 -78.5t-72.5 -26.5q-17 0 -33.5 5t-30.5 16l-61 49q-18 14 -25 18t-16 4q-18 0 -24.5 -11.5t-6.5 -34.5v-21q0 -7 -5 -12t-12 -5h-31q-7 0 -11.5 5t-4.5 12v21q0 54 25 81.5t70 27.5q17 0 31.5 -6.5t28.5 -17.5l71 -56q8 -6 18 -10t17 -4q15 0 22.5 9
t7.5 35v23q0 7 5 12t12 5h31q7 0 11.5 -5t4.5 -12v-23z" />
    <glyph glyph-name="Ograve" unicode="&#xd2;" horiz-adv-x="661" 
d="M601 307q0 -83 -20 -142.5t-56 -97.5t-85.5 -56t-108.5 -18t-108.5 18t-85.5 56t-56.5 97.5t-20.5 142.5v129q0 83 20.5 142.5t56.5 97.5t85.5 56t108.5 18t108.5 -18t85.5 -56t56 -97.5t20 -142.5v-129zM509 436q0 63 -12.5 107t-35.5 72t-56 40.5t-74 12.5t-74 -12.5
t-56.5 -40.5t-36 -72t-12.5 -107v-129q0 -63 12.5 -107t35.5 -72t56.5 -40.5t74.5 -12.5t74 12.5t56 40.5t35.5 72t12.5 107v129zM397 801q0 -7 -9 -7h-54q-8 0 -12 3.5t-11 11.5l-113 126q-4 4 -4 8q0 7 11 7h66q9 0 13.5 -3.5t11.5 -11.5l97 -124q4 -4 4 -10z" />
    <glyph glyph-name="Oacute" unicode="&#xd3;" horiz-adv-x="661" 
d="M601 307q0 -83 -20 -142.5t-56 -97.5t-85.5 -56t-108.5 -18t-108.5 18t-85.5 56t-56.5 97.5t-20.5 142.5v129q0 83 20.5 142.5t56.5 97.5t85.5 56t108.5 18t108.5 -18t85.5 -56t56 -97.5t20 -142.5v-129zM509 436q0 63 -12.5 107t-35.5 72t-56 40.5t-74 12.5t-74 -12.5
t-56.5 -40.5t-36 -72t-12.5 -107v-129q0 -63 12.5 -107t35.5 -72t56.5 -40.5t74.5 -12.5t74 12.5t56 40.5t35.5 72t12.5 107v129zM457 943q0 -4 -4 -8l-113 -126q-7 -8 -11 -11.5t-12 -3.5h-54q-9 0 -9 7q0 6 4 10l98 124q7 8 11 11.5t13 3.5h66q11 0 11 -7z" />
    <glyph glyph-name="Ocircumflex" unicode="&#xd4;" horiz-adv-x="661" 
d="M601 307q0 -83 -20 -142.5t-56 -97.5t-85.5 -56t-108.5 -18t-108.5 18t-85.5 56t-56.5 97.5t-20.5 142.5v129q0 83 20.5 142.5t56.5 97.5t85.5 56t108.5 18t108.5 -18t85.5 -56t56 -97.5t20 -142.5v-129zM509 436q0 63 -12.5 107t-35.5 72t-56 40.5t-74 12.5t-74 -12.5
t-56.5 -40.5t-36 -72t-12.5 -107v-129q0 -63 12.5 -107t35.5 -72t56.5 -40.5t74.5 -12.5t74 12.5t56 40.5t35.5 72t12.5 107v129zM497 802q0 -7 -9 -7h-52q-8 0 -12 3.5t-11 11.5l-82 97l-83 -97q-7 -8 -11 -11.5t-12 -3.5h-52q-9 0 -9 7q0 6 4 10l96 124q7 8 11 11.5
t13 3.5h85q9 0 13.5 -3.5t11.5 -11.5l95 -124q4 -4 4 -10z" />
    <glyph glyph-name="Otilde" unicode="&#xd5;" horiz-adv-x="661" 
d="M601 307q0 -83 -20 -142.5t-56 -97.5t-85.5 -56t-108.5 -18t-108.5 18t-85.5 56t-56.5 97.5t-20.5 142.5v129q0 83 20.5 142.5t56.5 97.5t85.5 56t108.5 18t108.5 -18t85.5 -56t56 -97.5t20 -142.5v-129zM509 436q0 63 -12.5 107t-35.5 72t-56 40.5t-74 12.5t-74 -12.5
t-56.5 -40.5t-36 -72t-12.5 -107v-129q0 -63 12.5 -107t35.5 -72t56.5 -40.5t74.5 -12.5t74 12.5t56 40.5t35.5 72t12.5 107v129zM511 894q0 -52 -21.5 -78.5t-72.5 -26.5q-17 0 -33.5 5t-30.5 16l-61 49q-18 14 -25 18t-16 4q-18 0 -24.5 -11.5t-6.5 -34.5v-21q0 -7 -5 -12
t-12 -5h-31q-7 0 -11.5 5t-4.5 12v21q0 54 25 81.5t70 27.5q17 0 31.5 -6.5t28.5 -17.5l71 -56q8 -6 18 -10t17 -4q15 0 22.5 9t7.5 35v23q0 7 5 12t12 5h31q7 0 11.5 -5t4.5 -12v-23z" />
    <glyph glyph-name="Odieresis" unicode="&#xd6;" horiz-adv-x="661" 
d="M601 307q0 -83 -20 -142.5t-56 -97.5t-85.5 -56t-108.5 -18t-108.5 18t-85.5 56t-56.5 97.5t-20.5 142.5v129q0 83 20.5 142.5t56.5 97.5t85.5 56t108.5 18t108.5 -18t85.5 -56t56 -97.5t20 -142.5v-129zM509 436q0 63 -12.5 107t-35.5 72t-56 40.5t-74 12.5t-74 -12.5
t-56.5 -40.5t-36 -72t-12.5 -107v-129q0 -63 12.5 -107t35.5 -72t56.5 -40.5t74.5 -12.5t74 12.5t56 40.5t35.5 72t12.5 107v129zM458 829q0 -8 -6 -13.5t-14 -5.5h-39q-8 0 -14 5.5t-6 13.5v81q0 8 6 14t14 6h39q8 0 14 -6t6 -14v-81zM283 829q0 -8 -6 -13.5t-14 -5.5h-39
q-8 0 -14 5.5t-6 13.5v81q0 8 6 14t14 6h39q8 0 14 -6t6 -14v-81z" />
    <glyph glyph-name="multiply" unicode="&#xd7;" 
d="M488 243q0 -5 -5 -10l-28 -28q-5 -5 -10 -5q-8 0 -16 8l-132 132l-131 -131q-8 -8 -16 -8q-5 0 -10 5l-28 28q-5 5 -5 10q0 8 8 16l131 131l-131 132q-8 8 -8 15q0 5 5 10l28 28q5 5 11 5q8 0 15 -7l131 -132l132 132q8 8 16 8q5 0 10 -5l28 -28q5 -5 5 -10q0 -8 -8 -16
l-132 -132l132 -132q8 -8 8 -16z" />
    <glyph glyph-name="Oslash" unicode="&#xd8;" horiz-adv-x="661" 
d="M633 735q0 -4 -3 -8l-71 -98q20 -36 31 -84t11 -109v-129q0 -83 -20 -142.5t-56 -97.5t-85.5 -56t-108.5 -18q-54 0 -101 15.5t-82 47.5l-31 -44q-5 -6 -11 -12.5t-14 -6.5h-53q-11 0 -11 11q0 3 3 8l72 100q-43 74 -43 195v129q0 83 20.5 142.5t56.5 97.5t85.5 56
t108.5 18q55 0 102 -15.5t82 -48.5l29 41q5 6 11.5 12.5t14.5 6.5h52q11 0 11 -11zM462 613q-45 55 -131 55q-41 0 -74 -12.5t-56.5 -40.5t-36 -72t-12.5 -107v-129q0 -32 3.5 -58.5t9.5 -49.5zM509 436q0 62 -12 106l-297 -414q23 -28 56 -40.5t75 -12.5q41 0 74 12.5
t56 40.5t35.5 72t12.5 107v129z" />
    <glyph glyph-name="Ugrave" unicode="&#xd9;" horiz-adv-x="662" 
d="M587 270q0 -143 -67.5 -210t-188.5 -67q-122 0 -189 67t-67 210v454q0 8 5.5 13.5t13.5 5.5h54q8 0 13.5 -5.5t5.5 -13.5v-454q0 -48 8 -85.5t27.5 -62.5t50.5 -38t78 -13q46 0 77.5 13t51 38t27.5 62t8 86v454q0 8 5.5 13.5t13.5 5.5h54q8 0 13.5 -5.5t5.5 -13.5v-454z
M389 801q0 -7 -9 -7h-54q-8 0 -12 3.5t-11 11.5l-113 126q-4 4 -4 8q0 7 11 7h66q9 0 13.5 -3.5t11.5 -11.5l97 -124q4 -4 4 -10z" />
    <glyph glyph-name="Uacute" unicode="&#xda;" horiz-adv-x="662" 
d="M587 270q0 -143 -67.5 -210t-188.5 -67q-122 0 -189 67t-67 210v454q0 8 5.5 13.5t13.5 5.5h54q8 0 13.5 -5.5t5.5 -13.5v-454q0 -48 8 -85.5t27.5 -62.5t50.5 -38t78 -13q46 0 77.5 13t51 38t27.5 62t8 86v454q0 8 5.5 13.5t13.5 5.5h54q8 0 13.5 -5.5t5.5 -13.5v-454z
M479 943q0 -4 -4 -8l-113 -126q-7 -8 -11 -11.5t-12 -3.5h-54q-9 0 -9 7q0 6 4 10l98 124q7 8 11 11.5t13 3.5h66q11 0 11 -7z" />
    <glyph glyph-name="Ucircumflex" unicode="&#xdb;" horiz-adv-x="662" 
d="M587 270q0 -143 -67.5 -210t-188.5 -67q-122 0 -189 67t-67 210v454q0 8 5.5 13.5t13.5 5.5h54q8 0 13.5 -5.5t5.5 -13.5v-454q0 -48 8 -85.5t27.5 -62.5t50.5 -38t78 -13q46 0 77.5 13t51 38t27.5 62t8 86v454q0 8 5.5 13.5t13.5 5.5h54q8 0 13.5 -5.5t5.5 -13.5v-454z
M494 801q0 -7 -9 -7h-52q-8 0 -12 3.5t-11 11.5l-82 97l-83 -97q-7 -8 -11 -11.5t-12 -3.5h-52q-9 0 -9 7q0 6 4 10l96 124q7 8 11 11.5t13 3.5h85q9 0 13.5 -3.5t11.5 -11.5l95 -124q4 -4 4 -10z" />
    <glyph glyph-name="Udieresis" unicode="&#xdc;" horiz-adv-x="662" 
d="M587 270q0 -143 -67.5 -210t-188.5 -67q-122 0 -189 67t-67 210v454q0 8 5.5 13.5t13.5 5.5h54q8 0 13.5 -5.5t5.5 -13.5v-454q0 -48 8 -85.5t27.5 -62.5t50.5 -38t78 -13q46 0 77.5 13t51 38t27.5 62t8 86v454q0 8 5.5 13.5t13.5 5.5h54q8 0 13.5 -5.5t5.5 -13.5v-454z
M456 829q0 -8 -6 -13.5t-14 -5.5h-39q-8 0 -14 5.5t-6 13.5v81q0 8 6 14t14 6h39q8 0 14 -6t6 -14v-81zM281 829q0 -8 -6 -13.5t-14 -5.5h-39q-8 0 -14 5.5t-6 13.5v81q0 8 6 14t14 6h39q8 0 14 -6t6 -14v-81z" />
    <glyph glyph-name="Yacute" unicode="&#xdd;" horiz-adv-x="583" 
d="M549 729q0 -5 -3 -11l-155 -348q-14 -30 -27 -45t-27 -21v-284q0 -8 -5 -14t-13 -6h-55q-8 0 -13 6t-5 14v284q-14 5 -27 20.5t-27 45.5l-154 348q-3 6 -3 11q0 14 17 14h61q5 0 10.5 -4.5t7.5 -9.5l138 -324q8 -17 13 -21.5t10 -4.5t10 4.5t13 21.5l139 324q2 5 6.5 9.5
t10.5 4.5h61q17 0 17 -14zM438 943q0 -4 -4 -8l-113 -126q-7 -8 -11 -11.5t-12 -3.5h-54q-9 0 -9 7q0 6 4 10l98 124q7 8 11 11.5t13 3.5h66q11 0 11 -7z" />
    <glyph glyph-name="Thorn" unicode="&#xde;" horiz-adv-x="593" 
d="M548 426q0 -64 -21 -107t-58.5 -69.5t-89 -38t-112.5 -11.5q-26 0 -52 0.5t-47 2.5v-183q0 -8 -4 -14t-12 -6h-56q-8 0 -13 6t-5 14v704q0 8 5 13.5t13 5.5h55q8 0 12.5 -5.5t4.5 -13.5v-69q20 1 47.5 2t49.5 1q61 0 113 -11.5t90 -37t59 -67.5t21 -102v-14zM457 440
q0 78 -48 108.5t-142 30.5h-53t-46 -2v-296q9 0 21.5 -0.5t26.5 -1t27.5 -1t23.5 -0.5q97 0 143.5 34t46.5 114v14z" />
    <glyph glyph-name="germandbls" unicode="&#xdf;" horiz-adv-x="581" 
d="M527 215q0 -59 -19.5 -101t-52 -69t-75.5 -39.5t-90 -12.5q-11 0 -22 0.5t-26 2.5q-8 1 -14 6t-6 13v41q0 11 11 11q10 0 22.5 -0.5t20.5 -0.5q36 0 66 7t51 24t33 45.5t12 72.5v14q0 55 -39 91.5t-116 36.5h-37q-8 0 -14 6t-6 14v29q0 8 6 14t14 6h37q38 0 64.5 10
t43.5 27t24.5 39t7.5 46v12q0 55 -31 88t-100 33q-70 0 -104 -39.5t-34 -127.5v-493q0 -8 -5 -14.5t-13 -6.5h-53q-8 0 -13 6.5t-5 14.5v493q0 63 16 109t45.5 76t71.5 44.5t94 14.5q48 0 88 -11.5t69 -35.5t45.5 -61.5t16.5 -89.5v-12q0 -54 -31 -94.5t-74 -59.5
q53 -19 87 -62t34 -103v-14v0z" />
    <glyph glyph-name="agrave" unicode="&#xe0;" horiz-adv-x="519" 
d="M451 20q0 -8 -6 -14t-14 -6h-46q-8 0 -14 6t-6 14v22q-36 -21 -74 -35t-80 -14q-32 0 -61.5 7.5t-52 26.5t-36 50t-13.5 78v12q0 40 12.5 70.5t41 51t74.5 30.5t113 10h74v40q0 63 -24 88t-83 25q-49 0 -86 -2.5t-67 -5.5h-5q-7 0 -12.5 3t-5.5 13v35q0 16 21 19
q31 5 67.5 9t87.5 4q104 0 149.5 -50t45.5 -138v-349zM363 266h-74q-45 0 -75 -5.5t-47 -17t-24 -30t-7 -45.5v-12q0 -54 24 -72.5t68 -18.5q35 0 67 10t68 30v161zM324 630q0 -7 -9 -7h-54q-8 0 -12 3.5t-11 11.5l-113 126q-4 4 -4 8q0 7 11 7h66q9 0 13.5 -3.5t11.5 -11.5
l97 -124q4 -4 4 -10z" />
    <glyph glyph-name="aacute" unicode="&#xe1;" horiz-adv-x="519" 
d="M451 20q0 -8 -6 -14t-14 -6h-46q-8 0 -14 6t-6 14v22q-36 -21 -74 -35t-80 -14q-32 0 -61.5 7.5t-52 26.5t-36 50t-13.5 78v12q0 40 12.5 70.5t41 51t74.5 30.5t113 10h74v40q0 63 -24 88t-83 25q-49 0 -86 -2.5t-67 -5.5h-5q-7 0 -12.5 3t-5.5 13v35q0 16 21 19
q31 5 67.5 9t87.5 4q104 0 149.5 -50t45.5 -138v-349zM363 266h-74q-45 0 -75 -5.5t-47 -17t-24 -30t-7 -45.5v-12q0 -54 24 -72.5t68 -18.5q35 0 67 10t68 30v161zM412 772q0 -4 -4 -8l-113 -126q-7 -8 -11 -11.5t-12 -3.5h-54q-9 0 -9 7q0 6 4 10l98 124q7 8 11 11.5
t13 3.5h66q11 0 11 -7z" />
    <glyph glyph-name="acircumflex" unicode="&#xe2;" horiz-adv-x="519" 
d="M451 20q0 -8 -6 -14t-14 -6h-46q-8 0 -14 6t-6 14v22q-36 -21 -74 -35t-80 -14q-32 0 -61.5 7.5t-52 26.5t-36 50t-13.5 78v12q0 40 12.5 70.5t41 51t74.5 30.5t113 10h74v40q0 63 -24 88t-83 25q-49 0 -86 -2.5t-67 -5.5h-5q-7 0 -12.5 3t-5.5 13v35q0 16 21 19
q31 5 67.5 9t87.5 4q104 0 149.5 -50t45.5 -138v-349zM363 266h-74q-45 0 -75 -5.5t-47 -17t-24 -30t-7 -45.5v-12q0 -54 24 -72.5t68 -18.5q35 0 67 10t68 30v161zM425 630q0 -7 -9 -7h-52q-8 0 -12 3.5t-11 11.5l-82 97l-83 -97q-7 -8 -11 -11.5t-12 -3.5h-52q-9 0 -9 7
q0 6 4 10l96 124q7 8 11 11.5t13 3.5h85q9 0 13.5 -3.5t11.5 -11.5l95 -124q4 -4 4 -10z" />
    <glyph glyph-name="atilde" unicode="&#xe3;" horiz-adv-x="519" 
d="M451 20q0 -8 -6 -14t-14 -6h-46q-8 0 -14 6t-6 14v22q-36 -21 -74 -35t-80 -14q-32 0 -61.5 7.5t-52 26.5t-36 50t-13.5 78v12q0 40 12.5 70.5t41 51t74.5 30.5t113 10h74v40q0 63 -24 88t-83 25q-49 0 -86 -2.5t-67 -5.5h-5q-7 0 -12.5 3t-5.5 13v35q0 16 21 19
q31 5 67.5 9t87.5 4q104 0 149.5 -50t45.5 -138v-349zM363 266h-74q-45 0 -75 -5.5t-47 -17t-24 -30t-7 -45.5v-12q0 -54 24 -72.5t68 -18.5q35 0 67 10t68 30v161zM446 731q0 -52 -21.5 -78.5t-72.5 -26.5q-17 0 -33.5 5t-30.5 16l-61 49q-18 14 -25 18t-16 4
q-18 0 -24.5 -11.5t-6.5 -34.5v-21q0 -7 -5 -12t-12 -5h-31q-7 0 -11.5 5t-4.5 12v21q0 54 25 81.5t70 27.5q17 0 31.5 -6.5t28.5 -17.5l71 -56q8 -6 18 -10t17 -4q15 0 22.5 9t7.5 35v23q0 7 5 12t12 5h31q7 0 11.5 -5t4.5 -12v-23z" />
    <glyph glyph-name="adieresis" unicode="&#xe4;" horiz-adv-x="519" 
d="M451 20q0 -8 -6 -14t-14 -6h-46q-8 0 -14 6t-6 14v22q-36 -21 -74 -35t-80 -14q-32 0 -61.5 7.5t-52 26.5t-36 50t-13.5 78v12q0 40 12.5 70.5t41 51t74.5 30.5t113 10h74v40q0 63 -24 88t-83 25q-49 0 -86 -2.5t-67 -5.5h-5q-7 0 -12.5 3t-5.5 13v35q0 16 21 19
q31 5 67.5 9t87.5 4q104 0 149.5 -50t45.5 -138v-349zM363 266h-74q-45 0 -75 -5.5t-47 -17t-24 -30t-7 -45.5v-12q0 -54 24 -72.5t68 -18.5q35 0 67 10t68 30v161zM388 660q0 -8 -6 -13.5t-14 -5.5h-39q-8 0 -14 5.5t-6 13.5v81q0 8 6 14t14 6h39q8 0 14 -6t6 -14v-81z
M213 660q0 -8 -6 -13.5t-14 -5.5h-39q-8 0 -14 5.5t-6 13.5v81q0 8 6 14t14 6h39q8 0 14 -6t6 -14v-81z" />
    <glyph glyph-name="aring" unicode="&#xe5;" horiz-adv-x="519" 
d="M451 20q0 -8 -6 -14t-14 -6h-46q-8 0 -14 6t-6 14v22q-36 -21 -74 -35t-80 -14q-32 0 -61.5 7.5t-52 26.5t-36 50t-13.5 78v12q0 40 12.5 70.5t41 51t74.5 30.5t113 10h74v40q0 63 -24 88t-83 25q-49 0 -86 -2.5t-67 -5.5h-5q-7 0 -12.5 3t-5.5 13v35q0 16 21 19
q31 5 67.5 9t87.5 4q104 0 149.5 -50t45.5 -138v-349zM363 266h-74q-45 0 -75 -5.5t-47 -17t-24 -30t-7 -45.5v-12q0 -54 24 -72.5t68 -18.5q35 0 67 10t68 30v161zM358 703q0 -21 -8 -39.5t-21.5 -32t-32 -21.5t-39.5 -8t-39.5 8t-32.5 21.5t-22 32t-8 39.5t8 39.5t22 32.5
t32.5 22t39.5 8t39.5 -8t32 -22t21.5 -32.5t8 -39.5zM310 704q0 22 -15.5 37t-37.5 15t-37 -15t-15 -37t15 -37.5t37 -15.5t37.5 15.5t15.5 37.5z" />
    <glyph glyph-name="ae" unicode="&#xe6;" horiz-adv-x="853" 
d="M803 269q0 -22 -19 -22h-333v-32q0 -77 35.5 -112.5t110.5 -35.5q44 0 90 4.5t81 9.5h2h3q16 0 16 -14v-34q0 -10 -4 -15.5t-16 -7.5q-43 -8 -84.5 -12.5t-92.5 -4.5q-58 0 -99.5 12.5t-73.5 46.5q-35 -30 -82.5 -44.5t-97.5 -14.5q-37 0 -71.5 9.5t-61 29.5t-42.5 51
t-16 75v9q0 41 12.5 71.5t41 50.5t74.5 30t113 10h75v40q0 63 -24.5 88t-83.5 25q-49 0 -86 -2.5t-67 -5.5h-2h-3q-8 0 -13 3.5t-5 12.5v35q0 16 21 19q31 5 67.5 9t87.5 4q62 0 102.5 -18t63.5 -52q28 33 68.5 51.5t94.5 18.5q55 0 96 -18.5t68 -51.5t40.5 -78t13.5 -98
v-42zM716 319q0 163 -131 163q-65 0 -99.5 -42.5t-34.5 -120.5v-5h265v5zM364 265h-75q-45 0 -74.5 -5.5t-47 -17t-24 -30t-6.5 -45.5v-9q0 -27 9 -45t25 -29t36.5 -16t43.5 -5q31 0 61.5 7.5t51.5 23.5v171z" />
    <glyph glyph-name="ccedilla" unicode="&#xe7;" horiz-adv-x="452" 
d="M408 26q0 -10 -4 -15t-16 -7q-25 -5 -57.5 -8t-67.5 -3q-51 0 -90.5 17.5t-67 49t-41.5 76.5t-14 100v78q0 55 14 100t41 76.5t67 49t91 17.5q35 0 67.5 -3t57.5 -8q12 -2 16 -6.5t4 -15.5v-36q0 -8 -5 -11.5t-12 -3.5h-4q-33 4 -60 5.5t-64 1.5q-60 0 -92.5 -40.5
t-32.5 -125.5v-78q0 -85 32 -125.5t93 -40.5q37 0 64 1.5t60 5.5h4q7 0 12 -3.5t5 -11.5v-36zM322 -39q0 -4 -4 -8l-113 -126q-7 -8 -11 -11.5t-12 -3.5h-54q-9 0 -9 7q0 6 4 10l97 124q7 8 11.5 11.5t13.5 3.5h66q11 0 11 -7z" />
    <glyph glyph-name="egrave" unicode="&#xe8;" horiz-adv-x="544" 
d="M492 269q0 -22 -19 -22h-335v-14q0 -89 35 -126t104 -37q44 0 93.5 3t84.5 8h5q6 0 11 -3t5 -11v-34q0 -10 -4 -15.5t-16 -7.5q-43 -8 -85.5 -12.5t-93.5 -4.5q-43 0 -84 11.5t-72.5 39t-51 73.5t-19.5 116v90q0 108 57 171t165 63q55 0 96 -16.5t68.5 -47t41.5 -74
t14 -96.5v-54zM403 323q0 85 -32.5 121t-98.5 36q-65 0 -99.5 -38t-34.5 -119v-9h265v9zM358 630q0 -7 -9 -7h-54q-8 0 -12 3.5t-11 11.5l-113 126q-4 4 -4 8q0 7 11 7h66q9 0 13.5 -3.5t11.5 -11.5l97 -124q4 -4 4 -10z" />
    <glyph glyph-name="eacute" unicode="&#xe9;" horiz-adv-x="544" 
d="M492 269q0 -22 -19 -22h-335v-14q0 -89 35 -126t104 -37q44 0 93.5 3t84.5 8h5q6 0 11 -3t5 -11v-34q0 -10 -4 -15.5t-16 -7.5q-43 -8 -85.5 -12.5t-93.5 -4.5q-43 0 -84 11.5t-72.5 39t-51 73.5t-19.5 116v90q0 108 57 171t165 63q55 0 96 -16.5t68.5 -47t41.5 -74
t14 -96.5v-54zM403 323q0 85 -32.5 121t-98.5 36q-65 0 -99.5 -38t-34.5 -119v-9h265v9zM434 772q0 -4 -4 -8l-113 -126q-7 -8 -11 -11.5t-12 -3.5h-54q-9 0 -9 7q0 6 4 10l98 124q7 8 11 11.5t13 3.5h66q11 0 11 -7z" />
    <glyph glyph-name="ecircumflex" unicode="&#xea;" horiz-adv-x="544" 
d="M492 269q0 -22 -19 -22h-335v-14q0 -89 35 -126t104 -37q44 0 93.5 3t84.5 8h5q6 0 11 -3t5 -11v-34q0 -10 -4 -15.5t-16 -7.5q-43 -8 -85.5 -12.5t-93.5 -4.5q-43 0 -84 11.5t-72.5 39t-51 73.5t-19.5 116v90q0 108 57 171t165 63q55 0 96 -16.5t68.5 -47t41.5 -74
t14 -96.5v-54zM403 323q0 85 -32.5 121t-98.5 36q-65 0 -99.5 -38t-34.5 -119v-9h265v9zM439 630q0 -7 -9 -7h-52q-8 0 -12 3.5t-11 11.5l-82 97l-83 -97q-7 -8 -11 -11.5t-12 -3.5h-52q-9 0 -9 7q0 6 4 10l96 124q7 8 11 11.5t13 3.5h85q9 0 13.5 -3.5t11.5 -11.5l95 -124
q4 -4 4 -10z" />
    <glyph glyph-name="edieresis" unicode="&#xeb;" horiz-adv-x="544" 
d="M492 269q0 -22 -19 -22h-335v-14q0 -89 35 -126t104 -37q44 0 93.5 3t84.5 8h5q6 0 11 -3t5 -11v-34q0 -10 -4 -15.5t-16 -7.5q-43 -8 -85.5 -12.5t-93.5 -4.5q-43 0 -84 11.5t-72.5 39t-51 73.5t-19.5 116v90q0 108 57 171t165 63q55 0 96 -16.5t68.5 -47t41.5 -74
t14 -96.5v-54zM403 323q0 85 -32.5 121t-98.5 36q-65 0 -99.5 -38t-34.5 -119v-9h265v9zM403 660q0 -8 -6 -13.5t-14 -5.5h-39q-8 0 -14 5.5t-6 13.5v81q0 8 6 14t14 6h39q8 0 14 -6t6 -14v-81zM228 660q0 -8 -6 -13.5t-14 -5.5h-39q-8 0 -14 5.5t-6 13.5v81q0 8 6 14t14 6
h39q8 0 14 -6t6 -14v-81z" />
    <glyph glyph-name="igrave" unicode="&#xec;" horiz-adv-x="247" 
d="M167 20q0 -8 -6 -14t-14 -6h-48q-8 0 -14 6t-6 14v510q0 8 6 14t14 6h48q8 0 14 -6t6 -14v-510zM185 630q0 -7 -9 -7h-54q-8 0 -12 3.5t-11 11.5l-113 126q-4 4 -4 8q0 7 11 7h66q9 0 13.5 -3.5t11.5 -11.5l97 -124q4 -4 4 -10z" />
    <glyph glyph-name="iacute" unicode="&#xed;" horiz-adv-x="247" 
d="M167 20q0 -8 -6 -14t-14 -6h-48q-8 0 -14 6t-6 14v510q0 8 6 14t14 6h48q8 0 14 -6t6 -14v-510zM271 772q0 -4 -4 -8l-113 -126q-7 -8 -11 -11.5t-12 -3.5h-54q-9 0 -9 7q0 6 4 10l98 124q7 8 11 11.5t13 3.5h66q11 0 11 -7z" />
    <glyph glyph-name="icircumflex" unicode="&#xee;" horiz-adv-x="247" 
d="M167 20q0 -8 -6 -14t-14 -6h-48q-8 0 -14 6t-6 14v510q0 8 6 14t14 6h48q8 0 14 -6t6 -14v-510zM289 630q0 -7 -9 -7h-52q-8 0 -12 3.5t-11 11.5l-82 97l-83 -97q-7 -8 -11 -11.5t-12 -3.5h-52q-9 0 -9 7q0 6 4 10l96 124q7 8 11 11.5t13 3.5h85q9 0 13.5 -3.5
t11.5 -11.5l95 -124q4 -4 4 -10z" />
    <glyph glyph-name="idieresis" unicode="&#xef;" horiz-adv-x="247" 
d="M167 20q0 -8 -6 -14t-14 -6h-48q-8 0 -14 6t-6 14v510q0 8 6 14t14 6h48q8 0 14 -6t6 -14v-510zM250 660q0 -8 -6 -13.5t-14 -5.5h-39q-8 0 -14 5.5t-6 13.5v81q0 8 6 14t14 6h39q8 0 14 -6t6 -14v-81zM75 660q0 -8 -6 -13.5t-14 -5.5h-39q-8 0 -14 5.5t-6 13.5v81
q0 8 6 14t14 6h39q8 0 14 -6t6 -14v-81z" />
    <glyph glyph-name="eth" unicode="&#xf0;" horiz-adv-x="545" 
d="M495 243q0 -121 -55.5 -185.5t-165.5 -64.5q-114 0 -169 67t-55 183v55q0 121 57 185.5t166 64.5q33 0 62 -8.5t50 -27.5q-15 39 -51 74t-96 63l-86 -66q-8 -6 -13 -6t-11 6l-17 19q-3 3 -3 7q0 5 3 9.5t7 7.5l61 47q-18 6 -37.5 11.5t-41.5 10.5q-6 2 -11 5t-5 10
q0 3 1 5l12 34q4 11 14 11q5 0 8 -1q71 -17 124 -37l94 71q5 4 13 4q7 0 12 -5l17 -18q4 -4 4 -8q0 -6 -10 -14l-73 -56q57 -33 95 -71t60 -86t31 -107t9 -134v-55zM407 298q0 85 -31 130t-103 45t-103 -45t-31 -130v-55q0 -85 31.5 -129.5t103.5 -44.5t102.5 44.5
t30.5 129.5v55z" />
    <glyph glyph-name="ntilde" unicode="&#xf1;" horiz-adv-x="557" 
d="M489 20q0 -8 -6 -14t-14 -6h-48q-8 0 -14 6t-6 14v329q0 38 -6.5 63.5t-20 40.5t-34.5 21.5t-49 6.5q-32 0 -66 -11t-69 -28v-422q0 -8 -6 -14t-14 -6h-49q-8 0 -13.5 6t-5.5 14v510q0 8 5.5 14t13.5 6h50q8 0 13.5 -6t5.5 -14v-19q42 23 78 34.5t81 11.5q91 0 132.5 -54
t41.5 -154v-329zM460 731q0 -52 -21.5 -78.5t-72.5 -26.5q-17 0 -33.5 5t-30.5 16l-61 49q-18 14 -25 18t-16 4q-18 0 -24.5 -11.5t-6.5 -34.5v-21q0 -7 -5 -12t-12 -5h-31q-7 0 -11.5 5t-4.5 12v21q0 54 25 81.5t70 27.5q17 0 31.5 -6.5t28.5 -17.5l71 -56q8 -6 18 -10
t17 -4q15 0 22.5 9t7.5 35v23q0 7 5 12t12 5h31q7 0 11.5 -5t4.5 -12v-23z" />
    <glyph glyph-name="ograve" unicode="&#xf2;" horiz-adv-x="545" 
d="M495 237q0 -55 -14 -100t-42 -77t-70 -49.5t-97 -17.5t-96.5 17.5t-69.5 49.5t-42 77t-14 100v76q0 55 14 100t42 77t69.5 49.5t96.5 17.5t97 -17.5t70 -49.5t42 -77t14 -100v-76zM407 313q0 77 -32 122t-103 45q-70 0 -102 -44.5t-32 -122.5v-76q0 -77 31.5 -122
t102.5 -45q70 0 102.5 44.5t32.5 122.5v76zM330 630q0 -7 -9 -7h-54q-8 0 -12 3.5t-11 11.5l-113 126q-4 4 -4 8q0 7 11 7h66q9 0 13.5 -3.5t11.5 -11.5l97 -124q4 -4 4 -10z" />
    <glyph glyph-name="oacute" unicode="&#xf3;" horiz-adv-x="545" 
d="M495 237q0 -55 -14 -100t-42 -77t-70 -49.5t-97 -17.5t-96.5 17.5t-69.5 49.5t-42 77t-14 100v76q0 55 14 100t42 77t69.5 49.5t96.5 17.5t97 -17.5t70 -49.5t42 -77t14 -100v-76zM407 313q0 77 -32 122t-103 45q-70 0 -102 -44.5t-32 -122.5v-76q0 -77 31.5 -122
t102.5 -45q70 0 102.5 44.5t32.5 122.5v76zM426 772q0 -4 -4 -8l-113 -126q-7 -8 -11 -11.5t-12 -3.5h-54q-9 0 -9 7q0 6 4 10l98 124q7 8 11 11.5t13 3.5h66q11 0 11 -7z" />
    <glyph glyph-name="ocircumflex" unicode="&#xf4;" horiz-adv-x="545" 
d="M495 237q0 -55 -14 -100t-42 -77t-70 -49.5t-97 -17.5t-96.5 17.5t-69.5 49.5t-42 77t-14 100v76q0 55 14 100t42 77t69.5 49.5t96.5 17.5t97 -17.5t70 -49.5t42 -77t14 -100v-76zM407 313q0 77 -32 122t-103 45q-70 0 -102 -44.5t-32 -122.5v-76q0 -77 31.5 -122
t102.5 -45q70 0 102.5 44.5t32.5 122.5v76zM440 630q0 -7 -9 -7h-52q-8 0 -12 3.5t-11 11.5l-82 97l-83 -97q-7 -8 -11 -11.5t-12 -3.5h-52q-9 0 -9 7q0 6 4 10l96 124q7 8 11 11.5t13 3.5h85q9 0 13.5 -3.5t11.5 -11.5l95 -124q4 -4 4 -10z" />
    <glyph glyph-name="otilde" unicode="&#xf5;" horiz-adv-x="545" 
d="M495 237q0 -55 -14 -100t-42 -77t-70 -49.5t-97 -17.5t-96.5 17.5t-69.5 49.5t-42 77t-14 100v76q0 55 14 100t42 77t69.5 49.5t96.5 17.5t97 -17.5t70 -49.5t42 -77t14 -100v-76zM407 313q0 77 -32 122t-103 45q-70 0 -102 -44.5t-32 -122.5v-76q0 -77 31.5 -122
t102.5 -45q70 0 102.5 44.5t32.5 122.5v76zM456 731q0 -52 -21.5 -78.5t-72.5 -26.5q-17 0 -33.5 5t-30.5 16l-61 49q-18 14 -25 18t-16 4q-18 0 -24.5 -11.5t-6.5 -34.5v-21q0 -7 -5 -12t-12 -5h-31q-7 0 -11.5 5t-4.5 12v21q0 54 25 81.5t70 27.5q17 0 31.5 -6.5
t28.5 -17.5l71 -56q8 -6 18 -10t17 -4q15 0 22.5 9t7.5 35v23q0 7 5 12t12 5h31q7 0 11.5 -5t4.5 -12v-23z" />
    <glyph glyph-name="odieresis" unicode="&#xf6;" horiz-adv-x="545" 
d="M495 237q0 -55 -14 -100t-42 -77t-70 -49.5t-97 -17.5t-96.5 17.5t-69.5 49.5t-42 77t-14 100v76q0 55 14 100t42 77t69.5 49.5t96.5 17.5t97 -17.5t70 -49.5t42 -77t14 -100v-76zM407 313q0 77 -32 122t-103 45q-70 0 -102 -44.5t-32 -122.5v-76q0 -77 31.5 -122
t102.5 -45q70 0 102.5 44.5t32.5 122.5v76zM398 660q0 -8 -6 -13.5t-14 -5.5h-39q-8 0 -14 5.5t-6 13.5v81q0 8 6 14t14 6h39q8 0 14 -6t6 -14v-81zM223 660q0 -8 -6 -13.5t-14 -5.5h-39q-8 0 -14 5.5t-6 13.5v81q0 8 6 14t14 6h39q8 0 14 -6t6 -14v-81z" />
    <glyph glyph-name="divide" unicode="&#xf7;" 
d="M345 527q0 -8 -5.5 -14t-13.5 -6h-48q-8 0 -14 6t-6 14v88q0 8 6 13.5t14 5.5h48q8 0 13.5 -5.5t5.5 -13.5v-88zM515 371q0 -8 -6 -12t-14 -4h-385q-8 0 -14 4t-6 12v40q0 8 6 12t14 4h385q8 0 14 -4t6 -12v-40zM345 162q0 -8 -5.5 -13.5t-13.5 -5.5h-48q-8 0 -14 5.5
t-6 13.5v89q0 8 6 13.5t14 5.5h48q8 0 13.5 -5.5t5.5 -13.5v-89z" />
    <glyph glyph-name="oslash" unicode="&#xf8;" horiz-adv-x="545" 
d="M528 575q0 -7 -4 -11l-70 -94q41 -62 41 -157v-76q0 -55 -14 -100t-42 -77t-70 -49.5t-97 -17.5q-85 0 -139 42l-44 -60q-5 -7 -8 -8.5t-8 -1.5h-49q-8 0 -8 8q0 7 4 11l71 96q-41 62 -41 157v76q0 55 14 100t42 77t69.5 49.5t96.5 17.5q86 0 140 -42l42 58q5 7 8 8.5
t8 1.5h50q8 0 8 -8zM362 449q-34 31 -90 31q-71 0 -102.5 -44.5t-31.5 -122.5v-76q0 -46 10 -79zM407 313q0 42 -11 78l-214 -290q33 -31 90 -31q71 0 103 44.5t32 122.5v76z" />
    <glyph glyph-name="ugrave" unicode="&#xf9;" horiz-adv-x="557" 
d="M489 20q0 -8 -5.5 -14t-13.5 -6h-50q-8 0 -13.5 6t-5.5 14v19q-42 -23 -78 -34.5t-81 -11.5q-91 0 -132.5 54t-41.5 154v329q0 8 6 14t14 6h48q8 0 14 -6t6 -14v-329q0 -38 6.5 -63.5t20 -40.5t34 -21.5t49.5 -6.5q32 0 66 11t69 28v422q0 8 6 14t14 6h49q8 0 13.5 -6
t5.5 -14v-510zM336 630q0 -7 -9 -7h-54q-8 0 -12 3.5t-11 11.5l-113 126q-4 4 -4 8q0 7 11 7h66q9 0 13.5 -3.5t11.5 -11.5l97 -124q4 -4 4 -10z" />
    <glyph glyph-name="uacute" unicode="&#xfa;" horiz-adv-x="557" 
d="M489 20q0 -8 -5.5 -14t-13.5 -6h-50q-8 0 -13.5 6t-5.5 14v19q-42 -23 -78 -34.5t-81 -11.5q-91 0 -132.5 54t-41.5 154v329q0 8 6 14t14 6h48q8 0 14 -6t6 -14v-329q0 -38 6.5 -63.5t20 -40.5t34 -21.5t49.5 -6.5q32 0 66 11t69 28v422q0 8 6 14t14 6h49q8 0 13.5 -6
t5.5 -14v-510zM434 772q0 -4 -4 -8l-113 -126q-7 -8 -11 -11.5t-12 -3.5h-54q-9 0 -9 7q0 6 4 10l98 124q7 8 11 11.5t13 3.5h66q11 0 11 -7z" />
    <glyph glyph-name="ucircumflex" unicode="&#xfb;" horiz-adv-x="557" 
d="M489 20q0 -8 -5.5 -14t-13.5 -6h-50q-8 0 -13.5 6t-5.5 14v19q-42 -23 -78 -34.5t-81 -11.5q-91 0 -132.5 54t-41.5 154v329q0 8 6 14t14 6h48q8 0 14 -6t6 -14v-329q0 -38 6.5 -63.5t20 -40.5t34 -21.5t49.5 -6.5q32 0 66 11t69 28v422q0 8 6 14t14 6h49q8 0 13.5 -6
t5.5 -14v-510zM446 630q0 -7 -9 -7h-52q-8 0 -12 3.5t-11 11.5l-82 97l-83 -97q-7 -8 -11 -11.5t-12 -3.5h-52q-9 0 -9 7q0 6 4 10l96 124q7 8 11 11.5t13 3.5h85q9 0 13.5 -3.5t11.5 -11.5l95 -124q4 -4 4 -10z" />
    <glyph glyph-name="udieresis" unicode="&#xfc;" horiz-adv-x="557" 
d="M489 20q0 -8 -5.5 -14t-13.5 -6h-50q-8 0 -13.5 6t-5.5 14v19q-42 -23 -78 -34.5t-81 -11.5q-91 0 -132.5 54t-41.5 154v329q0 8 6 14t14 6h48q8 0 14 -6t6 -14v-329q0 -38 6.5 -63.5t20 -40.5t34 -21.5t49.5 -6.5q32 0 66 11t69 28v422q0 8 6 14t14 6h49q8 0 13.5 -6
t5.5 -14v-510zM405 660q0 -8 -6 -13.5t-14 -5.5h-39q-8 0 -14 5.5t-6 13.5v81q0 8 6 14t14 6h39q8 0 14 -6t6 -14v-81zM230 660q0 -8 -6 -13.5t-14 -5.5h-39q-8 0 -14 5.5t-6 13.5v81q0 8 6 14t14 6h39q8 0 14 -6t6 -14v-81z" />
    <glyph glyph-name="yacute" unicode="&#xfd;" horiz-adv-x="534" 
d="M495 533q0 -5 -1 -7l-165 -576q-12 -41 -25.5 -69t-34.5 -45.5t-50.5 -25.5t-72.5 -8q-21 0 -44.5 2.5t-39.5 6.5q-9 2 -15 5t-6 11v37q0 16 19 16h3q17 -2 44.5 -4t44.5 -2q21 0 37 3.5t27.5 13t20 26t14.5 42.5l10 41h-14q-11 0 -21.5 2t-20 9t-17.5 21t-15 37
l-133 457q-1 2 -1 7q0 17 18 17h55q6 0 10.5 -5t6.5 -11l118 -434q4 -15 9 -18.5t10 -3.5h16l122 457q2 6 7 10.5t12 4.5h56q16 0 16 -17zM446 772q0 -4 -4 -8l-113 -126q-7 -8 -11 -11.5t-12 -3.5h-54q-9 0 -9 7q0 6 4 10l98 124q7 8 11 11.5t13 3.5h66q11 0 11 -7z" />
    <glyph glyph-name="thorn" unicode="&#xfe;" horiz-adv-x="541" 
d="M491 238q0 -118 -54 -181.5t-164 -63.5q-23 0 -55.5 3t-61.5 8v-181q0 -8 -5.5 -13.5t-13.5 -5.5h-51q-8 0 -13 5.5t-5 13.5v909q0 8 6 14t14 6h48q8 0 14 -6t6 -14v-185q29 5 59 7.5t58 2.5q56 0 97 -17.5t68 -50t40 -78t13 -101.5v-72zM403 310q0 39 -6.5 71
t-21.5 54.5t-40 35t-62 12.5q-32 0 -64 -3t-53 -7v-396q25 -5 59 -7.5t58 -2.5q37 0 62 11.5t40 33.5t21.5 54t6.5 72v72z" />
    <glyph glyph-name="ydieresis" unicode="&#xff;" horiz-adv-x="534" 
d="M495 533q0 -5 -1 -7l-165 -576q-12 -41 -25.5 -69t-34.5 -45.5t-50.5 -25.5t-72.5 -8q-21 0 -44.5 2.5t-39.5 6.5q-9 2 -15 5t-6 11v37q0 16 19 16h3q17 -2 44.5 -4t44.5 -2q21 0 37 3.5t27.5 13t20 26t14.5 42.5l10 41h-14q-11 0 -21.5 2t-20 9t-17.5 21t-15 37
l-133 457q-1 2 -1 7q0 17 18 17h55q6 0 10.5 -5t6.5 -11l118 -434q4 -15 9 -18.5t10 -3.5h16l122 457q2 6 7 10.5t12 4.5h56q16 0 16 -17zM404 660q0 -8 -6 -13.5t-14 -5.5h-39q-8 0 -14 5.5t-6 13.5v81q0 8 6 14t14 6h39q8 0 14 -6t6 -14v-81zM229 660q0 -8 -6 -13.5
t-14 -5.5h-39q-8 0 -14 5.5t-6 13.5v81q0 8 6 14t14 6h39q8 0 14 -6t6 -14v-81z" />
    <glyph glyph-name="Amacron" unicode="&#x100;" horiz-adv-x="633" 
d="M604 16q0 -16 -17 -16h-59q-7 0 -11 4.5t-6 10.5l-65 230h-259l-64 -230q-2 -6 -7 -10.5t-11 -4.5h-59q-17 0 -17 16q0 5 1 7l185 651q6 23 17.5 37.5t25.5 23t29.5 12t29.5 3.5t29 -3t29 -11.5t25.5 -23t17.5 -37.5l185 -652q1 -2 1 -7zM336 653q-5 18 -19 18
q-15 0 -20 -18l-91 -329h221zM478 836q0 -8 -6 -12.5t-14 -4.5h-288q-8 0 -14 4.5t-6 12.5v34q0 8 6 12.5t14 4.5h288q8 0 14 -4.5t6 -12.5v-34z" />
    <glyph glyph-name="amacron" unicode="&#x101;" horiz-adv-x="519" 
d="M451 20q0 -8 -6 -14t-14 -6h-46q-8 0 -14 6t-6 14v22q-36 -21 -74 -35t-80 -14q-32 0 -61.5 7.5t-52 26.5t-36 50t-13.5 78v12q0 40 12.5 70.5t41 51t74.5 30.5t113 10h74v40q0 63 -24 88t-83 25q-49 0 -86 -2.5t-67 -5.5h-5q-7 0 -12.5 3t-5.5 13v35q0 16 21 19
q31 5 67.5 9t87.5 4q104 0 149.5 -50t45.5 -138v-349zM363 266h-74q-45 0 -75 -5.5t-47 -17t-24 -30t-7 -45.5v-12q0 -54 24 -72.5t68 -18.5q35 0 67 10t68 30v161zM424 666q0 -8 -6 -12.5t-14 -4.5h-288q-8 0 -14 4.5t-6 12.5v34q0 8 6 12.5t14 4.5h288q8 0 14 -4.5
t6 -12.5v-34z" />
    <glyph glyph-name="Abreve" unicode="&#x102;" horiz-adv-x="633" 
d="M604 16q0 -16 -17 -16h-59q-7 0 -11 4.5t-6 10.5l-65 230h-259l-64 -230q-2 -6 -7 -10.5t-11 -4.5h-59q-17 0 -17 16q0 5 1 7l185 651q6 23 17.5 37.5t25.5 23t29.5 12t29.5 3.5t29 -3t29 -11.5t25.5 -23t17.5 -37.5l185 -652q1 -2 1 -7zM336 653q-5 18 -19 18
q-15 0 -20 -18l-91 -329h221zM477 933q-3 -35 -17.5 -61.5t-37 -44t-51 -26.5t-57.5 -9t-57.5 9t-51 26.5t-37 44t-17.5 61.5v4q0 13 11 13h37q14 0 15 -16q2 -20 11.5 -35t23 -25t30.5 -15t35 -5t35 5t30.5 15t23 25t11.5 35q1 16 15 16h37q11 0 11 -13v-4z" />
    <glyph glyph-name="abreve" unicode="&#x103;" horiz-adv-x="519" 
d="M451 20q0 -8 -6 -14t-14 -6h-46q-8 0 -14 6t-6 14v22q-36 -21 -74 -35t-80 -14q-32 0 -61.5 7.5t-52 26.5t-36 50t-13.5 78v12q0 40 12.5 70.5t41 51t74.5 30.5t113 10h74v40q0 63 -24 88t-83 25q-49 0 -86 -2.5t-67 -5.5h-5q-7 0 -12.5 3t-5.5 13v35q0 16 21 19
q31 5 67.5 9t87.5 4q104 0 149.5 -50t45.5 -138v-349zM363 266h-74q-45 0 -75 -5.5t-47 -17t-24 -30t-7 -45.5v-12q0 -54 24 -72.5t68 -18.5q35 0 67 10t68 30v161zM423 762q-3 -35 -17.5 -61.5t-37 -44t-51 -26.5t-57.5 -9t-57.5 9t-51 26.5t-37 44t-17.5 61.5v4
q0 13 11 13h37q14 0 15 -16q2 -20 11.5 -35t23 -25t30.5 -15t35 -5t35 5t30.5 15t23 25t11.5 35q1 16 15 16h37q11 0 11 -13v-4z" />
    <glyph glyph-name="Aogonek" unicode="&#x104;" horiz-adv-x="633" 
d="M187 245l-64 -230q-2 -6 -7 -10.5t-11 -4.5h-59q-17 0 -17 16q0 5 1 7l185 651q6 23 17.5 37.5t25.5 23t29.5 12t29.5 3.5t29 -3t29 -11.5t25.5 -23t17.5 -37.5l183 -646q2 -8 2 -11q0 -6 -2.5 -9.5t-5.5 -5.5l-78 -45q-26 -15 -40 -28.5t-14 -33.5q0 -19 15.5 -28.5
t53.5 -9.5q24 0 43 3.5t24 3.5t5 -8v-36q0 -8 -11 -11q-2 -1 -21 -5.5t-51 -4.5q-37 0 -62 7.5t-40.5 20.5t-22 30.5t-6.5 37.5q0 19 5.5 33t15.5 25t24 20.5t31 19.5l44 26l-64 225h-259zM336 653q-5 18 -19 18q-15 0 -20 -18l-91 -329h221z" />
    <glyph glyph-name="aogonek" unicode="&#x105;" horiz-adv-x="519" 
d="M376 -42q-26 -18 -40 -32t-14 -35q0 -15 10.5 -24t45.5 -9q24 0 41.5 5t22.5 5t5 -8v-39q0 -8 -11 -11q-2 -1 -21.5 -5.5t-47.5 -4.5q-68 0 -93.5 26.5t-25.5 66.5q0 33 17.5 53.5t47.5 40.5l52 33v22q-36 -21 -74 -35t-80 -14q-32 0 -61.5 7.5t-52 26.5t-36 50t-13.5 78
v12q0 40 12.5 70.5t41 51t74.5 30.5t113 10h74v40q0 63 -24 88t-83 25q-49 0 -86 -2.5t-67 -5.5h-5q-7 0 -12.5 3t-5.5 13v35q0 16 21 19q31 5 67.5 9t87.5 4q104 0 149.5 -50t45.5 -138v-349q0 -5 -1.5 -8.5t-6.5 -7.5zM363 266h-74q-45 0 -75 -5.5t-47 -17t-24 -30
t-7 -45.5v-12q0 -54 24 -72.5t68 -18.5q35 0 67 10t68 30v161z" />
    <glyph glyph-name="Cacute" unicode="&#x106;" horiz-adv-x="545" 
d="M510 26q0 -9 -6 -13.5t-14 -6.5q-16 -3 -32 -5.5t-35 -4t-43 -2.5t-56 -1q-46 0 -93 14t-85 49.5t-62 95t-24 150.5v139q0 92 24 151.5t62 94.5t85 49t93 14q48 0 91.5 -5.5t76.5 -10.5q16 -2 16 -13v-51q0 -5 -2 -8t-10 -3h-3q-14 1 -33.5 2.5t-42 3t-46.5 2.5t-46 1
q-37 0 -68.5 -11.5t-55 -38t-37 -70t-13.5 -107.5v-139q0 -63 13.5 -106.5t37 -70t55 -38.5t68.5 -12q21 0 44.5 1t46 2t41.5 2.5t33 2.5h4q16 0 16 -16v-41zM443 943q0 -4 -4 -8l-113 -126q-7 -8 -11 -11.5t-12 -3.5h-54q-9 0 -9 7q0 6 4 10l98 124q7 8 11 11.5t13 3.5h66
q11 0 11 -7z" />
    <glyph glyph-name="cacute" unicode="&#x107;" horiz-adv-x="452" 
d="M408 26q0 -10 -4 -15t-16 -7q-25 -5 -57.5 -8t-67.5 -3q-51 0 -90.5 17.5t-67 49t-41.5 76.5t-14 100v78q0 55 14 100t41 76.5t67 49t91 17.5q35 0 67.5 -3t57.5 -8q12 -2 16 -6.5t4 -15.5v-36q0 -8 -5 -11.5t-12 -3.5h-4q-33 4 -60 5.5t-64 1.5q-60 0 -92.5 -40.5
t-32.5 -125.5v-78q0 -85 32 -125.5t93 -40.5q37 0 64 1.5t60 5.5h4q7 0 12 -3.5t5 -11.5v-36zM384 772q0 -4 -4 -8l-113 -126q-7 -8 -11 -11.5t-12 -3.5h-54q-9 0 -9 7q0 6 4 10l98 124q7 8 11 11.5t13 3.5h66q11 0 11 -7z" />
    <glyph glyph-name="Ccircumflex" unicode="&#x108;" horiz-adv-x="545" 
d="M510 26q0 -9 -6 -13.5t-14 -6.5q-16 -3 -32 -5.5t-35 -4t-43 -2.5t-56 -1q-46 0 -93 14t-85 49.5t-62 95t-24 150.5v139q0 92 24 151.5t62 94.5t85 49t93 14q48 0 91.5 -5.5t76.5 -10.5q16 -2 16 -13v-51q0 -5 -2 -8t-10 -3h-3q-14 1 -33.5 2.5t-42 3t-46.5 2.5t-46 1
q-37 0 -68.5 -11.5t-55 -38t-37 -70t-13.5 -107.5v-139q0 -63 13.5 -106.5t37 -70t55 -38.5t68.5 -12q21 0 44.5 1t46 2t41.5 2.5t33 2.5h4q16 0 16 -16v-41zM473 801q0 -7 -9 -7h-52q-8 0 -12 3.5t-11 11.5l-82 97l-83 -97q-7 -8 -11 -11.5t-12 -3.5h-52q-9 0 -9 7
q0 6 4 10l96 124q7 8 11 11.5t13 3.5h85q9 0 13.5 -3.5t11.5 -11.5l95 -124q4 -4 4 -10z" />
    <glyph glyph-name="ccircumflex" unicode="&#x109;" horiz-adv-x="452" 
d="M408 26q0 -10 -4 -15t-16 -7q-25 -5 -57.5 -8t-67.5 -3q-51 0 -90.5 17.5t-67 49t-41.5 76.5t-14 100v78q0 55 14 100t41 76.5t67 49t91 17.5q35 0 67.5 -3t57.5 -8q12 -2 16 -6.5t4 -15.5v-36q0 -8 -5 -11.5t-12 -3.5h-4q-33 4 -60 5.5t-64 1.5q-60 0 -92.5 -40.5
t-32.5 -125.5v-78q0 -85 32 -125.5t93 -40.5q37 0 64 1.5t60 5.5h4q7 0 12 -3.5t5 -11.5v-36zM414 630q0 -7 -9 -7h-52q-8 0 -12 3.5t-11 11.5l-82 97l-83 -97q-7 -8 -11 -11.5t-12 -3.5h-52q-9 0 -9 7q0 6 4 10l96 124q7 8 11 11.5t13 3.5h85q9 0 13.5 -3.5t11.5 -11.5
l95 -124q4 -4 4 -10z" />
    <glyph glyph-name="Cdotaccent" unicode="&#x10a;" horiz-adv-x="545" 
d="M510 26q0 -9 -6 -13.5t-14 -6.5q-16 -3 -32 -5.5t-35 -4t-43 -2.5t-56 -1q-46 0 -93 14t-85 49.5t-62 95t-24 150.5v139q0 92 24 151.5t62 94.5t85 49t93 14q48 0 91.5 -5.5t76.5 -10.5q16 -2 16 -13v-51q0 -5 -2 -8t-10 -3h-3q-14 1 -33.5 2.5t-42 3t-46.5 2.5t-46 1
q-37 0 -68.5 -11.5t-55 -38t-37 -70t-13.5 -107.5v-139q0 -63 13.5 -106.5t37 -70t55 -38.5t68.5 -12q21 0 44.5 1t46 2t41.5 2.5t33 2.5h4q16 0 16 -16v-41zM352 814q0 -8 -5.5 -14t-13.5 -6h-48q-8 0 -14 6t-6 14v84q0 8 6 13.5t14 5.5h48q8 0 13.5 -5.5t5.5 -13.5v-84z
" />
    <glyph glyph-name="cdotaccent" unicode="&#x10b;" horiz-adv-x="452" 
d="M408 26q0 -10 -4 -15t-16 -7q-25 -5 -57.5 -8t-67.5 -3q-51 0 -90.5 17.5t-67 49t-41.5 76.5t-14 100v78q0 55 14 100t41 76.5t67 49t91 17.5q35 0 67.5 -3t57.5 -8q12 -2 16 -6.5t4 -15.5v-36q0 -8 -5 -11.5t-12 -3.5h-4q-33 4 -60 5.5t-64 1.5q-60 0 -92.5 -40.5
t-32.5 -125.5v-78q0 -85 32 -125.5t93 -40.5q37 0 64 1.5t60 5.5h4q7 0 12 -3.5t5 -11.5v-36zM299 658q0 -8 -5.5 -14t-13.5 -6h-48q-8 0 -14 6t-6 14v84q0 8 6 13.5t14 5.5h48q8 0 13.5 -5.5t5.5 -13.5v-84z" />
    <glyph glyph-name="Ccaron" unicode="&#x10c;" horiz-adv-x="545" 
d="M510 26q0 -9 -6 -13.5t-14 -6.5q-16 -3 -32 -5.5t-35 -4t-43 -2.5t-56 -1q-46 0 -93 14t-85 49.5t-62 95t-24 150.5v139q0 92 24 151.5t62 94.5t85 49t93 14q48 0 91.5 -5.5t76.5 -10.5q16 -2 16 -13v-51q0 -5 -2 -8t-10 -3h-3q-14 1 -33.5 2.5t-42 3t-46.5 2.5t-46 1
q-37 0 -68.5 -11.5t-55 -38t-37 -70t-13.5 -107.5v-139q0 -63 13.5 -106.5t37 -70t55 -38.5t68.5 -12q21 0 44.5 1t46 2t41.5 2.5t33 2.5h4q16 0 16 -16v-41zM475 943q0 -6 -4 -10l-97 -124q-7 -8 -11.5 -11.5t-13.5 -3.5h-85q-9 0 -13 3.5t-11 11.5l-98 124q-4 4 -4 10
q0 7 9 7h54q8 0 12 -4t11 -12l83 -96l82 96q7 8 11 12t12 4h54q9 0 9 -7z" />
    <glyph glyph-name="ccaron" unicode="&#x10d;" horiz-adv-x="452" 
d="M408 26q0 -10 -4 -15t-16 -7q-25 -5 -57.5 -8t-67.5 -3q-51 0 -90.5 17.5t-67 49t-41.5 76.5t-14 100v78q0 55 14 100t41 76.5t67 49t91 17.5q35 0 67.5 -3t57.5 -8q12 -2 16 -6.5t4 -15.5v-36q0 -8 -5 -11.5t-12 -3.5h-4q-33 4 -60 5.5t-64 1.5q-60 0 -92.5 -40.5
t-32.5 -125.5v-78q0 -85 32 -125.5t93 -40.5q37 0 64 1.5t60 5.5h4q7 0 12 -3.5t5 -11.5v-36zM417 772q0 -6 -4 -10l-97 -124q-7 -8 -11.5 -11.5t-13.5 -3.5h-85q-9 0 -13 3.5t-11 11.5l-98 124q-4 4 -4 10q0 7 9 7h54q8 0 12 -4t11 -12l83 -96l82 96q7 8 11 12t12 4h54
q9 0 9 -7z" />
    <glyph glyph-name="Dcaron" unicode="&#x10e;" horiz-adv-x="641" 
d="M584 304q0 -80 -21.5 -139t-61 -97t-95.5 -56.5t-125 -18.5q-29 0 -56.5 1t-52 2.5t-43.5 3t-30 3.5q-21 3 -21 25v687q0 22 21 25q11 2 30 3.5t43.5 3t52 2.5t56.5 1q69 0 125 -18t95.5 -56.5t61 -97t21.5 -139.5v-135zM493 439q0 68 -16.5 113t-45 71.5t-67 37.5
t-83.5 11q-35 0 -60.5 -0.5t-50.5 -2.5v-596q24 -2 50 -2h61q45 0 83.5 11t67 38t45 71.5t16.5 112.5v135zM489 943q0 -6 -4 -10l-97 -124q-7 -8 -11.5 -11.5t-13.5 -3.5h-85q-9 0 -13 3.5t-11 11.5l-98 124q-4 4 -4 10q0 7 9 7h54q8 0 12 -4t11 -12l83 -96l82 96q7 8 11 12
t12 4h54q9 0 9 -7z" />
    <glyph glyph-name="dcaron" unicode="&#x10f;" horiz-adv-x="643" 
d="M668 743q0 -2 -2 -8l-75 -189q-4 -10 -7.5 -14.5t-11.5 -4.5h-41q-12 0 -12 12q0 5 1 7l57 189q6 19 20 19h58q13 0 13 -11zM473 33q0 -10 -3.5 -15.5t-17.5 -7.5q-47 -9 -92.5 -13t-91.5 -4q-56 0 -97 17.5t-68 49.5t-40 78t-13 102v72q0 118 54 181.5t164 63.5
q23 0 55.5 -2.5t61.5 -7.5v186q0 8 5.5 13.5t13.5 5.5h51q8 0 13 -5.5t5 -13.5v-700zM385 473q-25 5 -59 6t-58 1q-37 0 -62 -11t-40 -32.5t-21.5 -53t-6.5 -71.5v-72q0 -82 28 -126t102 -44q26 0 58.5 2t58.5 4v397z" />
    <glyph glyph-name="Dcroat" unicode="&#x110;" horiz-adv-x="641" 
d="M584 304q0 -80 -21.5 -139t-61 -97t-95.5 -56.5t-125 -18.5q-29 0 -56.5 1t-52 2.5t-43.5 3t-30 3.5q-21 3 -21 25v319h-38q-8 0 -14 6t-6 14v38q0 8 6 14t14 6h38v290q0 22 21 25q11 2 30 3.5t43.5 3t52 2.5t56.5 1q69 0 125 -18t95.5 -56.5t61 -97t21.5 -139.5v-135z
M493 439q0 68 -16.5 113t-45 71.5t-67 37.5t-83.5 11q-35 0 -60.5 -0.5t-50.5 -2.5v-244h103q8 0 14 -6t6 -14v-38q0 -8 -6 -14t-14 -6h-103v-274q24 -2 50 -2h61q45 0 83.5 11t67 38t45 71.5t16.5 112.5v135z" />
    <glyph glyph-name="dcroat" unicode="&#x111;" horiz-adv-x="541" 
d="M473 33q0 -10 -3.5 -15.5t-17.5 -7.5q-47 -9 -92.5 -13t-91.5 -4q-56 0 -97 17.5t-68 49.5t-40 78t-13 102v72q0 118 54 181.5t164 63.5q23 0 55.5 -2.5t61.5 -7.5v73h-160q-8 0 -14 6t-6 14v34q0 8 6 14t14 6h160v39q0 8 5.5 13.5t13.5 5.5h51q8 0 13 -5.5t5 -13.5v-39
h35q8 0 14 -6t6 -14v-34q0 -8 -6 -14t-14 -6h-35v-587zM385 473q-25 5 -59 6t-58 1q-37 0 -62 -11t-40 -32.5t-21.5 -53t-6.5 -71.5v-72q0 -82 28 -126t102 -44q26 0 58.5 2t58.5 4v397z" />
    <glyph glyph-name="Emacron" unicode="&#x112;" horiz-adv-x="551" 
d="M496 12q0 -5 -2.5 -9t-7.5 -5q-14 -2 -38 -2.5t-51.5 -1.5t-55.5 -1h-50q-106 0 -159.5 43t-53.5 143v385q0 100 53.5 143t159.5 43q22 0 49.5 -0.5t54.5 -1t51 -2l40 -2.5q5 -1 7.5 -5t2.5 -9v-50q0 -12 -11 -12h-193q-40 0 -64 -5.5t-37 -18t-17.5 -32.5t-4.5 -48v-139
h307q8 0 14 -6t6 -14v-38q0 -8 -6 -14t-14 -6h-307v-168q0 -29 4.5 -48.5t17.5 -32t37 -18t64 -5.5h193q11 0 11 -12v-51zM463 836q0 -8 -6 -12.5t-14 -4.5h-288q-8 0 -14 4.5t-6 12.5v34q0 8 6 12.5t14 4.5h288q8 0 14 -4.5t6 -12.5v-34z" />
    <glyph glyph-name="emacron" unicode="&#x113;" horiz-adv-x="544" 
d="M492 269q0 -22 -19 -22h-335v-14q0 -89 35 -126t104 -37q44 0 93.5 3t84.5 8h5q6 0 11 -3t5 -11v-34q0 -10 -4 -15.5t-16 -7.5q-43 -8 -85.5 -12.5t-93.5 -4.5q-43 0 -84 11.5t-72.5 39t-51 73.5t-19.5 116v90q0 108 57 171t165 63q55 0 96 -16.5t68.5 -47t41.5 -74
t14 -96.5v-54zM403 323q0 85 -32.5 121t-98.5 36q-65 0 -99.5 -38t-34.5 -119v-9h265v9zM436 666q0 -8 -6 -12.5t-14 -4.5h-288q-8 0 -14 4.5t-6 12.5v34q0 8 6 12.5t14 4.5h288q8 0 14 -4.5t6 -12.5v-34z" />
    <glyph glyph-name="Ebreve" unicode="&#x114;" horiz-adv-x="551" 
d="M496 12q0 -5 -2.5 -9t-7.5 -5q-14 -2 -38 -2.5t-51.5 -1.5t-55.5 -1h-50q-106 0 -159.5 43t-53.5 143v385q0 100 53.5 143t159.5 43q22 0 49.5 -0.5t54.5 -1t51 -2l40 -2.5q5 -1 7.5 -5t2.5 -9v-50q0 -12 -11 -12h-193q-40 0 -64 -5.5t-37 -18t-17.5 -32.5t-4.5 -48v-139
h307q8 0 14 -6t6 -14v-38q0 -8 -6 -14t-14 -6h-307v-168q0 -29 4.5 -48.5t17.5 -32t37 -18t64 -5.5h193q11 0 11 -12v-51zM470 935q-3 -35 -17.5 -61.5t-37 -44t-51 -26.5t-57.5 -9t-57.5 9t-51 26.5t-37 44t-17.5 61.5v4q0 13 11 13h37q14 0 15 -16q2 -20 11.5 -35t23 -25
t30.5 -15t35 -5t35 5t30.5 15t23 25t11.5 35q1 16 15 16h37q11 0 11 -13v-4z" />
    <glyph glyph-name="ebreve" unicode="&#x115;" horiz-adv-x="544" 
d="M492 269q0 -22 -19 -22h-335v-14q0 -89 35 -126t104 -37q44 0 93.5 3t84.5 8h5q6 0 11 -3t5 -11v-34q0 -10 -4 -15.5t-16 -7.5q-43 -8 -85.5 -12.5t-93.5 -4.5q-43 0 -84 11.5t-72.5 39t-51 73.5t-19.5 116v90q0 108 57 171t165 63q55 0 96 -16.5t68.5 -47t41.5 -74
t14 -96.5v-54zM403 323q0 85 -32.5 121t-98.5 36q-65 0 -99.5 -38t-34.5 -119v-9h265v9zM434 763q-3 -35 -17.5 -61.5t-37 -44t-51 -26.5t-57.5 -9t-57.5 9t-51 26.5t-37 44t-17.5 61.5v4q0 13 11 13h37q14 0 15 -16q2 -20 11.5 -35t23 -25t30.5 -15t35 -5t35 5t30.5 15
t23 25t11.5 35q1 16 15 16h37q11 0 11 -13v-4z" />
    <glyph glyph-name="Edotaccent" unicode="&#x116;" horiz-adv-x="551" 
d="M496 12q0 -5 -2.5 -9t-7.5 -5q-14 -2 -38 -2.5t-51.5 -1.5t-55.5 -1h-50q-106 0 -159.5 43t-53.5 143v385q0 100 53.5 143t159.5 43q22 0 49.5 -0.5t54.5 -1t51 -2l40 -2.5q5 -1 7.5 -5t2.5 -9v-50q0 -12 -11 -12h-193q-40 0 -64 -5.5t-37 -18t-17.5 -32.5t-4.5 -48v-139
h307q8 0 14 -6t6 -14v-38q0 -8 -6 -14t-14 -6h-307v-168q0 -29 4.5 -48.5t17.5 -32t37 -18t64 -5.5h193q11 0 11 -12v-51zM343 829q0 -8 -5.5 -14t-13.5 -6h-48q-8 0 -14 6t-6 14v84q0 8 6 13.5t14 5.5h48q8 0 13.5 -5.5t5.5 -13.5v-84z" />
    <glyph glyph-name="edotaccent" unicode="&#x117;" horiz-adv-x="544" 
d="M492 269q0 -22 -19 -22h-335v-14q0 -89 35 -126t104 -37q44 0 93.5 3t84.5 8h5q6 0 11 -3t5 -11v-34q0 -10 -4 -15.5t-16 -7.5q-43 -8 -85.5 -12.5t-93.5 -4.5q-43 0 -84 11.5t-72.5 39t-51 73.5t-19.5 116v90q0 108 57 171t165 63q55 0 96 -16.5t68.5 -47t41.5 -74
t14 -96.5v-54zM403 323q0 85 -32.5 121t-98.5 36q-65 0 -99.5 -38t-34.5 -119v-9h265v9zM316 658q0 -8 -5.5 -14t-13.5 -6h-48q-8 0 -14 6t-6 14v84q0 8 6 13.5t14 5.5h48q8 0 13.5 -5.5t5.5 -13.5v-84z" />
    <glyph glyph-name="Eogonek" unicode="&#x118;" horiz-adv-x="551" 
d="M496 12q0 -5 -2.5 -9t-7.5 -5q-8 -1 -18 -1.5t-22 -0.5l-54 -38q-26 -17 -40 -29.5t-14 -32.5q0 -19 15.5 -28.5t53.5 -9.5q24 0 45 5t26 5t5 -8v-39q0 -8 -11 -11q-2 -1 -23 -5.5t-53 -4.5q-37 0 -62 7.5t-40.5 20.5t-22 30.5t-6.5 37.5q0 19 6.5 34t16.5 26t21 18.5
t20 12.5l10 6h-48q-106 0 -159.5 43t-53.5 143v385q0 100 53.5 143t159.5 43q22 0 49.5 -0.5t54.5 -1t51 -2l40 -2.5q5 -1 7.5 -5t2.5 -9v-50q0 -12 -11 -12h-193q-40 0 -64 -5.5t-37 -18t-17.5 -32.5t-4.5 -48v-139h307q8 0 14 -6t6 -14v-38q0 -8 -6 -14t-14 -6h-307v-168
q0 -29 4.5 -48.5t17.5 -32t37 -18t64 -5.5h193q11 0 11 -12v-51v0z" />
    <glyph glyph-name="eogonek" unicode="&#x119;" horiz-adv-x="544" 
d="M403 323q0 85 -32.5 121t-98.5 36q-65 0 -99.5 -38t-34.5 -119v-9h265v9zM337 -5q-14 -1 -29 -1.5t-31 -0.5q-43 0 -84 11.5t-72.5 39t-51 73.5t-19.5 116v90q0 108 57 171t165 63q55 0 96 -16.5t68.5 -47t41.5 -74t14 -96.5v-54q0 -22 -19 -22h-335v-14q0 -89 35 -126
t104 -37q36 0 69.5 2t60 4t43 4t18.5 2q6 0 7 -4t1 -11v-34q0 -6 -1 -10.5t-8 -9.5l-80 -55q-26 -17 -40 -29.5t-14 -32.5q0 -19 15.5 -28.5t53.5 -9.5q24 0 45 5t26 5t5 -8v-39q0 -8 -11 -11q-2 -1 -23 -5.5t-53 -4.5q-37 0 -62 7.5t-40.5 20.5t-22 30.5t-6.5 37.5
q0 19 7 34t16.5 26t20.5 18.5t20 12.5z" />
    <glyph glyph-name="Ecaron" unicode="&#x11a;" horiz-adv-x="551" 
d="M496 12q0 -5 -2.5 -9t-7.5 -5q-14 -2 -38 -2.5t-51.5 -1.5t-55.5 -1h-50q-106 0 -159.5 43t-53.5 143v385q0 100 53.5 143t159.5 43q22 0 49.5 -0.5t54.5 -1t51 -2l40 -2.5q5 -1 7.5 -5t2.5 -9v-50q0 -12 -11 -12h-193q-40 0 -64 -5.5t-37 -18t-17.5 -32.5t-4.5 -48v-139
h307q8 0 14 -6t6 -14v-38q0 -8 -6 -14t-14 -6h-307v-168q0 -29 4.5 -48.5t17.5 -32t37 -18t64 -5.5h193q11 0 11 -12v-51zM455 943q0 -6 -4 -10l-97 -124q-7 -8 -11.5 -11.5t-13.5 -3.5h-85q-9 0 -13 3.5t-11 11.5l-98 124q-4 4 -4 10q0 7 9 7h54q8 0 12 -4t11 -12l83 -96
l82 96q7 8 11 12t12 4h54q9 0 9 -7z" />
    <glyph glyph-name="ecaron" unicode="&#x11b;" horiz-adv-x="544" 
d="M492 269q0 -22 -19 -22h-335v-14q0 -89 35 -126t104 -37q44 0 93.5 3t84.5 8h5q6 0 11 -3t5 -11v-34q0 -10 -4 -15.5t-16 -7.5q-43 -8 -85.5 -12.5t-93.5 -4.5q-43 0 -84 11.5t-72.5 39t-51 73.5t-19.5 116v90q0 108 57 171t165 63q55 0 96 -16.5t68.5 -47t41.5 -74
t14 -96.5v-54zM403 323q0 85 -32.5 121t-98.5 36q-65 0 -99.5 -38t-34.5 -119v-9h265v9zM441 772q0 -6 -4 -10l-97 -124q-7 -8 -11.5 -11.5t-13.5 -3.5h-85q-9 0 -13 3.5t-11 11.5l-98 124q-4 4 -4 10q0 7 9 7h54q8 0 12 -4t11 -12l83 -96l82 96q7 8 11 12t12 4h54q9 0 9 -7
z" />
    <glyph glyph-name="Gcircumflex" unicode="&#x11c;" horiz-adv-x="612" 
d="M534 30q0 -19 -18 -22q-37 -6 -82.5 -10.5t-116.5 -4.5q-47 0 -93.5 16.5t-83 53t-59.5 96t-23 145.5v134q0 91 24 151t62 96t86 50.5t96 14.5q70 0 115.5 -4.5t74.5 -9.5q7 -1 12 -4t5 -11v-50q0 -10 -13 -10h-4q-22 2 -42.5 3.5t-42.5 2t-47.5 1t-57.5 0.5
q-35 0 -67 -10.5t-56.5 -37t-39 -71t-14.5 -111.5v-134q0 -62 13 -105.5t36 -71.5t53.5 -40.5t65.5 -12.5q46 0 77 2t49 4v286q0 8 5 14t13 6h54q8 0 13.5 -6t5.5 -14v-336zM486 801q0 -7 -9 -7h-52q-8 0 -12 3.5t-11 11.5l-82 97l-83 -97q-7 -8 -11 -11.5t-12 -3.5h-52
q-9 0 -9 7q0 6 4 10l96 124q7 8 11 11.5t13 3.5h85q9 0 13.5 -3.5t11.5 -11.5l95 -124q4 -4 4 -10z" />
    <glyph glyph-name="gcircumflex" unicode="&#x11d;" horiz-adv-x="559" 
d="M523 502q0 -10 -5 -13.5t-13 -5.5l-36 -7q14 -14 24 -38t10 -65v-8q0 -83 -53 -127t-169 -44q-40 0 -67 5.5t-49 14.5q-25 -12 -25 -34q0 -13 7 -20t24 -12l149 -38q37 -9 71.5 -20t61.5 -27.5t43 -40.5t16 -59v-8q0 -72 -52.5 -113.5t-175.5 -41.5q-119 0 -174.5 42.5
t-55.5 116.5v9q0 42 19 75t44 52l-7 3q-24 11 -35 33t-11 45v1q0 20 10 40t31 32q-23 22 -34.5 50t-11.5 66v8q0 33 10.5 65t36 57t68 40t107.5 15h219q9 0 16 -6.5t7 -15.5v-26zM416 373q0 22 -6 42t-21 34t-41.5 22.5t-66.5 8.5q-42 0 -68.5 -9t-41 -23.5t-20 -34
t-5.5 -40.5v-8q0 -17 5 -35t19.5 -33t41 -24.5t69.5 -9.5q40 0 66.5 7.5t41.5 21t21 32t6 41.5v8zM424 -37q0 29 -27.5 45t-94.5 33l-113 29q-22 -19 -35.5 -41t-13.5 -61v-9q0 -21 7 -38t23.5 -28.5t44 -18t69.5 -6.5q43 0 70 6t42.5 17t21.5 27t6 37v8zM455 630
q0 -7 -9 -7h-52q-8 0 -12 3.5t-11 11.5l-82 97l-83 -97q-7 -8 -11 -11.5t-12 -3.5h-52q-9 0 -9 7q0 6 4 10l96 124q7 8 11 11.5t13 3.5h85q9 0 13.5 -3.5t11.5 -11.5l95 -124q4 -4 4 -10z" />
    <glyph glyph-name="Gbreve" unicode="&#x11e;" horiz-adv-x="612" 
d="M534 30q0 -19 -18 -22q-37 -6 -82.5 -10.5t-116.5 -4.5q-47 0 -93.5 16.5t-83 53t-59.5 96t-23 145.5v134q0 91 24 151t62 96t86 50.5t96 14.5q70 0 115.5 -4.5t74.5 -9.5q7 -1 12 -4t5 -11v-50q0 -10 -13 -10h-4q-22 2 -42.5 3.5t-42.5 2t-47.5 1t-57.5 0.5
q-35 0 -67 -10.5t-56.5 -37t-39 -71t-14.5 -111.5v-134q0 -62 13 -105.5t36 -71.5t53.5 -40.5t65.5 -12.5q46 0 77 2t49 4v286q0 8 5 14t13 6h54q8 0 13.5 -6t5.5 -14v-336zM469 933q-3 -35 -17.5 -61.5t-37 -44t-51 -26.5t-57.5 -9t-57.5 9t-51 26.5t-37 44t-17.5 61.5v4
q0 13 11 13h37q14 0 15 -16q2 -20 11.5 -35t23 -25t30.5 -15t35 -5t35 5t30.5 15t23 25t11.5 35q1 16 15 16h37q11 0 11 -13v-4z" />
    <glyph glyph-name="gbreve" unicode="&#x11f;" horiz-adv-x="559" 
d="M523 502q0 -10 -5 -13.5t-13 -5.5l-36 -7q14 -14 24 -38t10 -65v-8q0 -83 -53 -127t-169 -44q-40 0 -67 5.5t-49 14.5q-25 -12 -25 -34q0 -13 7 -20t24 -12l149 -38q37 -9 71.5 -20t61.5 -27.5t43 -40.5t16 -59v-8q0 -72 -52.5 -113.5t-175.5 -41.5q-119 0 -174.5 42.5
t-55.5 116.5v9q0 42 19 75t44 52l-7 3q-24 11 -35 33t-11 45v1q0 20 10 40t31 32q-23 22 -34.5 50t-11.5 66v8q0 33 10.5 65t36 57t68 40t107.5 15h219q9 0 16 -6.5t7 -15.5v-26zM416 373q0 22 -6 42t-21 34t-41.5 22.5t-66.5 8.5q-42 0 -68.5 -9t-41 -23.5t-20 -34
t-5.5 -40.5v-8q0 -17 5 -35t19.5 -33t41 -24.5t69.5 -9.5q40 0 66.5 7.5t41.5 21t21 32t6 41.5v8zM424 -37q0 29 -27.5 45t-94.5 33l-113 29q-22 -19 -35.5 -41t-13.5 -61v-9q0 -21 7 -38t23.5 -28.5t44 -18t69.5 -6.5q43 0 70 6t42.5 17t21.5 27t6 37v8zM443 762
q-3 -35 -17.5 -61.5t-37 -44t-51 -26.5t-57.5 -9t-57.5 9t-51 26.5t-37 44t-17.5 61.5v4q0 13 11 13h37q14 0 15 -16q2 -20 11.5 -35t23 -25t30.5 -15t35 -5t35 5t30.5 15t23 25t11.5 35q1 16 15 16h37q11 0 11 -13v-4z" />
    <glyph glyph-name="Gdotaccent" unicode="&#x120;" horiz-adv-x="612" 
d="M534 30q0 -19 -18 -22q-37 -6 -82.5 -10.5t-116.5 -4.5q-47 0 -93.5 16.5t-83 53t-59.5 96t-23 145.5v134q0 91 24 151t62 96t86 50.5t96 14.5q70 0 115.5 -4.5t74.5 -9.5q7 -1 12 -4t5 -11v-50q0 -10 -13 -10h-4q-22 2 -42.5 3.5t-42.5 2t-47.5 1t-57.5 0.5
q-35 0 -67 -10.5t-56.5 -37t-39 -71t-14.5 -111.5v-134q0 -62 13 -105.5t36 -71.5t53.5 -40.5t65.5 -12.5q46 0 77 2t49 4v286q0 8 5 14t13 6h54q8 0 13.5 -6t5.5 -14v-336zM365 814q0 -8 -5.5 -14t-13.5 -6h-48q-8 0 -14 6t-6 14v84q0 8 6 13.5t14 5.5h48q8 0 13.5 -5.5
t5.5 -13.5v-84z" />
    <glyph glyph-name="gdotaccent" unicode="&#x121;" horiz-adv-x="559" 
d="M523 502q0 -10 -5 -13.5t-13 -5.5l-36 -7q14 -14 24 -38t10 -65v-8q0 -83 -53 -127t-169 -44q-40 0 -67 5.5t-49 14.5q-25 -12 -25 -34q0 -13 7 -20t24 -12l149 -38q37 -9 71.5 -20t61.5 -27.5t43 -40.5t16 -59v-8q0 -72 -52.5 -113.5t-175.5 -41.5q-119 0 -174.5 42.5
t-55.5 116.5v9q0 42 19 75t44 52l-7 3q-24 11 -35 33t-11 45v1q0 20 10 40t31 32q-23 22 -34.5 50t-11.5 66v8q0 33 10.5 65t36 57t68 40t107.5 15h219q9 0 16 -6.5t7 -15.5v-26zM416 373q0 22 -6 42t-21 34t-41.5 22.5t-66.5 8.5q-42 0 -68.5 -9t-41 -23.5t-20 -34
t-5.5 -40.5v-8q0 -17 5 -35t19.5 -33t41 -24.5t69.5 -9.5q40 0 66.5 7.5t41.5 21t21 32t6 41.5v8zM424 -37q0 29 -27.5 45t-94.5 33l-113 29q-22 -19 -35.5 -41t-13.5 -61v-9q0 -21 7 -38t23.5 -28.5t44 -18t69.5 -6.5q43 0 70 6t42.5 17t21.5 27t6 37v8zM334 658
q0 -8 -5.5 -14t-13.5 -6h-48q-8 0 -14 6t-6 14v84q0 8 6 13.5t14 5.5h48q8 0 13.5 -5.5t5.5 -13.5v-84z" />
    <glyph glyph-name="Gcommaaccent" unicode="&#x122;" horiz-adv-x="612" 
d="M360 -49q11 0 11 -11l-1 -8l-54 -109q-5 -10 -9 -14.5t-15 -4.5h-41q-3 0 -6 1.5t-3 6.5q0 4 1 8l28 112q4 19 20 19h69zM534 30q0 -19 -18 -22q-37 -6 -82.5 -10.5t-116.5 -4.5q-47 0 -93.5 16.5t-83 53t-59.5 96t-23 145.5v134q0 91 24 151t62 96t86 50.5t96 14.5
q70 0 115.5 -4.5t74.5 -9.5q7 -1 12 -4t5 -11v-50q0 -10 -13 -10h-4q-22 2 -42.5 3.5t-42.5 2t-47.5 1t-57.5 0.5q-35 0 -67 -10.5t-56.5 -37t-39 -71t-14.5 -111.5v-134q0 -62 13 -105.5t36 -71.5t53.5 -40.5t65.5 -12.5q46 0 77 2t49 4v286q0 8 5 14t13 6h54q8 0 13.5 -6
t5.5 -14v-336z" />
    <glyph glyph-name="gcommaaccent" unicode="&#x123;" horiz-adv-x="559" 
d="M242 605q-4 0 -8 3t-4 8t2 8l54 109q5 10 9 14.5t15 4.5h41q3 0 6 -1.5t3 -6.5q0 -4 -1 -8l-28 -112q-4 -19 -20 -19h-69zM523 502q0 -10 -5 -13.5t-13 -5.5l-36 -7q14 -14 24 -38t10 -65v-8q0 -83 -53 -127t-169 -44q-40 0 -67 5.5t-49 14.5q-25 -12 -25 -34
q0 -13 7 -20t24 -12l149 -38q37 -9 71.5 -20t61.5 -27.5t43 -40.5t16 -59v-8q0 -72 -52.5 -113.5t-175.5 -41.5q-119 0 -174.5 42.5t-55.5 116.5v9q0 42 19 75t44 52l-7 3q-24 11 -35 33t-11 45v1q0 20 10 40t31 32q-23 22 -34.5 50t-11.5 66v8q0 33 10.5 65t36 57t68 40
t107.5 15h219q9 0 16 -6.5t7 -15.5v-26zM416 373q0 22 -6 42t-21 34t-41.5 22.5t-66.5 8.5q-42 0 -68.5 -9t-41 -23.5t-20 -34t-5.5 -40.5v-8q0 -17 5 -35t19.5 -33t41 -24.5t69.5 -9.5q40 0 66.5 7.5t41.5 21t21 32t6 41.5v8zM424 -37q0 29 -27.5 45t-94.5 33l-113 29
q-22 -19 -35.5 -41t-13.5 -61v-9q0 -21 7 -38t23.5 -28.5t44 -18t69.5 -6.5q43 0 70 6t42.5 17t21.5 27t6 37v8z" />
    <glyph glyph-name="Hcircumflex" unicode="&#x124;" horiz-adv-x="680" 
d="M602 20q0 -8 -6 -14t-14 -6h-51q-8 0 -14 6t-6 14v332h-342v-332q0 -8 -6 -14t-14 -6h-51q-8 0 -14 6t-6 14v703q0 8 6 14t14 6h51q8 0 14 -6t6 -14v-290h342v290q0 8 6 14t14 6h51q8 0 14 -6t6 -14v-703zM507 800q0 -7 -9 -7h-52q-8 0 -12 3.5t-11 11.5l-82 97l-83 -97
q-7 -8 -11 -11.5t-12 -3.5h-52q-9 0 -9 7q0 6 4 10l96 124q7 8 11 11.5t13 3.5h85q9 0 13.5 -3.5t11.5 -11.5l95 -124q4 -4 4 -10z" />
    <glyph glyph-name="hcircumflex" unicode="&#x125;" horiz-adv-x="557" 
d="M489 20q0 -8 -6 -14t-14 -6h-48q-8 0 -14 6t-6 14v329q0 75 -29 103t-78 28q-12 0 -28.5 -1.5t-35.5 -5t-38.5 -9t-35.5 -12.5v-432q0 -8 -6 -14t-14 -6h-49q-8 0 -13.5 6t-5.5 14v712q0 8 5.5 14t13.5 6h50q8 0 13.5 -6t5.5 -14v-206q36 16 78.5 23.5t74.5 7.5
q40 0 73 -12t57 -37t37 -64.5t13 -94.5v-329zM456 800q0 -7 -9 -7h-52q-8 0 -12 3.5t-11 11.5l-82 97l-83 -97q-7 -8 -11 -11.5t-12 -3.5h-52q-9 0 -9 7q0 6 4 10l96 124q7 8 11 11.5t13 3.5h85q9 0 13.5 -3.5t11.5 -11.5l95 -124q4 -4 4 -10z" />
    <glyph glyph-name="Hbar" unicode="&#x126;" horiz-adv-x="680" 
d="M660 562q0 -8 -6 -14t-14 -6h-38v-522q0 -8 -6 -14t-14 -6h-51q-8 0 -14 6t-6 14v332h-342v-332q0 -8 -6 -14t-14 -6h-51q-8 0 -14 6t-6 14v522h-38q-8 0 -14 6t-6 14v41q0 8 6 14t14 6h38v100q0 8 6 14t14 6h51q8 0 14 -6t6 -14v-100h342v100q0 8 6 14t14 6h51
q8 0 14 -6t6 -14v-100h38q8 0 14 -6t6 -14v-41zM511 433v109h-342v-109h342z" />
    <glyph glyph-name="hbar" unicode="&#x127;" horiz-adv-x="557" 
d="M68 697v35q0 8 5.5 14t13.5 6h50q8 0 13.5 -6t5.5 -14v-35h161q8 0 14 -6t6 -14v-34q0 -8 -6 -14t-14 -6h-161v-97q36 16 78.5 23.5t74.5 7.5q40 0 73 -12t57 -37t37 -64.5t13 -94.5v-329q0 -8 -6 -14t-14 -6h-48q-8 0 -14 6t-6 14v329q0 75 -29 103t-78 28
q-12 0 -28.5 -1.5t-35.5 -5t-38.5 -9t-35.5 -12.5v-432q0 -8 -6 -14t-14 -6h-49q-8 0 -13.5 6t-5.5 14v603h-34q-8 0 -14 6t-6 14v34q0 8 6 14t14 6h34z" />
    <glyph glyph-name="Itilde" unicode="&#x128;" horiz-adv-x="267" 
d="M179 20q0 -8 -5 -14t-13 -6h-55q-8 0 -13 6t-5 14v704q0 8 5 13.5t13 5.5h55q8 0 13 -5.5t5 -13.5v-704zM310 891q0 -52 -21.5 -78.5t-72.5 -26.5q-17 0 -33.5 5t-30.5 16l-61 49q-18 14 -25 18t-16 4q-18 0 -24.5 -11.5t-6.5 -34.5v-21q0 -7 -5 -12t-12 -5h-31
q-7 0 -11.5 5t-4.5 12v21q0 54 25 81.5t70 27.5q17 0 31.5 -6.5t28.5 -17.5l71 -56q8 -6 18 -10t17 -4q15 0 22.5 9t7.5 35v23q0 7 5 12t12 5h31q7 0 11.5 -5t4.5 -12v-23z" />
    <glyph glyph-name="itilde" unicode="&#x129;" horiz-adv-x="247" 
d="M167 20q0 -8 -6 -14t-14 -6h-48q-8 0 -14 6t-6 14v510q0 8 6 14t14 6h48q8 0 14 -6t6 -14v-510zM301 731q0 -52 -21.5 -78.5t-72.5 -26.5q-17 0 -33.5 5t-30.5 16l-61 49q-18 14 -25 18t-16 4q-18 0 -24.5 -11.5t-6.5 -34.5v-21q0 -7 -5 -12t-12 -5h-31q-7 0 -11.5 5
t-4.5 12v21q0 54 25 81.5t70 27.5q17 0 31.5 -6.5t28.5 -17.5l71 -56q8 -6 18 -10t17 -4q15 0 22.5 9t7.5 35v23q0 7 5 12t12 5h31q7 0 11.5 -5t4.5 -12v-23z" />
    <glyph glyph-name="Imacron" unicode="&#x12a;" horiz-adv-x="267" 
d="M179 20q0 -8 -5 -14t-13 -6h-55q-8 0 -13 6t-5 14v704q0 8 5 13.5t13 5.5h55q8 0 13 -5.5t5 -13.5v-704zM297 837q0 -8 -6 -12.5t-14 -4.5h-288q-8 0 -14 4.5t-6 12.5v34q0 8 6 12.5t14 4.5h288q8 0 14 -4.5t6 -12.5v-34z" />
    <glyph glyph-name="imacron" unicode="&#x12b;" horiz-adv-x="247" 
d="M167 20q0 -8 -6 -14t-14 -6h-48q-8 0 -14 6t-6 14v510q0 8 6 14t14 6h48q8 0 14 -6t6 -14v-510zM287 666q0 -8 -6 -12.5t-14 -4.5h-288q-8 0 -14 4.5t-6 12.5v34q0 8 6 12.5t14 4.5h288q8 0 14 -4.5t6 -12.5v-34z" />
    <glyph glyph-name="Ibreve" unicode="&#x12c;" horiz-adv-x="267" 
d="M179 20q0 -8 -5 -14t-13 -6h-55q-8 0 -13 6t-5 14v704q0 8 5 13.5t13 5.5h55q8 0 13 -5.5t5 -13.5v-704zM296 934q-3 -35 -17.5 -61.5t-37 -44t-51 -26.5t-57.5 -9t-57.5 9t-51 26.5t-37 44t-17.5 61.5v4q0 13 11 13h37q14 0 15 -16q2 -20 11.5 -35t23 -25t30.5 -15
t35 -5t35 5t30.5 15t23 25t11.5 35q1 16 15 16h37q11 0 11 -13v-4z" />
    <glyph glyph-name="ibreve" unicode="&#x12d;" horiz-adv-x="247" 
d="M167 20q0 -8 -6 -14t-14 -6h-48q-8 0 -14 6t-6 14v510q0 8 6 14t14 6h48q8 0 14 -6t6 -14v-510zM286 762q-3 -35 -17.5 -61.5t-37 -44t-51 -26.5t-57.5 -9t-57.5 9t-51 26.5t-37 44t-17.5 61.5v4q0 13 11 13h37q14 0 15 -16q2 -20 11.5 -35t23 -25t30.5 -15t35 -5t35 5
t30.5 15t23 25t11.5 35q1 16 15 16h37q11 0 11 -13v-4z" />
    <glyph glyph-name="Iogonek" unicode="&#x12e;" horiz-adv-x="267" 
d="M8 -104q0 28 13.5 51t48.5 48l18 13v716q0 8 5 13.5t13 5.5h55q8 0 13 -5.5t5 -13.5v-707q0 -5 -1.5 -9t-6.5 -8l-36 -29q-18 -14 -28.5 -24t-16 -18t-7.5 -15.5t-2 -17.5q0 -19 15.5 -28.5t53.5 -9.5q24 0 45 5t26 5t5 -8v-39q0 -8 -11 -11q-2 -1 -23 -5.5t-53 -4.5
q-37 0 -62 7.5t-40.5 20.5t-22 30.5t-6.5 37.5z" />
    <glyph glyph-name="iogonek" unicode="&#x12f;" horiz-adv-x="247" 
d="M-2 -104q0 28 13.5 51t48.5 48l18 13v523q0 8 5 13.5t13 5.5h53q8 0 13 -5.5t5 -13.5v-514q0 -5 -1.5 -9t-6.5 -8l-36 -29q-18 -14 -28 -24t-15.5 -18t-7 -15.5t-1.5 -17.5q0 -19 15.5 -28.5t53.5 -9.5q24 0 45 5t26 5t5 -8v-39q0 -8 -11 -11q-2 -1 -23 -5.5t-53 -4.5
q-37 0 -62 7.5t-40.5 20.5t-22 30.5t-6.5 37.5zM169 658q0 -8 -6 -14t-14 -6h-51q-8 0 -14 6t-6 14v80q0 8 6 14t14 6h51q8 0 14 -6t6 -14v-80z" />
    <glyph glyph-name="Idotaccent" unicode="&#x130;" horiz-adv-x="267" 
d="M179 20q0 -8 -5 -14t-13 -6h-55q-8 0 -13 6t-5 14v704q0 8 5 13.5t13 5.5h55q8 0 13 -5.5t5 -13.5v-704zM177 829q0 -8 -5.5 -14t-13.5 -6h-48q-8 0 -14 6t-6 14v84q0 8 6 13.5t14 5.5h48q8 0 13.5 -5.5t5.5 -13.5v-84z" />
    <glyph glyph-name="dotlessi" unicode="&#x131;" horiz-adv-x="247" 
d="M167 20q0 -8 -6 -14t-14 -6h-48q-8 0 -14 6t-6 14v510q0 8 6 14t14 6h48q8 0 14 -6t6 -14v-510v0z" />
    <glyph glyph-name="IJ" unicode="&#x132;" horiz-adv-x="524" 
d="M179 20q0 -8 -5 -14t-13 -6h-55q-8 0 -13 6t-5 14v704q0 8 5 13.5t13 5.5h55q8 0 13 -5.5t5 -13.5v-704zM446 -37q0 -72 -36 -107.5t-119 -35.5q-17 0 -32.5 3t-20.5 5q-6 3 -6 11v37q0 8 6 12.5t14 4.5h39q40 0 52 16.5t12 53.5v761q0 8 5.5 13.5t13.5 5.5h53
q8 0 13.5 -5.5t5.5 -13.5v-761z" />
    <glyph glyph-name="ij" unicode="&#x133;" horiz-adv-x="494" 
d="M169 658q0 -8 -6 -14t-14 -6h-51q-8 0 -14 6t-6 14v80q0 8 6 14t14 6h51q8 0 14 -6t6 -14v-80zM167 20q0 -8 -6 -14t-14 -6h-48q-8 0 -14 6t-6 14v510q0 8 6 14t14 6h48q8 0 14 -6t6 -14v-510zM416 657q0 -8 -6 -13.5t-14 -5.5h-51q-8 0 -14 5.5t-6 13.5v81q0 8 6 14
t14 6h51q8 0 14 -6t6 -14v-81zM414 -64q0 -39 -8.5 -64.5t-24 -41t-39 -21.5t-53.5 -6q-15 0 -27 1t-27 3q-18 3 -18 16v37q0 14 21 14h41q29 0 38 12t9 50v594q0 8 5 14t13 6h52q8 0 13 -6t5 -14v-594z" />
    <glyph glyph-name="Jcircumflex" unicode="&#x134;" horiz-adv-x="257" 
d="M179 -37q0 -72 -36 -107.5t-119 -35.5q-17 0 -32.5 3t-20.5 5q-6 3 -6 11v37q0 8 6 12.5t14 4.5h39q40 0 52 16.5t12 53.5v761q0 8 5.5 13.5t13.5 5.5h53q8 0 13.5 -5.5t5.5 -13.5v-761zM301 801q0 -7 -9 -7h-52q-8 0 -12 3.5t-11 11.5l-82 97l-83 -97q-7 -8 -11 -11.5
t-12 -3.5h-52q-9 0 -9 7q0 6 4 10l96 124q7 8 11 11.5t13 3.5h85q9 0 13.5 -3.5t11.5 -11.5l95 -124q4 -4 4 -10z" />
    <glyph glyph-name="jcircumflex" unicode="&#x135;" horiz-adv-x="247" 
d="M167 -64q0 -39 -8.5 -64.5t-24 -41t-39 -21.5t-53.5 -6q-15 0 -27 1t-27 3q-18 3 -18 16v37q0 14 21 14h41q29 0 38 12t9 50v594q0 8 5 14t13 6h52q8 0 13 -6t5 -14v-594zM288 630q0 -7 -9 -7h-52q-8 0 -12 3.5t-11 11.5l-82 97l-83 -97q-7 -8 -11 -11.5t-12 -3.5h-52
q-9 0 -9 7q0 6 4 10l96 124q7 8 11 11.5t13 3.5h85q9 0 13.5 -3.5t11.5 -11.5l95 -124q4 -4 4 -10z" />
    <glyph glyph-name="Kcommaaccent" unicode="&#x136;" horiz-adv-x="607" 
d="M357 -49q11 0 11 -11l-1 -8l-54 -109q-5 -10 -9 -14.5t-15 -4.5h-41q-3 0 -6 1.5t-3 6.5q0 4 1 8l28 112q4 19 20 19h69zM564 10q0 -10 -13 -10h-78q-13 0 -22 10l-282 343v-333q0 -8 -5 -14t-13 -6h-55q-8 0 -13 6t-5 14v704q0 8 5.5 13.5t13.5 5.5h53q8 0 13.5 -5.5
t5.5 -13.5v-323l288 333q5 5 8.5 7t11.5 2h72q14 0 14 -11q0 -6 -4 -10l-301 -340l301 -360q5 -5 5 -12z" />
    <glyph glyph-name="kcommaaccent" unicode="&#x137;" horiz-adv-x="496" 
d="M302 -49q11 0 11 -11l-1 -8l-54 -109q-5 -10 -9 -14.5t-15 -4.5h-41q-3 0 -6 1.5t-3 6.5q0 4 1 8l28 112q4 19 20 19h69zM461 13q0 -13 -11 -13h-72q-8 0 -12.5 2.5t-10.5 10.5l-199 246v-239q0 -8 -6 -14t-14 -6h-48q-8 0 -14 6t-6 14v712q0 8 6 14t14 6h48q8 0 14 -6
t6 -14v-416l200 225q5 5 8.5 7t11.5 2h70q15 0 15 -11q0 -6 -5 -11l-220 -238l222 -268q3 -3 3 -9z" />
    <glyph glyph-name="kgreenlandic" unicode="&#x138;" horiz-adv-x="496" 
d="M461 13q0 -13 -11 -13h-72q-8 0 -12.5 2.5t-10.5 10.5l-199 246v-239q0 -8 -6 -14t-14 -6h-48q-8 0 -14 6t-6 14v510q0 8 6 14t14 6h48q8 0 14 -6t6 -14v-214l200 225q5 5 8.5 7t11.5 2h70q15 0 15 -11q0 -6 -5 -11l-220 -238l222 -268q3 -3 3 -9z" />
    <glyph glyph-name="Lacute" unicode="&#x139;" horiz-adv-x="514" 
d="M496 16q0 -5 -2.5 -9t-7.5 -5q-20 -3 -72 -6t-123 -3q-40 0 -78.5 6t-68.5 25.5t-48 56t-18 98.5v544q0 8 6 14t14 6h51q8 0 14 -6t6 -14v-544q0 -29 4.5 -48.5t17.5 -32t37 -18t64 -5.5h193q11 0 11 -12v-47zM394 943q0 -4 -4 -8l-113 -126q-7 -8 -11 -11.5t-12 -3.5
h-54q-9 0 -9 7q0 6 4 10l98 124q7 8 11 11.5t13 3.5h66q11 0 11 -7z" />
    <glyph glyph-name="lacute" unicode="&#x13a;" horiz-adv-x="244" 
d="M166 20q0 -8 -5 -14t-13 -6h-52q-8 0 -13 6t-5 14v713q0 8 5 13.5t13 5.5h52q8 0 13 -5.5t5 -13.5v-713zM258 945q0 -4 -4 -8l-113 -126q-7 -8 -11 -11.5t-12 -3.5h-54q-9 0 -9 7q0 6 4 10l98 124q7 8 11 11.5t13 3.5h66q11 0 11 -7z" />
    <glyph glyph-name="Lcommaaccent" unicode="&#x13b;" horiz-adv-x="514" 
d="M321 -49q11 0 11 -11l-1 -8l-54 -109q-5 -10 -9 -14.5t-15 -4.5h-41q-3 0 -6 1.5t-3 6.5q0 4 1 8l28 112q4 19 20 19h69zM496 16q0 -5 -2.5 -9t-7.5 -5q-20 -3 -72 -6t-123 -3q-40 0 -78.5 6t-68.5 25.5t-48 56t-18 98.5v544q0 8 6 14t14 6h51q8 0 14 -6t6 -14v-544
q0 -29 4.5 -48.5t17.5 -32t37 -18t64 -5.5h193q11 0 11 -12v-47z" />
    <glyph glyph-name="lcommaaccent" unicode="&#x13c;" horiz-adv-x="244" 
d="M159 -49q11 0 11 -11l-1 -8l-54 -109q-5 -10 -9 -14.5t-15 -4.5h-41q-3 0 -6 1.5t-3 6.5q0 4 1 8l28 112q4 19 20 19h69zM166 20q0 -8 -5 -14t-13 -6h-52q-8 0 -13 6t-5 14v713q0 8 5 13.5t13 5.5h52q8 0 13 -5.5t5 -13.5v-713z" />
    <glyph glyph-name="Lcaron" unicode="&#x13d;" horiz-adv-x="514" 
d="M428 741q0 -2 -2 -8l-75 -189q-4 -10 -7.5 -14.5t-11.5 -4.5h-41q-12 0 -12 12q0 5 1 7l57 189q6 19 20 19h58q13 0 13 -11zM496 16q0 -5 -2.5 -9t-7.5 -5q-20 -3 -72 -6t-123 -3q-40 0 -78.5 6t-68.5 25.5t-48 56t-18 98.5v544q0 8 6 14t14 6h51q8 0 14 -6t6 -14v-544
q0 -29 4.5 -48.5t17.5 -32t37 -18t64 -5.5h193q11 0 11 -12v-47z" />
    <glyph glyph-name="lcaron" unicode="&#x13e;" horiz-adv-x="346" 
d="M371 743q0 -2 -2 -8l-75 -189q-4 -10 -7.5 -14.5t-11.5 -4.5h-41q-12 0 -12 12q0 5 1 7l57 189q6 19 20 19h58q13 0 13 -11zM166 20q0 -8 -5 -14t-13 -6h-52q-8 0 -13 6t-5 14v713q0 8 5 13.5t13 5.5h52q8 0 13 -5.5t5 -13.5v-713z" />
    <glyph glyph-name="Ldot" unicode="&#x13f;" horiz-adv-x="514" 
d="M496 16q0 -5 -2.5 -9t-7.5 -5q-20 -3 -72 -6t-123 -3q-40 0 -78.5 6t-68.5 25.5t-48 56t-18 98.5v544q0 8 6 14t14 6h51q8 0 14 -6t6 -14v-544q0 -29 4.5 -48.5t17.5 -32t37 -18t64 -5.5h193q11 0 11 -12v-47zM402 323q0 -8 -5.5 -14t-13.5 -6h-48q-8 0 -14 6t-6 14v84
q0 8 6 13.5t14 5.5h48q8 0 13.5 -5.5t5.5 -13.5v-84z" />
    <glyph glyph-name="ldot" unicode="&#x140;" horiz-adv-x="369" 
d="M166 20q0 -8 -5 -14t-13 -6h-52q-8 0 -13 6t-5 14v713q0 8 5 13.5t13 5.5h52q8 0 13 -5.5t5 -13.5v-713zM334 326q0 -8 -5.5 -14t-13.5 -6h-48q-8 0 -14 6t-6 14v84q0 8 6 13.5t14 5.5h48q8 0 13.5 -5.5t5.5 -13.5v-84z" />
    <glyph glyph-name="Lslash" unicode="&#x141;" horiz-adv-x="514" 
d="M496 16q0 -5 -2.5 -9t-7.5 -5q-20 -3 -72 -6t-123 -3q-106 0 -159.5 43t-53.5 143v117l-61 -75q-5 -6 -11 -6q-7 0 -7 6v63v1q0 5 1 10t6 12l72 89v327q0 8 6 14t14 6h51q8 0 14 -6t6 -14v-216l68 84q6 7 11 7q7 0 7 -7v-65q0 -6 -1.5 -11t-6.5 -12l-78 -96v-228
q0 -29 4.5 -48.5t17.5 -32t37 -18t64 -5.5h193q11 0 11 -12v-47v0z" />
    <glyph glyph-name="lslash" unicode="&#x142;" horiz-adv-x="244" 
d="M248 522q0 -6 -2 -9.5t-4 -6.5l-76 -94v-392q0 -8 -5 -14t-13 -6h-52q-8 0 -13 6t-5 14v284l-68 -83q-4 -5 -9 -5q-9 0 -9 8v60v1q0 5 1 10.5t6 11.5l79 97v329q0 8 5 13.5t13 5.5h52q8 0 13 -5.5t5 -13.5v-221l64 79q4 5 9 5q9 0 9 -9v-65v0z" />
    <glyph glyph-name="Nacute" unicode="&#x143;" horiz-adv-x="680" 
d="M602 29q0 -12 -8.5 -20.5t-20.5 -8.5h-62q-24 0 -32 16l-309 587q-2 3 -3 3t-1 -3v-584q0 -8 -5 -13.5t-13 -5.5h-52q-8 0 -13 2t-5 10v703q0 12 8.5 20t20.5 8h55q21 0 28 -4.5t13 -15.5l307 -584l2 -3q1 0 1 3v585q0 8 5 13.5t13 5.5h53q8 0 13 -5.5t5 -13.5v-695z
M477 943q0 -4 -4 -8l-113 -126q-7 -8 -11 -11.5t-12 -3.5h-54q-9 0 -9 7q0 6 4 10l98 124q7 8 11 11.5t13 3.5h66q11 0 11 -7z" />
    <glyph glyph-name="nacute" unicode="&#x144;" horiz-adv-x="557" 
d="M489 20q0 -8 -6 -14t-14 -6h-48q-8 0 -14 6t-6 14v329q0 38 -6.5 63.5t-20 40.5t-34.5 21.5t-49 6.5q-32 0 -66 -11t-69 -28v-422q0 -8 -6 -14t-14 -6h-49q-8 0 -13.5 6t-5.5 14v510q0 8 5.5 14t13.5 6h50q8 0 13.5 -6t5.5 -14v-19q42 23 78 34.5t81 11.5q91 0 132.5 -54
t41.5 -154v-329zM415 772q0 -4 -4 -8l-113 -126q-7 -8 -11 -11.5t-12 -3.5h-54q-9 0 -9 7q0 6 4 10l98 124q7 8 11 11.5t13 3.5h66q11 0 11 -7z" />
    <glyph glyph-name="Ncommaaccent" unicode="&#x145;" horiz-adv-x="680" 
d="M384 -49q11 0 11 -11l-1 -8l-54 -109q-5 -10 -9 -14.5t-15 -4.5h-41q-3 0 -6 1.5t-3 6.5q0 4 1 8l28 112q4 19 20 19h69zM602 29q0 -12 -8.5 -20.5t-20.5 -8.5h-62q-24 0 -32 16l-309 587q-2 3 -3 3t-1 -3v-584q0 -8 -5 -13.5t-13 -5.5h-52q-8 0 -13 2t-5 10v703
q0 12 8.5 20t20.5 8h55q21 0 28 -4.5t13 -15.5l307 -584l2 -3q1 0 1 3v585q0 8 5 13.5t13 5.5h53q8 0 13 -5.5t5 -13.5v-695z" />
    <glyph glyph-name="ncommaaccent" unicode="&#x146;" horiz-adv-x="557" 
d="M314 -49q11 0 11 -11l-1 -8l-54 -109q-5 -10 -9 -14.5t-15 -4.5h-41q-3 0 -6 1.5t-3 6.5q0 4 1 8l28 112q4 19 20 19h69zM489 20q0 -8 -6 -14t-14 -6h-48q-8 0 -14 6t-6 14v329q0 38 -6.5 63.5t-20 40.5t-34.5 21.5t-49 6.5q-32 0 -66 -11t-69 -28v-422q0 -8 -6 -14
t-14 -6h-49q-8 0 -13.5 6t-5.5 14v510q0 8 5.5 14t13.5 6h50q8 0 13.5 -6t5.5 -14v-19q42 23 78 34.5t81 11.5q91 0 132.5 -54t41.5 -154v-329z" />
    <glyph glyph-name="Ncaron" unicode="&#x147;" horiz-adv-x="680" 
d="M602 29q0 -12 -8.5 -20.5t-20.5 -8.5h-62q-24 0 -32 16l-309 587q-2 3 -3 3t-1 -3v-584q0 -8 -5 -13.5t-13 -5.5h-52q-8 0 -13 2t-5 10v703q0 12 8.5 20t20.5 8h55q21 0 28 -4.5t13 -15.5l307 -584l2 -3q1 0 1 3v585q0 8 5 13.5t13 5.5h53q8 0 13 -5.5t5 -13.5v-695z
M509 943q0 -6 -4 -10l-97 -124q-7 -8 -11.5 -11.5t-13.5 -3.5h-85q-9 0 -13 3.5t-11 11.5l-98 124q-4 4 -4 10q0 7 9 7h54q8 0 12 -4t11 -12l83 -96l82 96q7 8 11 12t12 4h54q9 0 9 -7z" />
    <glyph glyph-name="ncaron" unicode="&#x148;" horiz-adv-x="557" 
d="M489 20q0 -8 -6 -14t-14 -6h-48q-8 0 -14 6t-6 14v329q0 38 -6.5 63.5t-20 40.5t-34.5 21.5t-49 6.5q-32 0 -66 -11t-69 -28v-422q0 -8 -6 -14t-14 -6h-49q-8 0 -13.5 6t-5.5 14v510q0 8 5.5 14t13.5 6h50q8 0 13.5 -6t5.5 -14v-19q42 23 78 34.5t81 11.5q91 0 132.5 -54
t41.5 -154v-329zM447 772q0 -6 -4 -10l-97 -124q-7 -8 -11.5 -11.5t-13.5 -3.5h-85q-9 0 -13 3.5t-11 11.5l-98 124q-4 4 -4 10q0 7 9 7h54q8 0 12 -4t11 -12l83 -96l82 96q7 8 11 12t12 4h54q9 0 9 -7z" />
    <glyph glyph-name="napostrophe" unicode="&#x149;" horiz-adv-x="663" 
d="M157 741q0 -5 -1 -8l-61 -189q-5 -19 -19 -19h-38q-9 0 -9 10q0 6 1 9l37 189q4 19 20 19h59q11 0 11 -11zM595 20q0 -8 -6 -14t-14 -6h-48q-8 0 -14 6t-6 14v329q0 38 -6.5 63.5t-20 40.5t-34.5 21.5t-49 6.5q-32 0 -66 -11t-69 -28v-422q0 -8 -6 -14t-14 -6h-49
q-8 0 -13.5 6t-5.5 14v510q0 8 5.5 14t13.5 6h50q8 0 13.5 -6t5.5 -14v-19q42 23 78 34.5t81 11.5q91 0 132.5 -54t41.5 -154v-329z" />
    <glyph glyph-name="Eng" unicode="&#x14a;" horiz-adv-x="680" 
d="M602 -37q0 -72 -36 -107.5t-119 -35.5q-17 0 -32.5 3t-20.5 5q-6 3 -6 11v37q0 8 6 12.5t14 4.5h39q40 0 52.5 16.5t12.5 53.5v37h-1q-24 0 -32 16l-309 587q-2 3 -3 3t-1 -3v-584q0 -8 -5 -13.5t-13 -5.5h-52q-8 0 -13 2t-5 10v703q0 12 8.5 20t20.5 8h55q21 0 28 -4.5
t13 -15.5l307 -584l2 -3q1 0 1 3v585q0 8 5 13.5t13 5.5h53q8 0 13 -5.5t5 -13.5v-761v0z" />
    <glyph glyph-name="eng" unicode="&#x14b;" horiz-adv-x="557" 
d="M489 -64q0 -39 -8.5 -64.5t-24 -41t-39 -21.5t-53.5 -6q-15 0 -27 1t-27 3q-18 3 -18 16v37q0 14 21 14h41q29 0 38 12t9 50v413q0 38 -6.5 63.5t-20 40.5t-34.5 21.5t-49 6.5q-32 0 -66 -11t-69 -28v-422q0 -8 -6 -14t-14 -6h-49q-8 0 -13.5 6t-5.5 14v510q0 8 5.5 14
t13.5 6h50q8 0 13.5 -6t5.5 -14v-19q42 23 78 34.5t81 11.5q91 0 132.5 -54t41.5 -154v-413v0z" />
    <glyph glyph-name="Omacron" unicode="&#x14c;" horiz-adv-x="661" 
d="M601 307q0 -83 -20 -142.5t-56 -97.5t-85.5 -56t-108.5 -18t-108.5 18t-85.5 56t-56.5 97.5t-20.5 142.5v129q0 83 20.5 142.5t56.5 97.5t85.5 56t108.5 18t108.5 -18t85.5 -56t56 -97.5t20 -142.5v-129zM509 436q0 63 -12.5 107t-35.5 72t-56 40.5t-74 12.5t-74 -12.5
t-56.5 -40.5t-36 -72t-12.5 -107v-129q0 -63 12.5 -107t35.5 -72t56.5 -40.5t74.5 -12.5t74 12.5t56 40.5t35.5 72t12.5 107v129zM495 836q0 -8 -6 -12.5t-14 -4.5h-288q-8 0 -14 4.5t-6 12.5v34q0 8 6 12.5t14 4.5h288q8 0 14 -4.5t6 -12.5v-34z" />
    <glyph glyph-name="omacron" unicode="&#x14d;" horiz-adv-x="545" 
d="M495 237q0 -55 -14 -100t-42 -77t-70 -49.5t-97 -17.5t-96.5 17.5t-69.5 49.5t-42 77t-14 100v76q0 55 14 100t42 77t69.5 49.5t96.5 17.5t97 -17.5t70 -49.5t42 -77t14 -100v-76zM407 313q0 77 -32 122t-103 45q-70 0 -102 -44.5t-32 -122.5v-76q0 -77 31.5 -122
t102.5 -45q70 0 102.5 44.5t32.5 122.5v76zM435 666q0 -8 -6 -12.5t-14 -4.5h-288q-8 0 -14 4.5t-6 12.5v34q0 8 6 12.5t14 4.5h288q8 0 14 -4.5t6 -12.5v-34z" />
    <glyph glyph-name="Obreve" unicode="&#x14e;" horiz-adv-x="661" 
d="M601 307q0 -83 -20 -142.5t-56 -97.5t-85.5 -56t-108.5 -18t-108.5 18t-85.5 56t-56.5 97.5t-20.5 142.5v129q0 83 20.5 142.5t56.5 97.5t85.5 56t108.5 18t108.5 -18t85.5 -56t56 -97.5t20 -142.5v-129zM509 436q0 63 -12.5 107t-35.5 72t-56 40.5t-74 12.5t-74 -12.5
t-56.5 -40.5t-36 -72t-12.5 -107v-129q0 -63 12.5 -107t35.5 -72t56.5 -40.5t74.5 -12.5t74 12.5t56 40.5t35.5 72t12.5 107v129zM503 936q-3 -35 -17.5 -61.5t-37 -44t-51 -26.5t-57.5 -9t-57.5 9t-51 26.5t-37 44t-17.5 61.5v4q0 13 11 13h37q14 0 15 -16q2 -20 11.5 -35
t23 -25t30.5 -15t35 -5t35 5t30.5 15t23 25t11.5 35q1 16 15 16h37q11 0 11 -13v-4z" />
    <glyph glyph-name="obreve" unicode="&#x14f;" horiz-adv-x="545" 
d="M495 237q0 -55 -14 -100t-42 -77t-70 -49.5t-97 -17.5t-96.5 17.5t-69.5 49.5t-42 77t-14 100v76q0 55 14 100t42 77t69.5 49.5t96.5 17.5t97 -17.5t70 -49.5t42 -77t14 -100v-76zM407 313q0 77 -32 122t-103 45q-70 0 -102 -44.5t-32 -122.5v-76q0 -77 31.5 -122
t102.5 -45q70 0 102.5 44.5t32.5 122.5v76zM434 762q-3 -35 -17.5 -61.5t-37 -44t-51 -26.5t-57.5 -9t-57.5 9t-51 26.5t-37 44t-17.5 61.5v4q0 13 11 13h37q14 0 15 -16q2 -20 11.5 -35t23 -25t30.5 -15t35 -5t35 5t30.5 15t23 25t11.5 35q1 16 15 16h37q11 0 11 -13v-4z
" />
    <glyph glyph-name="Ohungarumlaut" unicode="&#x150;" horiz-adv-x="661" 
d="M601 307q0 -83 -20 -142.5t-56 -97.5t-85.5 -56t-108.5 -18t-108.5 18t-85.5 56t-56.5 97.5t-20.5 142.5v129q0 83 20.5 142.5t56.5 97.5t85.5 56t108.5 18t108.5 -18t85.5 -56t56 -97.5t20 -142.5v-129zM509 436q0 63 -12.5 107t-35.5 72t-56 40.5t-74 12.5t-74 -12.5
t-56.5 -40.5t-36 -72t-12.5 -107v-129q0 -63 12.5 -107t35.5 -72t56.5 -40.5t74.5 -12.5t74 12.5t56 40.5t35.5 72t12.5 107v129zM554 943q0 -4 -4 -8l-112 -126q-7 -8 -11 -11.5t-12 -3.5h-54q-9 0 -9 7q0 6 4 10l97 124q7 8 11.5 11.5t13.5 3.5h65q11 0 11 -7zM379 943
q0 -4 -4 -8l-112 -126q-7 -8 -11 -11.5t-12 -3.5h-54q-9 0 -9 7q0 6 4 10l97 124q7 8 11.5 11.5t13.5 3.5h65q11 0 11 -7z" />
    <glyph glyph-name="ohungarumlaut" unicode="&#x151;" horiz-adv-x="545" 
d="M495 237q0 -55 -14 -100t-42 -77t-70 -49.5t-97 -17.5t-96.5 17.5t-69.5 49.5t-42 77t-14 100v76q0 55 14 100t42 77t69.5 49.5t96.5 17.5t97 -17.5t70 -49.5t42 -77t14 -100v-76zM407 313q0 77 -32 122t-103 45q-70 0 -102 -44.5t-32 -122.5v-76q0 -77 31.5 -122
t102.5 -45q70 0 102.5 44.5t32.5 122.5v76zM497 772q0 -4 -4 -8l-112 -126q-7 -8 -11 -11.5t-12 -3.5h-54q-9 0 -9 7q0 6 4 10l97 124q7 8 11.5 11.5t13.5 3.5h65q11 0 11 -7zM322 772q0 -4 -4 -8l-112 -126q-7 -8 -11 -11.5t-12 -3.5h-54q-9 0 -9 7q0 6 4 10l97 124
q7 8 11.5 11.5t13.5 3.5h65q11 0 11 -7z" />
    <glyph glyph-name="OE" unicode="&#x152;" horiz-adv-x="983" 
d="M928 15q0 -5 -2.5 -9t-7.5 -5q-20 -3 -72 -6t-123 -3q-72 0 -120 19.5t-71 63.5q-36 -42 -87.5 -62t-113.5 -20q-59 0 -108.5 18t-85.5 56t-56.5 97.5t-20.5 142.5v129q0 83 20.5 142.5t56.5 97.5t85.5 56t108.5 18q62 0 113.5 -20t87.5 -62q23 43 71 62.5t120 19.5
q71 0 123 -3t72 -6q5 -1 7.5 -5t2.5 -9v-47q0 -12 -11 -12h-193q-40 0 -64 -5.5t-37 -18t-17.5 -32.5t-4.5 -48v-139h307q8 0 14 -6t6 -14v-38q0 -8 -6 -14t-14 -6h-307v-169q0 -29 4.5 -48.5t17.5 -32t37 -18t64 -5.5h193q11 0 11 -12v-47zM510 440q0 46 -8 87.5
t-28.5 72.5t-55 49.5t-87.5 18.5q-41 0 -74.5 -12.5t-56.5 -40.5t-35.5 -72t-12.5 -107v-129q0 -63 12.5 -107t35.5 -72t56.5 -40.5t74.5 -12.5q53 0 87.5 19t55 50.5t28.5 73.5t8 88v134z" />
    <glyph glyph-name="oe" unicode="&#x153;" horiz-adv-x="899" 
d="M849 269q0 -22 -19 -22h-335v-10q0 -38 6 -69t21.5 -52.5t42.5 -33.5t69 -12q44 0 93.5 3t84.5 8h5q6 0 11 -3t5 -11v-34q0 -10 -4 -15.5t-16 -7.5q-43 -8 -85.5 -12.5t-93.5 -4.5q-54 0 -103 18t-81 64q-28 -39 -72 -60.5t-106 -21.5q-55 0 -96.5 17.5t-69.5 49.5
t-42 77t-14 100v76q0 55 14 100t42 77t69.5 49.5t96.5 17.5q62 0 106.5 -21.5t72.5 -60.5q27 39 71.5 60.5t106.5 21.5q55 0 96 -16.5t68.5 -47t41.5 -74t14 -96.5v-54zM760 323q0 85 -32.5 121t-98.5 36t-100 -38t-34 -119v-9h265v9zM407 313q0 77 -32 122t-103 45
q-70 0 -102 -44.5t-32 -122.5v-76q0 -77 31.5 -122t102.5 -45q70 0 102.5 44.5t32.5 122.5v76z" />
    <glyph glyph-name="Racute" unicode="&#x154;" horiz-adv-x="625" 
d="M586 13q0 -13 -13 -13h-64q-9 0 -14.5 1.5t-11.5 11.5l-179 298h-9h-17q-25 0 -47.5 0.5t-62.5 2.5v-294q0 -8 -5 -14t-13 -6h-54q-8 0 -13 6t-5 14v700q0 11 5 15.5t19 6.5q16 2 37.5 3.5t45 2.5t47.5 1.5t46 0.5q59 0 110.5 -11t89 -36t59 -66t21.5 -102v-7
q0 -42 -11.5 -75.5t-32.5 -58.5t-50 -42t-63 -26l182 -304q3 -5 3 -9zM468 535q0 75 -48 104t-142 29h-27t-30.5 -0.5t-29.5 -1t-23 -1.5v-274q33 -1 63 -1.5t47 -0.5q46 0 81.5 6.5t59.5 22.5t36.5 42.5t12.5 67.5v7zM449 943q0 -4 -4 -8l-113 -126q-7 -8 -11 -11.5
t-12 -3.5h-54q-9 0 -9 7q0 6 4 10l98 124q7 8 11 11.5t13 3.5h66q11 0 11 -7z" />
    <glyph glyph-name="racute" unicode="&#x155;" horiz-adv-x="342" 
d="M315 498q0 -17 -21 -17q-35 0 -67.5 -9.5t-70.5 -32.5v-419q0 -8 -6 -14t-14 -6h-49q-8 0 -13.5 6t-5.5 14v510q0 8 5.5 14t13.5 6h47q8 0 13.5 -6t5.5 -14v-21q38 26 72.5 37t68.5 11q21 0 21 -18v-41zM307 772q0 -4 -4 -8l-113 -126q-7 -8 -11 -11.5t-12 -3.5h-54
q-9 0 -9 7q0 6 4 10l98 124q7 8 11 11.5t13 3.5h66q11 0 11 -7z" />
    <glyph glyph-name="Rcommaaccent" unicode="&#x156;" horiz-adv-x="625" 
d="M366 -49q11 0 11 -11l-1 -8l-54 -109q-5 -10 -9 -14.5t-15 -4.5h-41q-3 0 -6 1.5t-3 6.5q0 4 1 8l28 112q4 19 20 19h69zM586 13q0 -13 -13 -13h-64q-9 0 -14.5 1.5t-11.5 11.5l-179 298h-9h-17q-25 0 -47.5 0.5t-62.5 2.5v-294q0 -8 -5 -14t-13 -6h-54q-8 0 -13 6t-5 14
v700q0 11 5 15.5t19 6.5q16 2 37.5 3.5t45 2.5t47.5 1.5t46 0.5q59 0 110.5 -11t89 -36t59 -66t21.5 -102v-7q0 -42 -11.5 -75.5t-32.5 -58.5t-50 -42t-63 -26l182 -304q3 -5 3 -9zM468 535q0 75 -48 104t-142 29h-27t-30.5 -0.5t-29.5 -1t-23 -1.5v-274q33 -1 63 -1.5
t47 -0.5q46 0 81.5 6.5t59.5 22.5t36.5 42.5t12.5 67.5v7z" />
    <glyph glyph-name="rcommaaccent" unicode="&#x157;" horiz-adv-x="342" 
d="M224 -49q11 0 11 -11l-1 -8l-54 -109q-5 -10 -9 -14.5t-15 -4.5h-41q-3 0 -6 1.5t-3 6.5q0 4 1 8l28 112q4 19 20 19h69zM315 498q0 -17 -21 -17q-35 0 -67.5 -9.5t-70.5 -32.5v-419q0 -8 -6 -14t-14 -6h-49q-8 0 -13.5 6t-5.5 14v510q0 8 5.5 14t13.5 6h47q8 0 13.5 -6
t5.5 -14v-21q38 26 72.5 37t68.5 11q21 0 21 -18v-41z" />
    <glyph glyph-name="Rcaron" unicode="&#x158;" horiz-adv-x="625" 
d="M586 13q0 -13 -13 -13h-64q-9 0 -14.5 1.5t-11.5 11.5l-179 298h-9h-17q-25 0 -47.5 0.5t-62.5 2.5v-294q0 -8 -5 -14t-13 -6h-54q-8 0 -13 6t-5 14v700q0 11 5 15.5t19 6.5q16 2 37.5 3.5t45 2.5t47.5 1.5t46 0.5q59 0 110.5 -11t89 -36t59 -66t21.5 -102v-7
q0 -42 -11.5 -75.5t-32.5 -58.5t-50 -42t-63 -26l182 -304q3 -5 3 -9zM468 535q0 75 -48 104t-142 29h-27t-30.5 -0.5t-29.5 -1t-23 -1.5v-274q33 -1 63 -1.5t47 -0.5q46 0 81.5 6.5t59.5 22.5t36.5 42.5t12.5 67.5v7zM481 943q0 -6 -4 -10l-97 -124q-7 -8 -11.5 -11.5
t-13.5 -3.5h-85q-9 0 -13 3.5t-11 11.5l-98 124q-4 4 -4 10q0 7 9 7h54q8 0 12 -4t11 -12l83 -96l82 96q7 8 11 12t12 4h54q9 0 9 -7z" />
    <glyph glyph-name="rcaron" unicode="&#x159;" horiz-adv-x="342" 
d="M315 498q0 -17 -21 -17q-35 0 -67.5 -9.5t-70.5 -32.5v-419q0 -8 -6 -14t-14 -6h-49q-8 0 -13.5 6t-5.5 14v510q0 8 5.5 14t13.5 6h47q8 0 13.5 -6t5.5 -14v-21q38 26 72.5 37t68.5 11q21 0 21 -18v-41zM339 772q0 -6 -4 -10l-97 -124q-7 -8 -11.5 -11.5t-13.5 -3.5h-85
q-9 0 -13 3.5t-11 11.5l-98 124q-4 4 -4 10q0 7 9 7h54q8 0 12 -4t11 -12l83 -96l82 96q7 8 11 12t12 4h54q9 0 9 -7z" />
    <glyph glyph-name="Sacute" unicode="&#x15a;" horiz-adv-x="550" 
d="M500 193q0 -36 -11 -72t-38.5 -64.5t-75.5 -46t-122 -17.5q-53 0 -93 4.5t-73 9.5q-13 2 -16 6t-3 12v40q0 8 5 12t12 4h3q17 -2 38.5 -3t44 -1.5t44 -1t38.5 -0.5q45 0 74.5 8.5t46.5 24t24 37.5t7 48q0 19 -6 34.5t-20 30.5t-37 31.5t-57 37.5l-97 59
q-69 42 -103.5 84.5t-34.5 102.5q0 91 62 134t177 43q22 0 46.5 -1t48 -2.5t44.5 -4t35 -4.5q17 -3 17 -17v-43q0 -16 -17 -16h-2q-33 2 -80.5 4t-91.5 2q-78 0 -112.5 -20t-34.5 -75q0 -35 26 -61t83 -60l92 -55q43 -26 73 -50t49 -48t27 -50t8 -56zM412 943q0 -4 -4 -8
l-113 -126q-7 -8 -11 -11.5t-12 -3.5h-54q-9 0 -9 7q0 6 4 10l98 124q7 8 11 11.5t13 3.5h66q11 0 11 -7z" />
    <glyph glyph-name="sacute" unicode="&#x15b;" horiz-adv-x="466" 
d="M416 138q0 -38 -13.5 -65.5t-38 -45t-59 -26t-76.5 -8.5q-14 0 -33.5 0.5t-41 2.5t-43.5 4.5t-40 7.5q-21 5 -21 20v35q0 7 5 11t13 4h4q18 -2 39.5 -4t43.5 -3.5t41 -2.5t33 -1q49 0 74 15t25 56q0 23 -16 40t-59 43l-101 60q-46 28 -74 61.5t-28 81.5q0 39 14 64.5
t38 41t57 21.5t72 6q42 0 81.5 -3.5t74.5 -9.5q19 -3 19 -20v-33q0 -17 -17 -17h-3q-26 2 -69.5 5t-85.5 3t-67.5 -10t-25.5 -48q0 -23 17 -39.5t52 -36.5l99 -59q62 -37 86 -72t24 -79zM370 772q0 -4 -4 -8l-113 -126q-7 -8 -11 -11.5t-12 -3.5h-54q-9 0 -9 7q0 6 4 10
l98 124q7 8 11 11.5t13 3.5h66q11 0 11 -7z" />
    <glyph glyph-name="Scircumflex" unicode="&#x15c;" horiz-adv-x="550" 
d="M500 193q0 -36 -11 -72t-38.5 -64.5t-75.5 -46t-122 -17.5q-53 0 -93 4.5t-73 9.5q-13 2 -16 6t-3 12v40q0 8 5 12t12 4h3q17 -2 38.5 -3t44 -1.5t44 -1t38.5 -0.5q45 0 74.5 8.5t46.5 24t24 37.5t7 48q0 19 -6 34.5t-20 30.5t-37 31.5t-57 37.5l-97 59
q-69 42 -103.5 84.5t-34.5 102.5q0 91 62 134t177 43q22 0 46.5 -1t48 -2.5t44.5 -4t35 -4.5q17 -3 17 -17v-43q0 -16 -17 -16h-2q-33 2 -80.5 4t-91.5 2q-78 0 -112.5 -20t-34.5 -75q0 -35 26 -61t83 -60l92 -55q43 -26 73 -50t49 -48t27 -50t8 -56zM428 801q0 -7 -9 -7
h-52q-8 0 -12 3.5t-11 11.5l-82 97l-83 -97q-7 -8 -11 -11.5t-12 -3.5h-52q-9 0 -9 7q0 6 4 10l96 124q7 8 11 11.5t13 3.5h85q9 0 13.5 -3.5t11.5 -11.5l95 -124q4 -4 4 -10z" />
    <glyph glyph-name="scircumflex" unicode="&#x15d;" horiz-adv-x="466" 
d="M416 138q0 -38 -13.5 -65.5t-38 -45t-59 -26t-76.5 -8.5q-14 0 -33.5 0.5t-41 2.5t-43.5 4.5t-40 7.5q-21 5 -21 20v35q0 7 5 11t13 4h4q18 -2 39.5 -4t43.5 -3.5t41 -2.5t33 -1q49 0 74 15t25 56q0 23 -16 40t-59 43l-101 60q-46 28 -74 61.5t-28 81.5q0 39 14 64.5
t38 41t57 21.5t72 6q42 0 81.5 -3.5t74.5 -9.5q19 -3 19 -20v-33q0 -17 -17 -17h-3q-26 2 -69.5 5t-85.5 3t-67.5 -10t-25.5 -48q0 -23 17 -39.5t52 -36.5l99 -59q62 -37 86 -72t24 -79zM396 630q0 -7 -9 -7h-52q-8 0 -12 3.5t-11 11.5l-82 97l-83 -97q-7 -8 -11 -11.5
t-12 -3.5h-52q-9 0 -9 7q0 6 4 10l96 124q7 8 11 11.5t13 3.5h85q9 0 13.5 -3.5t11.5 -11.5l95 -124q4 -4 4 -10z" />
    <glyph glyph-name="uni015E" unicode="&#x15e;" horiz-adv-x="550" 
d="M500 193q0 -36 -11 -72t-38.5 -64.5t-75.5 -46t-122 -17.5q-53 0 -93 4.5t-73 9.5q-13 2 -16 6t-3 12v40q0 8 5 12t12 4h3q17 -2 38.5 -3t44 -1.5t44 -1t38.5 -0.5q45 0 74.5 8.5t46.5 24t24 37.5t7 48q0 19 -6 34.5t-20 30.5t-37 31.5t-57 37.5l-97 59
q-69 42 -103.5 84.5t-34.5 102.5q0 91 62 134t177 43q22 0 46.5 -1t48 -2.5t44.5 -4t35 -4.5q17 -3 17 -17v-43q0 -16 -17 -16h-2q-33 2 -80.5 4t-91.5 2q-78 0 -112.5 -20t-34.5 -75q0 -35 26 -61t83 -60l92 -55q43 -26 73 -50t49 -48t27 -50t8 -56zM327 -39q0 -4 -4 -8
l-113 -126q-7 -8 -11 -11.5t-12 -3.5h-54q-9 0 -9 7q0 6 4 10l97 124q7 8 11.5 11.5t13.5 3.5h66q11 0 11 -7z" />
    <glyph glyph-name="uni015F" unicode="&#x15f;" horiz-adv-x="466" 
d="M416 138q0 -38 -13.5 -65.5t-38 -45t-59 -26t-76.5 -8.5q-14 0 -33.5 0.5t-41 2.5t-43.5 4.5t-40 7.5q-21 5 -21 20v35q0 7 5 11t13 4h4q18 -2 39.5 -4t43.5 -3.5t41 -2.5t33 -1q49 0 74 15t25 56q0 23 -16 40t-59 43l-101 60q-46 28 -74 61.5t-28 81.5q0 39 14 64.5
t38 41t57 21.5t72 6q42 0 81.5 -3.5t74.5 -9.5q19 -3 19 -20v-33q0 -17 -17 -17h-3q-26 2 -69.5 5t-85.5 3t-67.5 -10t-25.5 -48q0 -23 17 -39.5t52 -36.5l99 -59q62 -37 86 -72t24 -79zM285 -39q0 -4 -4 -8l-113 -126q-7 -8 -11 -11.5t-12 -3.5h-54q-9 0 -9 7q0 6 4 10
l97 124q7 8 11.5 11.5t13.5 3.5h66q11 0 11 -7z" />
    <glyph glyph-name="Scaron" unicode="&#x160;" horiz-adv-x="550" 
d="M500 193q0 -36 -11 -72t-38.5 -64.5t-75.5 -46t-122 -17.5q-53 0 -93 4.5t-73 9.5q-13 2 -16 6t-3 12v40q0 8 5 12t12 4h3q17 -2 38.5 -3t44 -1.5t44 -1t38.5 -0.5q45 0 74.5 8.5t46.5 24t24 37.5t7 48q0 19 -6 34.5t-20 30.5t-37 31.5t-57 37.5l-97 59
q-69 42 -103.5 84.5t-34.5 102.5q0 91 62 134t177 43q22 0 46.5 -1t48 -2.5t44.5 -4t35 -4.5q17 -3 17 -17v-43q0 -16 -17 -16h-2q-33 2 -80.5 4t-91.5 2q-78 0 -112.5 -20t-34.5 -75q0 -35 26 -61t83 -60l92 -55q43 -26 73 -50t49 -48t27 -50t8 -56zM456 943q0 -6 -4 -10
l-97 -124q-7 -8 -11.5 -11.5t-13.5 -3.5h-85q-9 0 -13 3.5t-11 11.5l-98 124q-4 4 -4 10q0 7 9 7h54q8 0 12 -4t11 -12l83 -96l82 96q7 8 11 12t12 4h54q9 0 9 -7z" />
    <glyph glyph-name="scaron" unicode="&#x161;" horiz-adv-x="466" 
d="M416 138q0 -38 -13.5 -65.5t-38 -45t-59 -26t-76.5 -8.5q-14 0 -33.5 0.5t-41 2.5t-43.5 4.5t-40 7.5q-21 5 -21 20v35q0 7 5 11t13 4h4q18 -2 39.5 -4t43.5 -3.5t41 -2.5t33 -1q49 0 74 15t25 56q0 23 -16 40t-59 43l-101 60q-46 28 -74 61.5t-28 81.5q0 39 14 64.5
t38 41t57 21.5t72 6q42 0 81.5 -3.5t74.5 -9.5q19 -3 19 -20v-33q0 -17 -17 -17h-3q-26 2 -69.5 5t-85.5 3t-67.5 -10t-25.5 -48q0 -23 17 -39.5t52 -36.5l99 -59q62 -37 86 -72t24 -79zM396 772q0 -6 -4 -10l-97 -124q-7 -8 -11.5 -11.5t-13.5 -3.5h-85q-9 0 -13 3.5
t-11 11.5l-98 124q-4 4 -4 10q0 7 9 7h54q8 0 12 -4t11 -12l83 -96l82 96q7 8 11 12t12 4h54q9 0 9 -7z" />
    <glyph glyph-name="Tcommaaccent" unicode="&#x162;" horiz-adv-x="590" 
d="M333 -49q11 0 11 -11l-1 -8l-54 -109q-5 -10 -9 -14.5t-15 -4.5h-41q-3 0 -6 1.5t-3 6.5q0 4 1 8l28 112q4 19 20 19h69zM555 681q0 -16 -19 -16h-195v-645q0 -8 -5 -14t-13 -6h-55q-8 0 -13 6t-5 14v645h-195q-8 0 -14 4t-6 12v44q0 8 6 13t14 5h481q19 0 19 -18v-44z
" />
    <glyph glyph-name="tcommaaccent" unicode="&#x163;" horiz-adv-x="385" 
d="M246 -49q11 0 11 -11l-1 -8l-54 -109q-5 -10 -9 -14.5t-15 -4.5h-41q-3 0 -6 1.5t-3 6.5q0 4 1 8l28 112q4 19 20 19h69zM360 15q0 -14 -18 -17q-15 -2 -33 -3.5t-32 -1.5q-35 0 -60.5 5.5t-42 20.5t-25 41t-8.5 67v349l-97 11q-19 2 -19 18v27q0 18 19 18h97v98
q0 17 18 20l52 8h3q6 0 10.5 -4.5t4.5 -12.5v-109h108q8 0 14 -6t6 -14v-34q0 -8 -6 -14t-14 -6h-108v-349q0 -41 12 -52t42 -11h56q21 0 21 -14v-35z" />
    <glyph glyph-name="Tcaron" unicode="&#x164;" horiz-adv-x="590" 
d="M555 681q0 -16 -19 -16h-195v-645q0 -8 -5 -14t-13 -6h-55q-8 0 -13 6t-5 14v645h-195q-8 0 -14 4t-6 12v44q0 8 6 13t14 5h481q19 0 19 -18v-44zM464 943q0 -6 -4 -10l-97 -124q-7 -8 -11.5 -11.5t-13.5 -3.5h-85q-9 0 -13 3.5t-11 11.5l-98 124q-4 4 -4 10q0 7 9 7h54
q8 0 12 -4t11 -12l83 -96l82 96q7 8 11 12t12 4h54q9 0 9 -7z" />
    <glyph glyph-name="tcaron" unicode="&#x165;" horiz-adv-x="513" 
d="M538 741q0 -2 -2 -8l-75 -189q-4 -10 -7.5 -14.5t-11.5 -4.5h-41q-12 0 -12 12q0 5 1 7l57 189q6 19 20 19h58q13 0 13 -11zM360 15q0 -14 -18 -17q-15 -2 -33 -3.5t-32 -1.5q-35 0 -60.5 5.5t-42 20.5t-25 41t-8.5 67v349l-97 11q-19 2 -19 18v27q0 18 19 18h97v98
q0 17 18 20l52 8h3q6 0 10.5 -4.5t4.5 -12.5v-109h108q8 0 14 -6t6 -14v-34q0 -8 -6 -14t-14 -6h-108v-349q0 -41 12 -52t42 -11h56q21 0 21 -14v-35z" />
    <glyph glyph-name="Tbar" unicode="&#x166;" horiz-adv-x="590" 
d="M341 465v-445q0 -8 -5 -14t-13 -6h-55q-8 0 -13 6t-5 14v445h-195q-8 0 -14 4t-6 12v44q0 8 6 13t14 5h195v122h-195q-8 0 -14 4t-6 12v44q0 8 6 13t14 5h481q19 0 19 -18v-44q0 -16 -19 -16h-195v-122h195q19 0 19 -18v-44q0 -16 -19 -16h-195z" />
    <glyph glyph-name="tbar" unicode="&#x167;" horiz-adv-x="385" 
d="M360 15q0 -14 -18 -17q-15 -2 -33 -3.5t-32 -1.5q-35 0 -60.5 5.5t-42 20.5t-25 41t-8.5 67v179l-97 11q-19 2 -19 18v27q0 18 19 18h97v96l-97 11q-19 2 -19 18v27q0 18 19 18h97v98q0 17 18 20l52 8h3q6 0 10.5 -4.5t4.5 -12.5v-109h108q8 0 14 -6t6 -14v-34
q0 -8 -6 -14t-14 -6h-108v-96h108q8 0 14 -6t6 -14v-34q0 -8 -6 -14t-14 -6h-108v-179q0 -41 12 -52t42 -11h56q21 0 21 -14v-35v0z" />
    <glyph glyph-name="Utilde" unicode="&#x168;" horiz-adv-x="662" 
d="M587 270q0 -143 -67.5 -210t-188.5 -67q-122 0 -189 67t-67 210v454q0 8 5.5 13.5t13.5 5.5h54q8 0 13.5 -5.5t5.5 -13.5v-454q0 -48 8 -85.5t27.5 -62.5t50.5 -38t78 -13q46 0 77.5 13t51 38t27.5 62t8 86v454q0 8 5.5 13.5t13.5 5.5h54q8 0 13.5 -5.5t5.5 -13.5v-454z
M505 892q0 -52 -21.5 -78.5t-72.5 -26.5q-17 0 -33.5 5t-30.5 16l-61 49q-18 14 -25 18t-16 4q-18 0 -24.5 -11.5t-6.5 -34.5v-21q0 -7 -5 -12t-12 -5h-31q-7 0 -11.5 5t-4.5 12v21q0 54 25 81.5t70 27.5q17 0 31.5 -6.5t28.5 -17.5l71 -56q8 -6 18 -10t17 -4q15 0 22.5 9
t7.5 35v23q0 7 5 12t12 5h31q7 0 11.5 -5t4.5 -12v-23z" />
    <glyph glyph-name="utilde" unicode="&#x169;" horiz-adv-x="557" 
d="M489 20q0 -8 -5.5 -14t-13.5 -6h-50q-8 0 -13.5 6t-5.5 14v19q-42 -23 -78 -34.5t-81 -11.5q-91 0 -132.5 54t-41.5 154v329q0 8 6 14t14 6h48q8 0 14 -6t6 -14v-329q0 -38 6.5 -63.5t20 -40.5t34 -21.5t49.5 -6.5q32 0 66 11t69 28v422q0 8 6 14t14 6h49q8 0 13.5 -6
t5.5 -14v-510zM459 721q0 -52 -21.5 -78.5t-72.5 -26.5q-17 0 -33.5 5t-30.5 16l-61 49q-18 14 -25 18t-16 4q-18 0 -24.5 -11.5t-6.5 -34.5v-21q0 -7 -5 -12t-12 -5h-31q-7 0 -11.5 5t-4.5 12v21q0 54 25 81.5t70 27.5q17 0 31.5 -6.5t28.5 -17.5l71 -56q8 -6 18 -10t17 -4
q15 0 22.5 9t7.5 35v23q0 7 5 12t12 5h31q7 0 11.5 -5t4.5 -12v-23z" />
    <glyph glyph-name="Umacron" unicode="&#x16a;" horiz-adv-x="662" 
d="M587 270q0 -143 -67.5 -210t-188.5 -67q-122 0 -189 67t-67 210v454q0 8 5.5 13.5t13.5 5.5h54q8 0 13.5 -5.5t5.5 -13.5v-454q0 -48 8 -85.5t27.5 -62.5t50.5 -38t78 -13q46 0 77.5 13t51 38t27.5 62t8 86v454q0 8 5.5 13.5t13.5 5.5h54q8 0 13.5 -5.5t5.5 -13.5v-454z
M495 837q0 -8 -6 -12.5t-14 -4.5h-288q-8 0 -14 4.5t-6 12.5v34q0 8 6 12.5t14 4.5h288q8 0 14 -4.5t6 -12.5v-34z" />
    <glyph glyph-name="umacron" unicode="&#x16b;" horiz-adv-x="557" 
d="M489 20q0 -8 -5.5 -14t-13.5 -6h-50q-8 0 -13.5 6t-5.5 14v19q-42 -23 -78 -34.5t-81 -11.5q-91 0 -132.5 54t-41.5 154v329q0 8 6 14t14 6h48q8 0 14 -6t6 -14v-329q0 -38 6.5 -63.5t20 -40.5t34 -21.5t49.5 -6.5q32 0 66 11t69 28v422q0 8 6 14t14 6h49q8 0 13.5 -6
t5.5 -14v-510zM443 666q0 -8 -6 -12.5t-14 -4.5h-288q-8 0 -14 4.5t-6 12.5v34q0 8 6 12.5t14 4.5h288q8 0 14 -4.5t6 -12.5v-34z" />
    <glyph glyph-name="Ubreve" unicode="&#x16c;" horiz-adv-x="662" 
d="M587 270q0 -143 -67.5 -210t-188.5 -67q-122 0 -189 67t-67 210v454q0 8 5.5 13.5t13.5 5.5h54q8 0 13.5 -5.5t5.5 -13.5v-454q0 -48 8 -85.5t27.5 -62.5t50.5 -38t78 -13q46 0 77.5 13t51 38t27.5 62t8 86v454q0 8 5.5 13.5t13.5 5.5h54q8 0 13.5 -5.5t5.5 -13.5v-454z
M491 936q-3 -35 -17.5 -61.5t-37 -44t-51 -26.5t-57.5 -9t-57.5 9t-51 26.5t-37 44t-17.5 61.5v4q0 13 11 13h37q14 0 15 -16q2 -20 11.5 -35t23 -25t30.5 -15t35 -5t35 5t30.5 15t23 25t11.5 35q1 16 15 16h37q11 0 11 -13v-4z" />
    <glyph glyph-name="ubreve" unicode="&#x16d;" horiz-adv-x="557" 
d="M489 20q0 -8 -5.5 -14t-13.5 -6h-50q-8 0 -13.5 6t-5.5 14v19q-42 -23 -78 -34.5t-81 -11.5q-91 0 -132.5 54t-41.5 154v329q0 8 6 14t14 6h48q8 0 14 -6t6 -14v-329q0 -38 6.5 -63.5t20 -40.5t34 -21.5t49.5 -6.5q32 0 66 11t69 28v422q0 8 6 14t14 6h49q8 0 13.5 -6
t5.5 -14v-510zM441 762q-3 -35 -17.5 -61.5t-37 -44t-51 -26.5t-57.5 -9t-57.5 9t-51 26.5t-37 44t-17.5 61.5v4q0 13 11 13h37q14 0 15 -16q2 -20 11.5 -35t23 -25t30.5 -15t35 -5t35 5t30.5 15t23 25t11.5 35q1 16 15 16h37q11 0 11 -13v-4z" />
    <glyph glyph-name="Uring" unicode="&#x16e;" horiz-adv-x="662" 
d="M587 270q0 -143 -67.5 -210t-188.5 -67q-122 0 -189 67t-67 210v454q0 8 5.5 13.5t13.5 5.5h54q8 0 13.5 -5.5t5.5 -13.5v-454q0 -48 8 -85.5t27.5 -62.5t50.5 -38t78 -13q46 0 77.5 13t51 38t27.5 62t8 86v454q0 8 5.5 13.5t13.5 5.5h54q8 0 13.5 -5.5t5.5 -13.5v-454z
M433 878q0 -21 -8 -39.5t-21.5 -32t-32 -21.5t-39.5 -8t-39.5 8t-32.5 21.5t-22 32t-8 39.5t8 39.5t22 32.5t32.5 22t39.5 8t39.5 -8t32 -22t21.5 -32.5t8 -39.5zM385 879q0 22 -15.5 37t-37.5 15t-37 -15t-15 -37t15 -37.5t37 -15.5t37.5 15.5t15.5 37.5z" />
    <glyph glyph-name="uring" unicode="&#x16f;" horiz-adv-x="557" 
d="M489 20q0 -8 -5.5 -14t-13.5 -6h-50q-8 0 -13.5 6t-5.5 14v19q-42 -23 -78 -34.5t-81 -11.5q-91 0 -132.5 54t-41.5 154v329q0 8 6 14t14 6h48q8 0 14 -6t6 -14v-329q0 -38 6.5 -63.5t20 -40.5t34 -21.5t49.5 -6.5q32 0 66 11t69 28v422q0 8 6 14t14 6h49q8 0 13.5 -6
t5.5 -14v-510zM380 703q0 -21 -8 -39.5t-21.5 -32t-32 -21.5t-39.5 -8t-39.5 8t-32.5 21.5t-22 32t-8 39.5t8 39.5t22 32.5t32.5 22t39.5 8t39.5 -8t32 -22t21.5 -32.5t8 -39.5zM332 704q0 22 -15.5 37t-37.5 15t-37 -15t-15 -37t15 -37.5t37 -15.5t37.5 15.5t15.5 37.5z
" />
    <glyph glyph-name="Uhungarumlaut" unicode="&#x170;" horiz-adv-x="662" 
d="M587 270q0 -143 -67.5 -210t-188.5 -67q-122 0 -189 67t-67 210v454q0 8 5.5 13.5t13.5 5.5h54q8 0 13.5 -5.5t5.5 -13.5v-454q0 -48 8 -85.5t27.5 -62.5t50.5 -38t78 -13q46 0 77.5 13t51 38t27.5 62t8 86v454q0 8 5.5 13.5t13.5 5.5h54q8 0 13.5 -5.5t5.5 -13.5v-454z
M555 943q0 -4 -4 -8l-112 -126q-7 -8 -11 -11.5t-12 -3.5h-54q-9 0 -9 7q0 6 4 10l97 124q7 8 11.5 11.5t13.5 3.5h65q11 0 11 -7zM380 943q0 -4 -4 -8l-112 -126q-7 -8 -11 -11.5t-12 -3.5h-54q-9 0 -9 7q0 6 4 10l97 124q7 8 11.5 11.5t13.5 3.5h65q11 0 11 -7z" />
    <glyph glyph-name="uhungarumlaut" unicode="&#x171;" horiz-adv-x="557" 
d="M489 20q0 -8 -5.5 -14t-13.5 -6h-50q-8 0 -13.5 6t-5.5 14v19q-42 -23 -78 -34.5t-81 -11.5q-91 0 -132.5 54t-41.5 154v329q0 8 6 14t14 6h48q8 0 14 -6t6 -14v-329q0 -38 6.5 -63.5t20 -40.5t34 -21.5t49.5 -6.5q32 0 66 11t69 28v422q0 8 6 14t14 6h49q8 0 13.5 -6
t5.5 -14v-510zM502 772q0 -4 -4 -8l-112 -126q-7 -8 -11 -11.5t-12 -3.5h-54q-9 0 -9 7q0 6 4 10l97 124q7 8 11.5 11.5t13.5 3.5h65q11 0 11 -7zM327 772q0 -4 -4 -8l-112 -126q-7 -8 -11 -11.5t-12 -3.5h-54q-9 0 -9 7q0 6 4 10l97 124q7 8 11.5 11.5t13.5 3.5h65
q11 0 11 -7z" />
    <glyph glyph-name="Uogonek" unicode="&#x172;" horiz-adv-x="662" 
d="M587 270q0 -44 -5 -79.5t-18 -65t-34.5 -54t-53.5 -46.5l-96 -67q-26 -18 -40 -30t-14 -32q0 -19 15.5 -28.5t53.5 -9.5q24 0 45 5t26 5t5 -8v-39q0 -8 -11 -11q-2 -1 -23 -5.5t-53 -4.5q-37 0 -62 7.5t-40.5 20.5t-22 30.5t-6.5 37.5q0 19 6.5 34t16 26.5t21 18.5
t20.5 12l11 6q-121 1 -187 67.5t-66 209.5v454q0 8 5.5 13.5t13.5 5.5h54q8 0 13.5 -5.5t5.5 -13.5v-454q0 -48 8 -85.5t27.5 -62.5t50.5 -38t78 -13q46 0 77.5 13t51 38t27.5 62t8 86v454q0 8 5.5 13.5t13.5 5.5h54q8 0 13.5 -5.5t5.5 -13.5v-454v0z" />
    <glyph glyph-name="uogonek" unicode="&#x173;" horiz-adv-x="557" 
d="M403 40q-42 -23 -79 -35t-82 -12q-91 0 -132.5 54t-41.5 154v329q0 8 6 14t14 6h48q8 0 14 -6t6 -14v-329q0 -38 6.5 -63.5t20 -40.5t34 -21.5t49.5 -6.5q32 0 66 11t69 28v422q0 8 6 14t14 6h49q8 0 13.5 -6t5.5 -14v-510q0 -5 -1.5 -8.5t-6.5 -7.5l-67 -46
q-26 -18 -40 -32t-14 -35q0 -15 10.5 -24t45.5 -9q24 0 41.5 5t22.5 5t5 -8v-39q0 -8 -11 -11q-2 -1 -19.5 -5.5t-49.5 -4.5q-68 0 -93.5 26.5t-25.5 66.5q0 33 17.5 53.5t47.5 40.5l52 33v20z" />
    <glyph glyph-name="Wcircumflex" unicode="&#x174;" horiz-adv-x="825" 
d="M791 723l-111 -676q-5 -31 -21.5 -41t-40.5 -10h-43q-21 0 -36 13.5t-21 36.5l-98 370q-2 7 -3 8t-3 1h-1h-1q-2 0 -3 -1t-3 -8l-99 -370q-6 -23 -21 -36.5t-36 -13.5h-42q-24 0 -40.5 10t-21.5 41l-111 676v3q0 17 17 17h58q14 0 17 -17l97 -637q2 -8 2 -11.5t3 -3.5
q4 0 7 15l98 370q10 40 47 40h64q37 0 47 -40l98 -370q3 -15 7 -15q3 0 3 3.5t2 11.5l97 637q3 17 17 17h58q17 0 17 -17v-3zM579 801q0 -7 -9 -7h-52q-8 0 -12 3.5t-11 11.5l-82 97l-83 -97q-7 -8 -11 -11.5t-12 -3.5h-52q-9 0 -9 7q0 6 4 10l96 124q7 8 11 11.5t13 3.5h85
q9 0 13.5 -3.5t11.5 -11.5l95 -124q4 -4 4 -10z" />
    <glyph glyph-name="wcircumflex" unicode="&#x175;" horiz-adv-x="786" 
d="M748 526l-97 -464q-5 -24 -10 -37.5t-14 -20.5t-23.5 -9t-36.5 -2q-20 0 -33 2.5t-22 10t-15 21.5t-12 38l-87 340q-2 5 -2.5 6t-2.5 1t-2.5 -1t-2.5 -6l-87 -340q-6 -22 -12 -36t-15 -22t-22.5 -11t-32.5 -3q-23 0 -37 2t-23 9t-14 21t-10 37l-97 464v4q0 8 5.5 14
t13.5 6h54q7 0 11.5 -5t5.5 -11l83 -456q2 -9 4 -10.5t4 -1.5q5 0 8 12l98 384q5 17 14.5 23.5t25.5 6.5h56q16 0 25.5 -6.5t14.5 -23.5l98 -384q3 -12 8 -12q2 0 4 1.5t4 10.5l83 456q1 6 5.5 11t11.5 5h54q8 0 13.5 -6t5.5 -14v-4zM560 630q0 -7 -9 -7h-52q-8 0 -12 3.5
t-11 11.5l-82 97l-83 -97q-7 -8 -11 -11.5t-12 -3.5h-52q-9 0 -9 7q0 6 4 10l96 124q7 8 11 11.5t13 3.5h85q9 0 13.5 -3.5t11.5 -11.5l95 -124q4 -4 4 -10z" />
    <glyph glyph-name="Ycircumflex" unicode="&#x176;" horiz-adv-x="583" 
d="M549 729q0 -5 -3 -11l-155 -348q-14 -30 -27 -45t-27 -21v-284q0 -8 -5 -14t-13 -6h-55q-8 0 -13 6t-5 14v284q-14 5 -27 20.5t-27 45.5l-154 348q-3 6 -3 11q0 14 17 14h61q5 0 10.5 -4.5t7.5 -9.5l138 -324q8 -17 13 -21.5t10 -4.5t10 4.5t13 21.5l139 324q2 5 6.5 9.5
t10.5 4.5h61q17 0 17 -14zM460 802q0 -7 -9 -7h-52q-8 0 -12 3.5t-11 11.5l-82 97l-83 -97q-7 -8 -11 -11.5t-12 -3.5h-52q-9 0 -9 7q0 6 4 10l96 124q7 8 11 11.5t13 3.5h85q9 0 13.5 -3.5t11.5 -11.5l95 -124q4 -4 4 -10z" />
    <glyph glyph-name="ycircumflex" unicode="&#x177;" horiz-adv-x="534" 
d="M495 533q0 -5 -1 -7l-165 -576q-12 -41 -25.5 -69t-34.5 -45.5t-50.5 -25.5t-72.5 -8q-21 0 -44.5 2.5t-39.5 6.5q-9 2 -15 5t-6 11v37q0 16 19 16h3q17 -2 44.5 -4t44.5 -2q21 0 37 3.5t27.5 13t20 26t14.5 42.5l10 41h-14q-11 0 -21.5 2t-20 9t-17.5 21t-15 37
l-133 457q-1 2 -1 7q0 17 18 17h55q6 0 10.5 -5t6.5 -11l118 -434q4 -15 9 -18.5t10 -3.5h16l122 457q2 6 7 10.5t12 4.5h56q16 0 16 -17zM434 630q0 -7 -9 -7h-52q-8 0 -12 3.5t-11 11.5l-82 97l-83 -97q-7 -8 -11 -11.5t-12 -3.5h-52q-9 0 -9 7q0 6 4 10l96 124
q7 8 11 11.5t13 3.5h85q9 0 13.5 -3.5t11.5 -11.5l95 -124q4 -4 4 -10z" />
    <glyph glyph-name="Ydieresis" unicode="&#x178;" horiz-adv-x="583" 
d="M549 729q0 -5 -3 -11l-155 -348q-14 -30 -27 -45t-27 -21v-284q0 -8 -5 -14t-13 -6h-55q-8 0 -13 6t-5 14v284q-14 5 -27 20.5t-27 45.5l-154 348q-3 6 -3 11q0 14 17 14h61q5 0 10.5 -4.5t7.5 -9.5l138 -324q8 -17 13 -21.5t10 -4.5t10 4.5t13 21.5l139 324q2 5 6.5 9.5
t10.5 4.5h61q17 0 17 -14zM418 821q0 -8 -6 -13.5t-14 -5.5h-39q-8 0 -14 5.5t-6 13.5v81q0 8 6 14t14 6h39q8 0 14 -6t6 -14v-81zM243 821q0 -8 -6 -13.5t-14 -5.5h-39q-8 0 -14 5.5t-6 13.5v81q0 8 6 14t14 6h39q8 0 14 -6t6 -14v-81z" />
    <glyph glyph-name="Zacute" unicode="&#x179;" horiz-adv-x="597" 
d="M544 18q0 -8 -6 -13t-14 -5h-385q-48 0 -65.5 14t-17.5 54q0 13 3.5 30t11.5 28l358 521q3 4 3 8q0 7 -10 7h-332q-8 0 -14 4.5t-6 12.5v47q0 8 6 12.5t14 4.5h356q42 0 63.5 -12.5t21.5 -53.5q0 -14 -4 -31t-12 -28l-357 -521q-3 -5 -3 -9q0 -6 10 -6h359q8 0 14 -4.5
t6 -12.5v-47zM435 943q0 -4 -4 -8l-113 -126q-7 -8 -11 -11.5t-12 -3.5h-54q-9 0 -9 7q0 6 4 10l98 124q7 8 11 11.5t13 3.5h66q11 0 11 -7z" />
    <glyph glyph-name="zacute" unicode="&#x17a;" horiz-adv-x="482" 
d="M432 20q0 -8 -6 -14t-14 -6h-302q-32 0 -46.5 17t-14.5 38v19q0 21 5 34.5t18 30.5l258 321q4 6 4 9q0 7 -10 7h-243q-8 0 -14 6t-6 14v34q0 8 6 14t14 6h294q31 0 43.5 -13t12.5 -36v-24q0 -16 -5.5 -28.5t-17.5 -26.5l-263 -329q-5 -5 -5 -11q0 -8 8 -8h264q8 0 14 -6
t6 -14v-34zM398 772q0 -4 -4 -8l-113 -126q-7 -8 -11 -11.5t-12 -3.5h-54q-9 0 -9 7q0 6 4 10l98 124q7 8 11 11.5t13 3.5h66q11 0 11 -7z" />
    <glyph glyph-name="Zdotaccent" unicode="&#x17b;" horiz-adv-x="597" 
d="M544 18q0 -8 -6 -13t-14 -5h-385q-48 0 -65.5 14t-17.5 54q0 13 3.5 30t11.5 28l358 521q3 4 3 8q0 7 -10 7h-332q-8 0 -14 4.5t-6 12.5v47q0 8 6 12.5t14 4.5h356q42 0 63.5 -12.5t21.5 -53.5q0 -14 -4 -31t-12 -28l-357 -521q-3 -5 -3 -9q0 -6 10 -6h359q8 0 14 -4.5
t6 -12.5v-47zM342 829q0 -8 -5.5 -14t-13.5 -6h-48q-8 0 -14 6t-6 14v84q0 8 6 13.5t14 5.5h48q8 0 13.5 -5.5t5.5 -13.5v-84z" />
    <glyph glyph-name="zdotaccent" unicode="&#x17c;" horiz-adv-x="482" 
d="M432 20q0 -8 -6 -14t-14 -6h-302q-32 0 -46.5 17t-14.5 38v19q0 21 5 34.5t18 30.5l258 321q4 6 4 9q0 7 -10 7h-243q-8 0 -14 6t-6 14v34q0 8 6 14t14 6h294q31 0 43.5 -13t12.5 -36v-24q0 -16 -5.5 -28.5t-17.5 -26.5l-263 -329q-5 -5 -5 -11q0 -8 8 -8h264q8 0 14 -6
t6 -14v-34zM285 658q0 -8 -5.5 -14t-13.5 -6h-48q-8 0 -14 6t-6 14v84q0 8 6 13.5t14 5.5h48q8 0 13.5 -5.5t5.5 -13.5v-84z" />
    <glyph glyph-name="Zcaron" unicode="&#x17d;" horiz-adv-x="597" 
d="M544 18q0 -8 -6 -13t-14 -5h-385q-48 0 -65.5 14t-17.5 54q0 13 3.5 30t11.5 28l358 521q3 4 3 8q0 7 -10 7h-332q-8 0 -14 4.5t-6 12.5v47q0 8 6 12.5t14 4.5h356q42 0 63.5 -12.5t21.5 -53.5q0 -14 -4 -31t-12 -28l-357 -521q-3 -5 -3 -9q0 -6 10 -6h359q8 0 14 -4.5
t6 -12.5v-47zM470 943q0 -6 -4 -10l-97 -124q-7 -8 -11.5 -11.5t-13.5 -3.5h-85q-9 0 -13 3.5t-11 11.5l-98 124q-4 4 -4 10q0 7 9 7h54q8 0 12 -4t11 -12l83 -96l82 96q7 8 11 12t12 4h54q9 0 9 -7z" />
    <glyph glyph-name="zcaron" unicode="&#x17e;" horiz-adv-x="482" 
d="M432 20q0 -8 -6 -14t-14 -6h-302q-32 0 -46.5 17t-14.5 38v19q0 21 5 34.5t18 30.5l258 321q4 6 4 9q0 7 -10 7h-243q-8 0 -14 6t-6 14v34q0 8 6 14t14 6h294q31 0 43.5 -13t12.5 -36v-24q0 -16 -5.5 -28.5t-17.5 -26.5l-263 -329q-5 -5 -5 -11q0 -8 8 -8h264q8 0 14 -6
t6 -14v-34zM413 772q0 -6 -4 -10l-97 -124q-7 -8 -11.5 -11.5t-13.5 -3.5h-85q-9 0 -13 3.5t-11 11.5l-98 124q-4 4 -4 10q0 7 9 7h54q8 0 12 -4t11 -12l83 -96l82 96q7 8 11 12t12 4h54q9 0 9 -7z" />
    <glyph glyph-name="florin" unicode="&#x192;" 
d="M548 739l-4 -32q-2 -15 -24 -15h-55q-36 0 -52.5 -14.5t-21.5 -53.5l-27 -196h143q17 0 17 -15v-3l-5 -37q-1 -8 -7.5 -13t-14.5 -5h-143l-50 -357q-6 -39 -20 -65.5t-34.5 -42t-47.5 -22.5t-58 -7q-26 0 -42 1.5t-27 3.5q-17 3 -17 14v3l4 32q1 15 24 15h55
q36 0 52.5 14.5t21.5 53.5l50 357h-128q-8 0 -13 4t-5 12v2l5 37q1 8 8 13t15 5h128l27 196q11 78 54 107.5t106 29.5q26 0 42 -1.5t27 -3.5q17 -3 17 -14v-3z" />
    <glyph glyph-name="AEacute" unicode="&#x1fc;" horiz-adv-x="859" 
d="M804 14q0 -5 -2.5 -9t-7.5 -5q-11 -1 -29.5 -2.5t-41.5 -2.5t-47.5 -1.5t-46.5 -0.5q-106 0 -159.5 43t-53.5 143v66h-239l-64 -230q-2 -6 -7 -10.5t-11 -4.5h-59q-17 0 -17 16q0 5 1 7l185 645q7 23 18.5 37.5t25 23t29 11.5t29.5 3h487q5 0 7.5 -4.5t2.5 -9.5v-53
q0 -12 -11 -12h-286v-239h277q8 0 14 -6t6 -14v-38q0 -8 -6 -14t-14 -6h-277v-168q0 -29 4.5 -48.5t17.5 -32t37 -18t64 -5.5h163q11 0 11 -12v-49zM416 664h-109q-15 0 -20 -17l-91 -323h220v340zM669 944q0 -4 -4 -8l-113 -126q-7 -8 -11 -11.5t-12 -3.5h-54q-9 0 -9 7
q0 6 4 10l98 124q7 8 11 11.5t13 3.5h66q11 0 11 -7z" />
    <glyph glyph-name="aeacute" unicode="&#x1fd;" horiz-adv-x="853" 
d="M803 269q0 -22 -19 -22h-333v-32q0 -77 35.5 -112.5t110.5 -35.5q44 0 90 4.5t81 9.5h2h3q16 0 16 -14v-34q0 -10 -4 -15.5t-16 -7.5q-43 -8 -84.5 -12.5t-92.5 -4.5q-58 0 -99.5 12.5t-73.5 46.5q-35 -30 -82.5 -44.5t-97.5 -14.5q-37 0 -71.5 9.5t-61 29.5t-42.5 51
t-16 75v9q0 41 12.5 71.5t41 50.5t74.5 30t113 10h75v40q0 63 -24.5 88t-83.5 25q-49 0 -86 -2.5t-67 -5.5h-2h-3q-8 0 -13 3.5t-5 12.5v35q0 16 21 19q31 5 67.5 9t87.5 4q62 0 102.5 -18t63.5 -52q28 33 68.5 51.5t94.5 18.5q55 0 96 -18.5t68 -51.5t40.5 -78t13.5 -98
v-42zM716 319q0 163 -131 163q-65 0 -99.5 -42.5t-34.5 -120.5v-5h265v5zM364 265h-75q-45 0 -74.5 -5.5t-47 -17t-24 -30t-6.5 -45.5v-9q0 -27 9 -45t25 -29t36.5 -16t43.5 -5q31 0 61.5 7.5t51.5 23.5v171zM592 772q0 -4 -4 -8l-113 -126q-7 -8 -11 -11.5t-12 -3.5h-54
q-9 0 -9 7q0 6 4 10l98 124q7 8 11 11.5t13 3.5h66q11 0 11 -7z" />
    <glyph glyph-name="Oslashacute" unicode="&#x1fe;" horiz-adv-x="661" 
d="M633 735q0 -4 -3 -8l-71 -98q20 -36 31 -84t11 -109v-129q0 -83 -20 -142.5t-56 -97.5t-85.5 -56t-108.5 -18q-54 0 -101 15.5t-82 47.5l-31 -44q-5 -6 -11 -12.5t-14 -6.5h-53q-11 0 -11 11q0 3 3 8l72 100q-43 74 -43 195v129q0 83 20.5 142.5t56.5 97.5t85.5 56
t108.5 18q55 0 102 -15.5t82 -48.5l29 41q5 6 11.5 12.5t14.5 6.5h52q11 0 11 -11zM462 613q-45 55 -131 55q-41 0 -74 -12.5t-56.5 -40.5t-36 -72t-12.5 -107v-129q0 -32 3.5 -58.5t9.5 -49.5zM509 436q0 62 -12 106l-297 -414q23 -28 56 -40.5t75 -12.5q41 0 74 12.5
t56 40.5t35.5 72t12.5 107v129zM485 943q0 -4 -4 -8l-113 -126q-7 -8 -11 -11.5t-12 -3.5h-54q-9 0 -9 7q0 6 4 10l98 124q7 8 11 11.5t13 3.5h66q11 0 11 -7z" />
    <glyph glyph-name="oslashacute" unicode="&#x1ff;" horiz-adv-x="545" 
d="M528 575q0 -7 -4 -11l-70 -94q41 -62 41 -157v-76q0 -55 -14 -100t-42 -77t-70 -49.5t-97 -17.5q-85 0 -139 42l-44 -60q-5 -7 -8 -8.5t-8 -1.5h-49q-8 0 -8 8q0 7 4 11l71 96q-41 62 -41 157v76q0 55 14 100t42 77t69.5 49.5t96.5 17.5q86 0 140 -42l42 58q5 7 8 8.5
t8 1.5h50q8 0 8 -8zM362 449q-34 31 -90 31q-71 0 -102.5 -44.5t-31.5 -122.5v-76q0 -46 10 -79zM407 313q0 42 -11 78l-214 -290q33 -31 90 -31q71 0 103 44.5t32 122.5v76zM422 772q0 -4 -4 -8l-113 -126q-7 -8 -11 -11.5t-12 -3.5h-54q-9 0 -9 7q0 6 4 10l98 124
q7 8 11 11.5t13 3.5h66q11 0 11 -7z" />
    <glyph glyph-name="uni0218" unicode="&#x218;" horiz-adv-x="550" 
d="M319 -49q11 0 11 -11l-1 -8l-54 -109q-5 -10 -9 -14.5t-15 -4.5h-41q-3 0 -6 1.5t-3 6.5q0 4 1 8l28 112q4 19 20 19h69zM500 193q0 -36 -11 -72t-38.5 -64.5t-75.5 -46t-122 -17.5q-53 0 -93 4.5t-73 9.5q-13 2 -16 6t-3 12v40q0 8 5 12t12 4h3q17 -2 38.5 -3t44 -1.5
t44 -1t38.5 -0.5q45 0 74.5 8.5t46.5 24t24 37.5t7 48q0 19 -6 34.5t-20 30.5t-37 31.5t-57 37.5l-97 59q-69 42 -103.5 84.5t-34.5 102.5q0 91 62 134t177 43q22 0 46.5 -1t48 -2.5t44.5 -4t35 -4.5q17 -3 17 -17v-43q0 -16 -17 -16h-2q-33 2 -80.5 4t-91.5 2
q-78 0 -112.5 -20t-34.5 -75q0 -35 26 -61t83 -60l92 -55q43 -26 73 -50t49 -48t27 -50t8 -56z" />
    <glyph glyph-name="uni0219" unicode="&#x219;" horiz-adv-x="466" 
d="M266 -49q11 0 11 -11l-1 -8l-54 -109q-5 -10 -9 -14.5t-15 -4.5h-41q-3 0 -6 1.5t-3 6.5q0 4 1 8l28 112q4 19 20 19h69zM416 138q0 -38 -13.5 -65.5t-38 -45t-59 -26t-76.5 -8.5q-14 0 -33.5 0.5t-41 2.5t-43.5 4.5t-40 7.5q-21 5 -21 20v35q0 7 5 11t13 4h4
q18 -2 39.5 -4t43.5 -3.5t41 -2.5t33 -1q49 0 74 15t25 56q0 23 -16 40t-59 43l-101 60q-46 28 -74 61.5t-28 81.5q0 39 14 64.5t38 41t57 21.5t72 6q42 0 81.5 -3.5t74.5 -9.5q19 -3 19 -20v-33q0 -17 -17 -17h-3q-26 2 -69.5 5t-85.5 3t-67.5 -10t-25.5 -48
q0 -23 17 -39.5t52 -36.5l99 -59q62 -37 86 -72t24 -79z" />
    <glyph glyph-name="uni021A" unicode="&#x21a;" horiz-adv-x="590" 
d="M333 -49q11 0 11 -11l-1 -8l-54 -109q-5 -10 -9 -14.5t-15 -4.5h-41q-3 0 -6 1.5t-3 6.5q0 4 1 8l28 112q4 19 20 19h69zM555 681q0 -16 -19 -16h-195v-645q0 -8 -5 -14t-13 -6h-55q-8 0 -13 6t-5 14v645h-195q-8 0 -14 4t-6 12v44q0 8 6 13t14 5h481q19 0 19 -18v-44z
" />
    <glyph glyph-name="uni021B" unicode="&#x21b;" horiz-adv-x="385" 
d="M246 -49q11 0 11 -11l-1 -8l-54 -109q-5 -10 -9 -14.5t-15 -4.5h-41q-3 0 -6 1.5t-3 6.5q0 4 1 8l28 112q4 19 20 19h69zM360 15q0 -14 -18 -17q-15 -2 -33 -3.5t-32 -1.5q-35 0 -60.5 5.5t-42 20.5t-25 41t-8.5 67v349l-97 11q-19 2 -19 18v27q0 18 19 18h97v98
q0 17 18 20l52 8h3q6 0 10.5 -4.5t4.5 -12.5v-109h108q8 0 14 -6t6 -14v-34q0 -8 -6 -14t-14 -6h-108v-349q0 -41 12 -52t42 -11h56q21 0 21 -14v-35z" />
    <glyph glyph-name="circumflex" unicode="&#x2c6;" horiz-adv-x="373" 
d="M353 630q0 -7 -9 -7h-52q-8 0 -12 3.5t-11 11.5l-82 97l-83 -97q-7 -8 -11 -11.5t-12 -3.5h-52q-9 0 -9 7q0 6 4 10l96 124q7 8 11 11.5t13 3.5h85q9 0 13.5 -3.5t11.5 -11.5l95 -124q4 -4 4 -10z" />
    <glyph glyph-name="caron" unicode="&#x2c7;" horiz-adv-x="373" 
d="M355 772q0 -6 -4 -10l-97 -124q-7 -8 -11.5 -11.5t-13.5 -3.5h-85q-9 0 -13 3.5t-11 11.5l-98 124q-4 4 -4 10q0 7 9 7h54q8 0 12 -4t11 -12l83 -96l82 96q7 8 11 12t12 4h54q9 0 9 -7z" />
    <glyph glyph-name="uni02C9" unicode="&#x2c9;" horiz-adv-x="373" 
d="M351 692q0 -8 -6 -12.5t-14 -4.5h-288q-8 0 -14 4.5t-6 12.5v34q0 8 6 12.5t14 4.5h288q8 0 14 -4.5t6 -12.5v-34v0z" />
    <glyph glyph-name="breve" unicode="&#x2d8;" horiz-adv-x="373" 
d="M350 762q-3 -35 -17.5 -61.5t-37 -44t-51 -26.5t-57.5 -9t-57.5 9t-51 26.5t-37 44t-17.5 61.5v4q0 13 11 13h37q14 0 15 -16q2 -20 11.5 -35t23 -25t30.5 -15t35 -5t35 5t30.5 15t23 25t11.5 35q1 16 15 16h37q11 0 11 -13v-4z" />
    <glyph glyph-name="dotaccent" unicode="&#x2d9;" horiz-adv-x="373" 
d="M230 658q0 -8 -5.5 -14t-13.5 -6h-48q-8 0 -14 6t-6 14v84q0 8 6 13.5t14 5.5h48q8 0 13.5 -5.5t5.5 -13.5v-84v0z" />
    <glyph glyph-name="ring" unicode="&#x2da;" horiz-adv-x="373" 
d="M288 703q0 -21 -8 -39.5t-21.5 -32t-32 -21.5t-39.5 -8t-39.5 8t-32.5 21.5t-22 32t-8 39.5t8 39.5t22 32.5t32.5 22t39.5 8t39.5 -8t32 -22t21.5 -32.5t8 -39.5zM240 704q0 22 -15.5 37t-37.5 15t-37 -15t-15 -37t15 -37.5t37 -15.5t37.5 15.5t15.5 37.5z" />
    <glyph glyph-name="ogonek" unicode="&#x2db;" horiz-adv-x="366" 
d="M297 -179q0 -8 -11 -11q-2 -1 -23 -5.5t-53 -4.5q-37 0 -62 7.5t-40.5 20.5t-22 30.5t-6.5 37.5q0 19 6.5 34t16.5 26t21 18.5t20 12.5l66 40q5 4 11.5 7t13.5 3h52q10 0 11.5 -7t-4.5 -12l-87 -60q-26 -17 -40 -29.5t-14 -32.5q0 -19 15.5 -28.5t53.5 -9.5q24 0 45 5
t26 5t5 -8v-39v0z" />
    <glyph glyph-name="tilde" unicode="&#x2dc;" horiz-adv-x="493" 
d="M419 731q0 -52 -21.5 -78.5t-72.5 -26.5q-17 0 -33.5 5t-30.5 16l-61 49q-18 14 -25 18t-16 4q-18 0 -24.5 -11.5t-6.5 -34.5v-21q0 -7 -5 -12t-12 -5h-31q-7 0 -11.5 5t-4.5 12v21q0 54 25 81.5t70 27.5q17 0 31.5 -6.5t28.5 -17.5l71 -56q8 -6 18 -10t17 -4
q15 0 22.5 9t7.5 35v23q0 7 5 12t12 5h31q7 0 11.5 -5t4.5 -12v-23v0z" />
    <glyph glyph-name="hungarumlaut" unicode="&#x2dd;" horiz-adv-x="373" 
d="M412 772q0 -4 -4 -8l-112 -126q-7 -8 -11 -11.5t-12 -3.5h-54q-9 0 -9 7q0 6 4 10l97 124q7 8 11.5 11.5t13.5 3.5h65q11 0 11 -7zM237 772q0 -4 -4 -8l-112 -126q-7 -8 -11 -11.5t-12 -3.5h-54q-9 0 -9 7q0 6 4 10l97 124q7 8 11.5 11.5t13.5 3.5h65q11 0 11 -7z" />
    <glyph glyph-name="uni03A9" unicode="&#x3a9;" horiz-adv-x="592" 
d="M556 21q0 -12 -6.5 -16.5t-16.5 -4.5h-181q-21 0 -21 21v113q0 14 3 18t11 7q62 22 93.5 77t31.5 137v88q0 61 -13.5 102t-37 65.5t-55 35t-68.5 10.5t-68.5 -10.5t-55 -35t-37 -65.5t-13.5 -102v-88q0 -82 31.5 -137t93.5 -77q8 -3 11 -7t3 -18v-113q0 -21 -21 -21h-181
q-10 0 -16.5 4.5t-6.5 16.5v34q0 12 6.5 16t16.5 4h121v37q-41 17 -69 44t-45.5 61t-25.5 74t-8 82v88q0 141 69 217.5t195 76.5t195 -76.5t69 -217.5v-88q0 -42 -8 -82t-25.5 -74t-46 -61t-68.5 -44v-37h121q10 0 16.5 -4t6.5 -16v-34v0z" />
    <glyph glyph-name="uni03BC" unicode="&#x3bc;" horiz-adv-x="557" 
d="M489 44q0 -17 -19 -23q-35 -13 -84.5 -20.5t-100.5 -7.5q-79 0 -129 29v-198q0 -8 -6 -14t-14 -6h-48q-8 0 -14 6t-6 14v706q0 8 5.5 14t13.5 6h50q8 0 13.5 -6t5.5 -14v-329q0 -70 31 -101.5t98 -31.5q30 0 61.5 3.5t54.5 10.5v448q0 8 6 14t14 6h49q8 0 13.5 -6
t5.5 -14v-486v0z" />
    <glyph glyph-name="pi" unicode="&#x3c0;" horiz-adv-x="552" 
d="M447 469v-335q0 -23 2 -37.5t7.5 -23t15 -11.5t25.5 -3h24q10 0 10 -11v-43q0 -8 -3 -9.5t-8 -3.5q-8 -2 -18 -3t-22 -1q-34 0 -57 8t-37 25t-20 45t-6 68v335h-166v-449q0 -7 -2 -13.5t-12 -6.5h-60q-9 0 -12 5.5t-3 14.5v449h-69q-8 0 -11.5 2.5t-3.5 12.5v50
q0 10 3.5 13t11.5 3h480q8 0 11.5 -3t3.5 -13v-50q0 -10 -3.5 -12.5t-11.5 -2.5h-69z" />
    <glyph glyph-name="afii10023" unicode="&#x401;" horiz-adv-x="551" 
d="M424 829q0 -8 -6 -13.5t-14 -5.5h-39q-8 0 -14 5.5t-6 13.5v81q0 8 6 14t14 6h39q8 0 14 -6t6 -14v-81zM249 829q0 -8 -6 -13.5t-14 -5.5h-39q-8 0 -14 5.5t-6 13.5v81q0 8 6 14t14 6h39q8 0 14 -6t6 -14v-81zM496 12q0 -5 -2.5 -9t-7.5 -5q-14 -2 -38 -2.5t-51.5 -1.5
t-55.5 -1h-50q-106 0 -159.5 43t-53.5 143v385q0 100 53.5 143t159.5 43q73 0 118 -1.5t77 -4.5q5 -1 7.5 -5t2.5 -9v-50q0 -12 -11 -12h-193q-40 0 -64 -5.5t-37 -18t-17.5 -32.5t-4.5 -48v-139h307q8 0 14 -6t6 -14v-38q0 -8 -6 -14t-14 -6h-307v-168q0 -29 4.5 -48.5
t17.5 -32t37 -18t64 -5.5h193q11 0 11 -12v-51z" />
    <glyph glyph-name="afii10051" unicode="&#x402;" horiz-adv-x="813" 
d="M763 150q0 -47 -13.5 -80t-38 -53.5t-58.5 -30t-75 -9.5q-17 0 -31 2t-22 6q-6 3 -6 11v37q0 8 6 12.5t14 4.5h39q20 0 37 4.5t30 16t20 30.5t7 49v91q0 40 -10.5 65.5t-31 39t-51.5 18.5t-71 5q-12 0 -33 -1.5t-45.5 -4.5t-48.5 -7t-40 -9v-327q0 -8 -5 -14t-13 -6h-55
q-8 0 -13 6t-5 14v645h-195q-8 0 -14 4t-6 12v44q0 8 6 13t14 5h481q19 0 19 -18v-44q0 -16 -19 -16h-195v-243q41 14 89 20.5t95 6.5q52 0 96 -10t75.5 -34t49 -64t17.5 -100v-91v0z" />
    <glyph glyph-name="afii10052" unicode="&#x403;" horiz-adv-x="536" 
d="M309 809q-7 -8 -11 -11.5t-12 -3.5h-54q-8 0 -9 5t4 12l98 124q7 8 11 11.5t13 3.5h66q8 0 10.5 -4t-3.5 -11zM496 680q0 -12 -11 -12h-193q-40 0 -64 -5.5t-37 -18t-17.5 -32.5t-4.5 -48v-544q0 -8 -6 -14t-14 -6h-51q-8 0 -14 6t-6 14v544q0 100 53.5 143t159.5 43
q22 0 49.5 -0.5t54.5 -1t51 -2l40 -2.5q5 -1 7.5 -5t2.5 -9v-50z" />
    <glyph glyph-name="afii10053" unicode="&#x404;" horiz-adv-x="573" 
d="M456 425q8 0 14 -6t6 -14v-38q0 -8 -6 -14t-14 -6h-330v-13q0 -76 18.5 -126t49 -79.5t70 -41.5t82.5 -12q58 0 91.5 2.5t60.5 4.5q20 2 20 -16v-40q0 -9 -6 -13.5t-14 -6.5q-16 -3 -30 -5.5t-30.5 -4t-38.5 -2.5t-54 -1q-54 0 -109.5 14.5t-100 53t-72.5 104.5t-28 169
v75q0 103 28 169t72.5 104t100 53t109.5 15q32 0 54 -1t38.5 -2.5t30.5 -4t30 -5.5q8 -2 14 -6.5t6 -13.5v-40q0 -18 -20 -16q-27 2 -60.5 4.5t-91.5 2.5q-42 0 -80.5 -11.5t-69 -39t-49.5 -74.5t-21 -118h330z" />
    <glyph glyph-name="afii10054" unicode="&#x405;" horiz-adv-x="550" 
d="M500 193q0 -36 -11 -72t-38.5 -64.5t-75.5 -46t-122 -17.5q-53 0 -93 4.5t-73 9.5q-13 2 -16 6t-3 12v40q0 9 6 13t14 3q17 -2 38.5 -3t44 -1.5t44 -1t38.5 -0.5q45 0 74.5 8.5t46.5 24t24 37.5t7 48q0 19 -6 34.5t-20 30.5t-37 31.5t-57 37.5l-97 59q-69 42 -103.5 84.5
t-34.5 102.5q0 91 62 134t177 43q22 0 46.5 -1t48 -2.5t44.5 -4t35 -4.5q17 -3 17 -17v-43q0 -8 -5.5 -12.5t-13.5 -3.5q-33 2 -80.5 4t-91.5 2q-78 0 -112.5 -20t-34.5 -75q0 -35 26 -61t83 -60l92 -55q43 -26 73 -50t49 -48t27 -50t8 -56z" />
    <glyph glyph-name="afii10055" unicode="&#x406;" horiz-adv-x="267" 
d="M179 20q0 -8 -5 -14t-13 -6h-55q-8 0 -13 6t-5 14v704q0 8 5 13.5t13 5.5h55q8 0 13 -5.5t5 -13.5v-704v0z" />
    <glyph glyph-name="afii10056" unicode="&#x407;" horiz-adv-x="267" 
d="M261 828q0 -8 -6 -13.5t-14 -5.5h-39q-8 0 -14 5.5t-6 13.5v81q0 8 6 14t14 6h39q8 0 14 -6t6 -14v-81zM86 828q0 -8 -6 -13.5t-14 -5.5h-39q-8 0 -14 5.5t-6 13.5v81q0 8 6 14t14 6h39q8 0 14 -6t6 -14v-81zM179 20q0 -8 -5 -14t-13 -6h-55q-8 0 -13 6t-5 14v704
q0 8 5 13.5t13 5.5h55q8 0 13 -5.5t5 -13.5v-704z" />
    <glyph glyph-name="afii10057" unicode="&#x408;" horiz-adv-x="257" 
d="M179 -37q0 -72 -36 -107.5t-119 -35.5q-17 0 -32.5 3t-20.5 5q-6 3 -6 11v37q0 8 6 12.5t14 4.5h39q40 0 52 16.5t12 53.5v761q0 8 5.5 13.5t13.5 5.5h53q8 0 13.5 -5.5t5.5 -13.5v-761v0z" />
    <glyph glyph-name="afii10058" unicode="&#x409;" horiz-adv-x="934" 
d="M808 223q0 40 -14 66.5t-40 41.5t-63.5 21t-83.5 6q-26 0 -52.5 -1t-52.5 -3v-280q25 -1 52 -2.5t53 -1.5q46 0 83.5 6t63.5 21t40 41t14 67v18zM482 743q8 0 14 -6t6 -14v-292q23 2 49.5 3t55.5 1q58 0 111 -9.5t93.5 -34t64 -65.5t23.5 -104v-17q0 -63 -23.5 -104
t-64 -65t-93.5 -33.5t-111 -9.5q-50 0 -92 2t-71 7q-17 2 -25 10t-8 27v622h-96q-15 0 -20 -18l-171 -628q-2 -6 -5 -10.5t-13 -4.5h-59q-9 0 -14 5.5t-2 17.5l182 644q6 23 17.5 37.5t25.5 23t29.5 12t29.5 3.5h167z" />
    <glyph glyph-name="afii10059" unicode="&#x40a;" horiz-adv-x="1034" 
d="M999 205q0 -63 -23.5 -104t-64 -65t-93.5 -33.5t-111 -9.5q-36 0 -83.5 1.5t-92.5 5.5q-8 1 -14 6.5t-6 13.5v332h-342v-332q0 -8 -6 -14t-14 -6h-51q-8 0 -14 6t-6 14v703q0 8 6 14t14 6h51q8 0 14 -6t6 -14v-290h342v290q0 8 6 14t14 6h51q8 0 14 -6t6 -14v-292
q23 2 49.5 3t55.5 1q58 0 111 -9.5t93.5 -34t64 -65.5t23.5 -104v-17zM908 223q0 40 -14 66.5t-40 41.5t-63.5 21t-83.5 6q-26 0 -52.5 -1t-52.5 -3v-280q25 -1 52 -2.5t53 -1.5q46 0 83.5 6t63.5 21t40 41t14 67v18z" />
    <glyph glyph-name="afii10060" unicode="&#x40b;" horiz-adv-x="804" 
d="M736 20q0 -8 -6 -14t-14 -6h-51q-8 0 -14 6t-6 14v221q0 43 -10 68.5t-29 38.5t-45.5 17t-59.5 4q-22 0 -67 -3.5t-93 -17.5v-328q0 -8 -5 -14t-13 -6h-55q-8 0 -13 6t-5 14v645h-195q-8 0 -14 4t-6 12v44q0 8 6 13t14 5h481q19 0 19 -18v-44q0 -16 -19 -16h-195v-241
q47 14 94.5 19.5t79.5 5.5q49 0 89.5 -9.5t69.5 -33t45.5 -63.5t16.5 -102v-221v0z" />
    <glyph glyph-name="afii10061" unicode="&#x40c;" horiz-adv-x="607" 
d="M322 809q-7 -8 -11 -11.5t-12 -3.5h-54q-8 0 -9 5t4 12l98 124q7 8 11 11.5t13 3.5h66q8 0 10.5 -4t-3.5 -11zM559 22q5 -7 4 -14.5t-12 -7.5h-78q-13 0 -22 10l-282 343v-333q0 -8 -5 -14t-13 -6h-55q-8 0 -13 6t-5 14v704q0 8 5.5 13.5t13.5 5.5h53q8 0 13.5 -5.5
t5.5 -13.5v-323l288 333q5 5 8.5 7t11.5 2h72q12 0 13.5 -7.5t-3.5 -13.5l-301 -340z" />
    <glyph glyph-name="afii10062" unicode="&#x40e;" horiz-adv-x="588" 
d="M453 933q-3 -35 -17.5 -61.5t-37 -44t-51 -26.5t-57.5 -9t-57.5 9t-51 26.5t-37 44t-17.5 61.5q-1 6 1 11.5t10 5.5h37q14 0 15 -16q2 -20 11.5 -35t23 -25t30.5 -15t35 -5t35 5t30.5 15t23 25t11.5 35q1 16 15 16h37q8 0 10 -5.5t1 -11.5zM334 145q-15 -39 -31 -67.5
t-38 -47.5t-52 -28t-73 -9q-18 0 -37 2t-26 4q-9 2 -15 5t-6 11v46q0 18 22 16q12 -1 20 -1.5t14.5 -1t13 -0.5h14.5q21 0 36 3t26 12.5t20.5 26t19.5 43.5l36 94h-5q-28 0 -43 13t-29 48l-151 404q-5 11 -1 18t15 7h61q5 0 10.5 -4.5t7.5 -9.5l141 -375q5 -13 8.5 -16
t11.5 -3h6l153 394q2 5 6.5 9.5t10.5 4.5h62q11 0 15 -7t-1 -18z" />
    <glyph glyph-name="afii10145" unicode="&#x40f;" horiz-adv-x="680" 
d="M386 -100q0 -8 -5 -14t-13 -6h-55q-8 0 -13 6t-5 14v100h-81q-18 0 -41.5 3.5t-44.5 16t-35.5 37.5t-14.5 68v598q0 8 6 14t14 6h51q8 0 14 -6t6 -14v-598q0 -11 1 -19.5t5.5 -13.5t13.5 -7.5t25 -2.5h252q31 0 38 10t7 33v598q0 8 6 14t14 6h51q8 0 14 -6t6 -14v-598
q0 -43 -14.5 -68t-35.5 -37.5t-44.5 -16t-41.5 -3.5h-80v-100z" />
    <glyph glyph-name="afii10017" unicode="&#x410;" horiz-adv-x="633" 
d="M604 16q0 -16 -17 -16h-59q-7 0 -11 4.5t-6 10.5l-65 230h-259l-64 -230q-2 -6 -7 -10.5t-11 -4.5h-59q-17 0 -17 16q0 5 1 7l185 651q6 23 17.5 37.5t25.5 23t29.5 12t29.5 3.5t29 -3t29 -11.5t25.5 -23t17.5 -37.5l185 -652q1 -2 1 -7zM336 653q-5 18 -19 18
q-15 0 -20 -18l-91 -329h221z" />
    <glyph glyph-name="afii10018" unicode="&#x411;" horiz-adv-x="616" 
d="M566 205q0 -63 -23.5 -104t-64 -65t-93.5 -33.5t-111 -9.5q-50 0 -92 2t-71 7q-17 2 -25 10t-8 27v685q0 8 5 13.5t13 5.5h382q8 0 14 -6t6 -14v-41q0 -8 -6 -14t-14 -6h-309v-231q23 2 49.5 3t55.5 1q58 0 111 -9.5t93.5 -34t64 -65.5t23.5 -104v-17zM475 223
q0 40 -14 66.5t-40 41.5t-63.5 21t-83.5 6q-26 0 -52.5 -1t-52.5 -3v-280q25 -1 52 -2.5t53 -1.5q46 0 83.5 6t63.5 21t40 41t14 67v18z" />
    <glyph glyph-name="afii10019" unicode="&#x412;" horiz-adv-x="616" 
d="M566 205q0 -63 -23.5 -104t-64 -65t-93.5 -33.5t-111 -9.5q-50 0 -92 2t-71 7q-17 2 -25 10t-8 27v666q0 34 32 37q25 3 67.5 5.5t91.5 2.5q60 0 113 -9t93 -31t63.5 -59t23.5 -94v-16q0 -56 -28 -96.5t-79 -60.5q52 -18 81.5 -61t29.5 -101v-17zM471 557
q0 36 -14.5 58.5t-41 35.5t-63.5 17.5t-83 4.5q-26 0 -52 -1t-47 -2v-248h154q43 0 71.5 9.5t45.5 26t23.5 38t6.5 45.5v16zM475 222q0 25 -7 48t-24.5 40.5t-46.5 28t-73 10.5h-154v-275q25 -1 51.5 -2.5t52.5 -1.5q46 0 83.5 6t63.5 21t40 41t14 67v17z" />
    <glyph glyph-name="afii10020" unicode="&#x413;" horiz-adv-x="536" 
d="M496 680q0 -12 -11 -12h-193q-40 0 -64 -5.5t-37 -18t-17.5 -32.5t-4.5 -48v-544q0 -8 -6 -14t-14 -6h-51q-8 0 -14 6t-6 14v544q0 100 53.5 143t159.5 43q22 0 49.5 -0.5t54.5 -1t51 -2l40 -2.5q5 -1 7.5 -5t2.5 -9v-50v0z" />
    <glyph glyph-name="afii10021" unicode="&#x414;" horiz-adv-x="685" 
d="M74 81l169 593q6 23 17.5 37.5t25.5 23t29.5 12t29.5 3.5t29 -3t29 -11.5t25.5 -23t17.5 -37.5l168 -594h28q18 0 18 -19v-162q0 -8 -5 -14t-13 -6h-55q-8 0 -13 6t-5 14v100h-453v-100q0 -8 -5 -14t-13 -6h-55q-8 0 -13 6t-5 14v162q0 8 5 13.5t13 5.5h31zM169 81h352
l-157 572q-5 18 -19 18q-15 0 -20 -18z" />
    <glyph glyph-name="afii10022" unicode="&#x415;" horiz-adv-x="551" 
d="M496 12q0 -5 -2.5 -9t-7.5 -5q-14 -2 -38 -2.5t-51.5 -1.5t-55.5 -1h-50q-106 0 -159.5 43t-53.5 143v385q0 100 53.5 143t159.5 43q73 0 118 -1.5t77 -4.5q5 -1 7.5 -5t2.5 -9v-50q0 -12 -11 -12h-193q-40 0 -64 -5.5t-37 -18t-17.5 -32.5t-4.5 -48v-139h307q8 0 14 -6
t6 -14v-38q0 -8 -6 -14t-14 -6h-307v-168q0 -29 4.5 -48.5t17.5 -32t37 -18t64 -5.5h193q11 0 11 -12v-51v0z" />
    <glyph glyph-name="afii10024" unicode="&#x416;" horiz-adv-x="967" 
d="M919 22q5 -7 4 -14.5t-12 -7.5h-78q-13 0 -22 10l-282 343v-333q0 -8 -5 -14t-13 -6h-55q-8 0 -13 6t-5 14v333l-282 -343q-9 -10 -22 -10h-78q-11 0 -12 7.5t4 14.5l301 360l-301 340q-5 6 -3.5 13.5t13.5 7.5h72q8 0 11.5 -2t8.5 -7l288 -333v323q0 8 5.5 13.5
t13.5 5.5h53q8 0 13.5 -5.5t5.5 -13.5v-323l288 333q5 5 8.5 7t11.5 2h72q12 0 13.5 -7.5t-3.5 -13.5l-301 -340l301 -360v0z" />
    <glyph glyph-name="afii10025" unicode="&#x417;" horiz-adv-x="585" 
d="M507 207q0 -56 -18.5 -96.5t-51.5 -66.5t-78.5 -38.5t-100.5 -12.5q-48 0 -90.5 6t-78.5 14q-8 2 -13.5 6.5t-5.5 12.5v34q0 9 6 13.5t14 3.5q45 -6 89 -10t79 -4q82 0 119 33t37 105v21q0 20 -5.5 41.5t-19 39.5t-36 29.5t-56.5 11.5h-182q-19 0 -19 18v35q0 19 19 19
h182q36 0 59 11t35.5 28.5t17.5 38.5t5 41v14q0 62 -35.5 90.5t-120.5 28.5q-44 0 -81.5 -4.5t-86.5 -10.5q-8 -1 -14 3.5t-6 13.5v35q0 7 5.5 12t13.5 7q36 8 78.5 14t90.5 6q56 0 102 -9.5t78.5 -32.5t50.5 -60.5t18 -92.5v-14q0 -51 -24 -92t-71 -64q27 -13 45 -31
t29 -39t16 -43t5 -44v-21v0z" />
    <glyph glyph-name="afii10026" unicode="&#x418;" horiz-adv-x="680" 
d="M78 724q0 8 5 13.5t13 5.5h53q8 0 13 -5.5t5 -13.5v-585q0 -3 1 -3l2 3l307 584q6 11 13 15.5t28 4.5h55q12 0 20.5 -8t8.5 -20v-703q0 -8 -5 -10t-13 -2h-52q-8 0 -13 5.5t-5 13.5v584q0 3 -1 3q-2 0 -3 -3l-309 -587q-8 -16 -32 -16h-62q-12 0 -20.5 8.5t-8.5 20.5v695
z" />
    <glyph glyph-name="afii10027" unicode="&#x419;" horiz-adv-x="680" 
d="M504 933q-3 -35 -17.5 -61.5t-37 -44t-51 -26.5t-57.5 -9t-57.5 9t-51 26.5t-37 44t-17.5 61.5q-1 6 1 11.5t10 5.5h37q14 0 15 -16q2 -20 11.5 -35t23 -25t30.5 -15t35 -5t35 5t30.5 15t23 25t11.5 35q1 16 15 16h37q8 0 10 -5.5t1 -11.5zM78 29v695q0 8 5 13.5t13 5.5
h53q8 0 13 -5.5t5 -13.5v-585q0 -3 1 -3l2 3l307 584q6 11 13 15.5t28 4.5h55q12 0 20.5 -8t8.5 -20v-703q0 -8 -5 -10t-13 -2h-52q-8 0 -13 5.5t-5 13.5v584q0 3 -1 3q-2 0 -3 -3l-309 -587q-8 -16 -32 -16h-62q-12 0 -20.5 8.5t-8.5 20.5z" />
    <glyph glyph-name="afii10028" unicode="&#x41a;" horiz-adv-x="607" 
d="M559 22q5 -7 4 -14.5t-12 -7.5h-78q-13 0 -22 10l-282 343v-333q0 -8 -5 -14t-13 -6h-55q-8 0 -13 6t-5 14v704q0 8 5.5 13.5t13.5 5.5h53q8 0 13.5 -5.5t5.5 -13.5v-323l288 333q5 5 8.5 7t11.5 2h72q12 0 13.5 -7.5t-3.5 -13.5l-301 -340l301 -360v0z" />
    <glyph glyph-name="afii10029" unicode="&#x41b;" horiz-adv-x="633" 
d="M336 653q-5 18 -19 18q-15 0 -20 -18l-174 -638q-2 -6 -7 -10.5t-11 -4.5h-59q-17 0 -17 16q0 5 1 7l185 651q6 23 17.5 37.5t25.5 23t29.5 12t29.5 3.5t29 -3t29 -11.5t25.5 -23t17.5 -37.5l185 -652q1 -2 1 -7q0 -16 -17 -16h-59q-7 0 -11 4.5t-6 10.5z" />
    <glyph glyph-name="afii10030" unicode="&#x41c;" horiz-adv-x="761" 
d="M684 20q0 -8 -6 -14t-14 -6h-49q-8 0 -14 6t-6 14v593q0 7 -3 1l-143 -296q-8 -15 -17 -22t-28 -7h-46q-19 0 -28 7t-17 22l-143 296q-3 6 -3 -1v-593q0 -8 -6 -14t-14 -6h-49q-8 0 -14 6t-6 14v694q0 12 8.5 20.5t20.5 8.5h65q14 0 20.5 -3.5t11.5 -13.5l165 -343
q5 -11 12 -11t12 11l165 343q5 10 11.5 13.5t20.5 3.5h65q12 0 20.5 -8.5t8.5 -20.5v-694v0z" />
    <glyph glyph-name="afii10031" unicode="&#x41d;" horiz-adv-x="680" 
d="M602 20q0 -8 -6 -14t-14 -6h-51q-8 0 -14 6t-6 14v332h-342v-332q0 -8 -6 -14t-14 -6h-51q-8 0 -14 6t-6 14v703q0 8 6 14t14 6h51q8 0 14 -6t6 -14v-290h342v290q0 8 6 14t14 6h51q8 0 14 -6t6 -14v-703v0z" />
    <glyph glyph-name="afii10032" unicode="&#x41e;" horiz-adv-x="661" 
d="M601 307q0 -83 -20 -142.5t-56 -97.5t-85.5 -56t-108.5 -18t-108.5 18t-85.5 56t-56.5 97.5t-20.5 142.5v129q0 83 20.5 142.5t56.5 97.5t85.5 56t108.5 18t108.5 -18t85.5 -56t56 -97.5t20 -142.5v-129zM509 436q0 63 -12.5 107t-35.5 72t-56 40.5t-74 12.5t-74 -12.5
t-56.5 -40.5t-36 -72t-12.5 -107v-129q0 -63 12.5 -107t35.5 -72t56.5 -40.5t74.5 -12.5t74 12.5t56 40.5t35.5 72t12.5 107v129z" />
    <glyph glyph-name="afii10033" unicode="&#x41f;" horiz-adv-x="680" 
d="M511 618q0 22 -7 32.5t-38 10.5h-252q-16 0 -25 -2.5t-13.5 -8t-5.5 -13.5t-1 -19v-598q0 -8 -6 -14t-14 -6h-51q-8 0 -14 6t-6 14v598q0 43 14.5 68t35.5 37.5t44.5 16t41.5 3.5h252q18 0 41.5 -3.5t44.5 -16t35.5 -37.5t14.5 -68v-598q0 -8 -6 -14t-14 -6h-51
q-8 0 -14 6t-6 14v598z" />
    <glyph glyph-name="afii10034" unicode="&#x420;" horiz-adv-x="588" 
d="M548 520q0 -63 -21 -105.5t-58.5 -69t-88.5 -38t-112 -11.5q-24 0 -52 1.5t-48 3.5v-281q0 -8 -5 -14t-13 -6h-54q-8 0 -13 6t-5 14v697q0 22 24 25q32 4 77 6t89 2q61 0 112 -11.5t88.5 -37t58.5 -67t21 -101.5v-13zM457 533q0 76 -46 108t-143 32q-23 0 -52.5 -1
t-47.5 -3v-293q9 0 22 -1t27 -1.5t27.5 -1t23.5 -0.5q103 0 146 35t43 113v13z" />
    <glyph glyph-name="afii10035" unicode="&#x421;" horiz-adv-x="545" 
d="M510 26q0 -9 -6 -13.5t-14 -6.5q-16 -3 -32 -5.5t-35 -4t-43 -2.5t-56 -1q-46 0 -93 14t-85 49.5t-62 95t-24 150.5v139q0 92 24 151.5t62 94.5t85 49t93 14q48 0 91.5 -5.5t76.5 -10.5q16 -2 16 -13v-51q0 -5 -3 -8.5t-12 -2.5q-14 1 -33.5 2.5t-42 3t-46.5 2.5t-46 1
q-37 0 -68.5 -11.5t-55 -38t-37 -70t-13.5 -107.5v-139q0 -63 13.5 -106.5t37 -70t55 -38.5t68.5 -12q21 0 44.5 1t46 2t41.5 2.5t33 2.5q20 2 20 -16v-41v0z" />
    <glyph glyph-name="afii10036" unicode="&#x422;" horiz-adv-x="590" 
d="M555 681q0 -16 -19 -16h-195v-645q0 -8 -5 -14t-13 -6h-55q-8 0 -13 6t-5 14v645h-195q-8 0 -14 4t-6 12v44q0 8 6 13t14 5h481q19 0 19 -18v-44v0z" />
    <glyph glyph-name="afii10037" unicode="&#x423;" horiz-adv-x="588" 
d="M334 145q-15 -39 -31 -67.5t-38 -47.5t-52 -28t-73 -9q-18 0 -37 2t-26 4q-9 2 -15 5t-6 11v46q0 18 22 16q12 -1 20 -1.5t14.5 -1t13 -0.5h14.5q21 0 36 3t26 12.5t20.5 26t19.5 43.5l36 94h-5q-28 0 -43 13t-29 48l-151 404q-5 11 -1 18t15 7h61q5 0 10.5 -4.5
t7.5 -9.5l141 -375q5 -13 8.5 -16t11.5 -3h6l153 394q2 5 6.5 9.5t10.5 4.5h62q11 0 15 -7t-1 -18z" />
    <glyph glyph-name="afii10038" unicode="&#x424;" horiz-adv-x="789" 
d="M439 636h38q61 0 112 -13t88.5 -40.5t58.5 -70.5t21 -103v-33q0 -63 -21 -107t-58.5 -72.5t-88.5 -41.5t-112 -13h-18.5t-19.5 1v-123q0 -8 -5 -14t-13 -6h-54q-8 0 -13 6t-5 14v123q-11 -1 -20.5 -1h-17.5q-61 0 -112 13t-88.5 41.5t-58.5 72.5t-21 107v33q0 60 21 103
t58.5 70.5t88.5 40.5t112 13h38v94q0 8 5 14t13 6h54q8 0 13 -6t5 -14v-94zM439 559v-340q11 -1 20.5 -1h17.5q103 0 146 40t43 118v33q0 76 -46 113t-143 37h-38zM311 218h17t21 1v340h-38q-97 0 -143 -37t-46 -113v-33q0 -78 43 -118t146 -40z" />
    <glyph glyph-name="afii10039" unicode="&#x425;" horiz-adv-x="646" 
d="M601 25q5 -8 2 -16.5t-15 -8.5h-63q-8 0 -12 3.5t-9 11.5l-183 291l-179 -291q-10 -15 -21 -15h-59q-11 0 -14.5 8.5t1.5 16.5l222 353l-220 341q-5 8 -2 16t14 8h65q8 0 11.5 -2.5t6.5 -7.5l180 -285l174 285q5 7 9 8.5t10 1.5h59q10 0 14 -8t-1 -16l-215 -343l225 -351
v0z" />
    <glyph glyph-name="afii10040" unicode="&#x426;" horiz-adv-x="687" 
d="M214 0q-18 0 -41.5 3t-44.5 15.5t-35.5 37.5t-14.5 68v599q0 8 6 14t14 6h51q8 0 14 -6t6 -14v-599q0 -11 1 -19.5t5.5 -13.5t13.5 -7.5t25 -2.5h252q31 0 38 10t7 33v599q0 8 6 14t14 6h51q8 0 14 -6t6 -14v-598q0 -13 -1.5 -23.5t-3.5 -20.5h52q8 0 13 -5.5t5 -13.5
v-162q0 -8 -5 -14t-13 -6h-55q-8 0 -13 6t-5 14v100h-362z" />
    <glyph glyph-name="afii10041" unicode="&#x427;" horiz-adv-x="637" 
d="M559 20q0 -8 -6 -14t-14 -6h-51q-8 0 -14 6t-6 14v289q-18 -4 -40.5 -7.5t-46.5 -6t-47.5 -4t-43.5 -1.5q-46 0 -86.5 10t-70.5 34.5t-47.5 65t-17.5 102.5v221q0 8 6 14t14 6h51q8 0 14 -6t6 -14v-221q0 -38 8 -63t26 -39.5t47 -20.5t71 -6q12 0 34 1.5t46 4t45 5
t32 5.5v334q0 8 5 14t13 6h55q8 0 13 -6t5 -14v-703v0z" />
    <glyph glyph-name="afii10042" unicode="&#x428;" horiz-adv-x="933" 
d="M764 723q0 8 6 14t14 6h51q8 0 14 -6t6 -14v-599q0 -43 -14.5 -68t-35.5 -37.5t-44.5 -15.5t-41.5 -3h-505q-18 0 -41.5 3t-44.5 15.5t-35.5 37.5t-14.5 68v599q0 8 6 14t14 6h51q8 0 14 -6t6 -14v-599q0 -11 1 -19.5t5.5 -13.5t13.5 -7.5t25 -2.5h207v642q0 8 6 14t14 6
h51q8 0 14 -6t6 -14v-642h207q31 0 38 10t7 33v599z" />
    <glyph glyph-name="afii10043" unicode="&#x429;" horiz-adv-x="945" 
d="M719 81q31 0 38 10t7 33v599q0 8 6 14t14 6h51q8 0 14 -6t6 -14v-599q0 -16 -1.5 -25t-3.5 -18h52q18 0 18 -19v-162q0 -8 -5 -14t-13 -6h-55q-8 0 -13 6t-5 14v100h-615q-18 0 -41.5 3t-44.5 15.5t-35.5 37.5t-14.5 68v599q0 8 6 14t14 6h51q8 0 14 -6t6 -14v-599
q0 -11 1 -19.5t5.5 -13.5t13.5 -7.5t25 -2.5h207v642q0 8 6 14t14 6h51q8 0 14 -6t6 -14v-642h207z" />
    <glyph glyph-name="afii10044" unicode="&#x42a;" horiz-adv-x="677" 
d="M642 205q0 -63 -23.5 -104t-64 -65t-93.5 -33.5t-111 -9.5q-50 0 -92 2t-71 7q-17 2 -25 10t-8 27v623h-109q-8 0 -14 6t-6 14v41q0 8 6 14t14 6h182q8 0 13 -5.5t5 -13.5v-293q23 2 49.5 3t55.5 1q58 0 111 -9.5t93.5 -34t64 -65.5t23.5 -104v-17zM551 223
q0 40 -14 66.5t-40 41.5t-63.5 21t-83.5 6q-26 0 -52.5 -1t-52.5 -3v-280q25 -1 52 -2.5t53 -1.5q46 0 83.5 6t63.5 21t40 41t14 67v18z" />
    <glyph glyph-name="afii10045" unicode="&#x42b;" horiz-adv-x="863" 
d="M785 20q0 -8 -5 -14t-13 -6h-55q-8 0 -13 6t-5 14v704q0 8 5 13.5t13 5.5h55q8 0 13 -5.5t5 -13.5v-704zM566 205q0 -63 -23.5 -104t-64 -65t-93.5 -33.5t-111 -9.5q-50 0 -92 2t-71 7q-17 2 -25 10t-8 27v685q0 8 5 13.5t13 5.5h55q8 0 13 -5.5t5 -13.5v-293
q23 2 49.5 3t55.5 1q58 0 111 -9.5t93.5 -34t64 -65.5t23.5 -104v-17zM475 223q0 40 -14 66.5t-40 41.5t-63.5 21t-83.5 6q-26 0 -52.5 -1t-52.5 -3v-280q25 -1 52 -2.5t53 -1.5q46 0 83.5 6t63.5 21t40 41t14 67v18z" />
    <glyph glyph-name="afii10046" unicode="&#x42c;" horiz-adv-x="601" 
d="M566 205q0 -63 -23.5 -104t-64 -65t-93.5 -33.5t-111 -9.5q-50 0 -92 2t-71 7q-17 2 -25 10t-8 27v685q0 8 5 13.5t13 5.5h55q8 0 13 -5.5t5 -13.5v-293q23 2 49.5 3t55.5 1q58 0 111 -9.5t93.5 -34t64 -65.5t23.5 -104v-17zM475 223q0 40 -14 66.5t-40 41.5t-63.5 21
t-83.5 6q-26 0 -52.5 -1t-52.5 -3v-280q25 -1 52 -2.5t53 -1.5q46 0 83.5 6t63.5 21t40 41t14 67v18z" />
    <glyph glyph-name="afii10047" unicode="&#x42d;" horiz-adv-x="573" 
d="M447 425q-2 71 -21 118t-49.5 74.5t-69 39t-80.5 11.5q-29 0 -51.5 -0.5t-40.5 -1.5t-32.5 -2.5t-27.5 -2.5q-20 -2 -20 16v40q0 9 6 13.5t14 6.5q16 3 30 5.5t30.5 4t38.5 2.5t54 1q54 0 109.5 -15t100 -53t72.5 -104t28 -169v-75q0 -103 -28 -169t-72.5 -104.5
t-100 -53t-109.5 -14.5q-32 0 -54 1t-38.5 2.5t-30.5 4t-30 5.5q-8 2 -14 6.5t-6 13.5v40q0 18 20 16q13 -1 27.5 -2.5t32.5 -2.5t40.5 -1.5t51.5 -0.5q43 0 82.5 12t70 41.5t49 79.5t18.5 126v13h-330q-8 0 -14 6t-6 14v38q0 8 6 14t14 6h330z" />
    <glyph glyph-name="afii10048" unicode="&#x42e;" horiz-adv-x="928" 
d="M868 307q0 -83 -20 -142.5t-56 -97.5t-85.5 -56t-108.5 -18t-108.5 18t-85.5 56t-56.5 97.5t-20.5 142.5v25h-148v-312q0 -8 -5 -14t-13 -6h-55q-8 0 -13 6t-5 14v704q0 8 5 13.5t13 5.5h55q8 0 13 -5.5t5 -13.5v-311h148v23q0 83 20.5 142.5t56.5 97.5t85.5 56t108.5 18
t108.5 -18t85.5 -56t56 -97.5t20 -142.5v-129zM776 436q0 63 -12.5 107t-35.5 72t-56 40.5t-74 12.5t-74 -12.5t-56.5 -40.5t-36 -72t-12.5 -107v-129q0 -63 12.5 -107t35.5 -72t56.5 -40.5t74.5 -12.5t74 12.5t56 40.5t35.5 72t12.5 107v129z" />
    <glyph glyph-name="afii10049" unicode="&#x42f;" horiz-adv-x="634" 
d="M556 20q0 -8 -5 -14t-13 -6h-54q-8 0 -13 6t-5 14v294q-30 -2 -54 -2.5t-56 -0.5h-26l-179 -298q-6 -10 -11.5 -11.5t-14.5 -1.5h-64q-9 0 -12 7.5t2 14.5l182 304q-34 9 -63 26t-50 42t-32.5 58.5t-11.5 75.5v7q0 61 21.5 102t59 66t89 36t110.5 11q22 0 46 -0.5
t47.5 -1.5t45 -2.5t37.5 -3.5q14 -2 19 -6.5t5 -15.5v-700zM466 665q-9 1 -23 1.5t-29 1t-30.5 0.5h-27.5q-94 0 -142 -29t-48 -104v-7q0 -41 12.5 -67.5t36.5 -42.5t59.5 -22.5t81.5 -6.5h17h20t29.5 0.5t43.5 1.5v274z" />
    <glyph glyph-name="afii10065" unicode="&#x430;" horiz-adv-x="519" 
d="M451 20q0 -8 -6 -14t-14 -6h-46q-8 0 -14 6t-6 14v22q-36 -21 -74 -35t-80 -14q-32 0 -61.5 7.5t-52 26.5t-36 50t-13.5 78v12q0 40 12.5 70.5t41 51t74.5 30.5t113 10h74v40q0 63 -24 88t-83 25q-49 0 -86 -2.5t-67 -5.5q-8 -1 -15.5 2t-7.5 14v35q0 16 21 19
q31 5 67.5 9t87.5 4q104 0 149.5 -50t45.5 -138v-349zM363 266h-74q-45 0 -75 -5.5t-47 -17t-24 -30t-7 -45.5v-12q0 -54 24 -72.5t68 -18.5q35 0 67 10t68 30v161z" />
    <glyph glyph-name="afii10066" unicode="&#x431;" horiz-adv-x="545" 
d="M495 243q0 -116 -55 -183t-169 -67q-110 0 -165.5 64t-55.5 186v46q0 78 4 142t24 113t62.5 81.5t119.5 47.5l72 14q38 8 51 21.5t16 30.5q1 13 15 13h56q13 0 12 -13q-2 -29 -13.5 -49.5t-29.5 -35t-40.5 -23t-46.5 -13.5l-75 -16q-53 -11 -86.5 -31.5t-39.5 -69.5
q18 15 48.5 27t72.5 12q109 0 166 -65t57 -186v-46zM406 289q0 85 -31 130.5t-103 45.5t-103 -45.5t-31 -130.5v-46q0 -85 30.5 -129.5t102.5 -44.5t103.5 44.5t31.5 129.5v46z" />
    <glyph glyph-name="afii10067" unicode="&#x432;" horiz-adv-x="553" 
d="M498 161q0 -47 -19 -79t-53 -52t-80.5 -28.5t-100.5 -8.5q-14 0 -34 0.5t-41 1t-41 1.5t-32 3q-29 3 -29 28v496q0 26 28 29q22 2 62 3.5t97 1.5q42 0 84.5 -5t76.5 -21t55 -45.5t21 -77.5v-5q0 -35 -17 -68.5t-55 -48.5q42 -17 60 -48.5t18 -69.5v-7zM403 408
q0 46 -39 61.5t-115 15.5h-49t-44 -1v-165h125q22 0 44 2.5t39.5 11t28 25t10.5 45.5v5zM409 168q0 29 -11.5 45.5t-30 25t-41.5 10.5t-45 2h-125v-185q23 -1 43 -1.5t43 -0.5q92 0 129.5 23t37.5 74v7z" />
    <glyph glyph-name="afii10068" unicode="&#x433;" horiz-adv-x="409" 
d="M194 474q-23 0 -30.5 -7.5t-7.5 -30.5v-416q0 -8 -6 -14t-14 -6h-48q-8 0 -14 6t-6 14v416q0 43 13 66t32.5 33.5t41.5 12.5t39 2h175q8 0 14 -6t6 -14v-36q0 -8 -6 -14t-14 -6h-175z" />
    <glyph glyph-name="afii10069" unicode="&#x434;" horiz-adv-x="602" 
d="M557 76q8 0 14 -5.5t6 -13.5v-146q0 -8 -6 -14t-14 -6h-47q-8 0 -14 6t-6 14v89h-378v-89q0 -8 -6 -14t-14 -6h-47q-8 0 -14 6t-6 14v146q0 8 6 13.5t14 5.5h33l116 405q6 23 17.5 37.5t25.5 23t29.5 12t29.5 3.5t29 -3t29 -11.5t25.5 -23t17.5 -37.5l114 -406h46z
M171 76h249l-105 384q-5 18 -19 18q-15 0 -20 -18z" />
    <glyph glyph-name="afii10070" unicode="&#x435;" horiz-adv-x="544" 
d="M492 269q0 -22 -19 -22h-335v-14q0 -89 35 -126t104 -37q44 0 93.5 3t84.5 8q9 2 15 -1.5t6 -12.5v-34q0 -10 -4 -15.5t-16 -7.5q-43 -8 -85.5 -12.5t-93.5 -4.5q-43 0 -84 11.5t-72.5 39t-51 73.5t-19.5 116v90q0 108 57 171t165 63q55 0 96 -16.5t68.5 -47t41.5 -74
t14 -96.5v-54zM403 323q0 85 -32.5 121t-98.5 36q-65 0 -99.5 -38t-34.5 -119v-9h265v9z" />
    <glyph glyph-name="afii10072" unicode="&#x436;" horiz-adv-x="768" 
d="M733 13q0 -13 -11 -13h-72q-8 0 -12.5 2.5t-10.5 10.5l-199 246v-239q0 -8 -6 -14t-14 -6h-48q-8 0 -14 6t-6 14v239l-199 -246q-6 -8 -10 -10.5t-13 -2.5h-72q-11 0 -11 13q0 6 3 9l222 268l-220 238q-5 5 -5 11q0 11 15 11h70q8 0 11.5 -2t8.5 -7l200 -225v214
q0 8 6 14t14 6h48q8 0 14 -6t6 -14v-214l200 225q5 5 8.5 7t11.5 2h70q15 0 15 -11q0 -6 -5 -11l-220 -238l222 -268q3 -3 3 -9z" />
    <glyph glyph-name="afii10073" unicode="&#x437;" horiz-adv-x="506" 
d="M446 159q0 -43 -17 -74t-46.5 -51.5t-69.5 -30.5t-87 -10q-41 0 -78 3.5t-68 9.5q-6 2 -13 5t-7 13v35q0 12 6.5 15t14.5 2q38 -5 76.5 -7t68.5 -2q69 0 99 20.5t30 71.5v9q0 36 -21 59.5t-76 23.5h-156q-19 0 -19 17v34q0 17 19 17h156q30 0 48.5 7t29.5 18t15 26t4 31
v8q0 43 -29 58.5t-101 15.5q-38 0 -70 -2.5t-74 -6.5q-8 -1 -14.5 2t-6.5 15v35q0 10 6.5 13t13.5 5q31 6 68 9.5t78 3.5q48 0 88 -7t69.5 -23.5t46 -45.5t16.5 -72v-8q0 -32 -18.5 -64.5t-56.5 -51.5q22 -11 36.5 -24.5t23 -29t12 -31.5t3.5 -32v-9v0z" />
    <glyph glyph-name="afii10074" unicode="&#x438;" horiz-adv-x="577" 
d="M68 531q0 19 18 19h52q8 0 13 -4.5t5 -14.5v-392q0 -2 1 -2.5t2 1.5l233 392q8 14 16.5 17t24.5 3h52q14 0 19 -5.5t5 -22.5v-502q0 -9 -5 -14.5t-13 -5.5h-52q-8 0 -13 5.5t-5 13.5v390q0 7 -4 1l-232 -394q-6 -11 -13 -13.5t-19 -2.5h-56q-12 0 -20.5 8.5t-8.5 20.5
v502z" />
    <glyph glyph-name="afii10075" unicode="&#x439;" horiz-adv-x="577" 
d="M446 762q-3 -35 -17.5 -61.5t-37 -44t-51 -26.5t-57.5 -9t-57.5 9t-51 26.5t-37 44t-17.5 61.5q-1 6 1 11.5t10 5.5h37q14 0 15 -16q2 -20 11.5 -35t23 -25t30.5 -15t35 -5t35 5t30.5 15t23 25t11.5 35q1 16 15 16h37q8 0 10 -5.5t1 -11.5zM68 29v502q0 19 18 19h52
q8 0 13 -4.5t5 -14.5v-392q0 -2 1 -2.5t2 1.5l233 392q8 14 16.5 17t24.5 3h52q14 0 19 -5.5t5 -22.5v-502q0 -9 -5 -14.5t-13 -5.5h-52q-8 0 -13 5.5t-5 13.5v390q0 7 -4 1l-232 -394q-6 -11 -13 -13.5t-19 -2.5h-56q-12 0 -20.5 8.5t-8.5 20.5z" />
    <glyph glyph-name="afii10076" unicode="&#x43a;" horiz-adv-x="496" 
d="M461 13q0 -13 -11 -13h-72q-8 0 -12.5 2.5t-10.5 10.5l-199 246v-239q0 -8 -6 -14t-14 -6h-48q-8 0 -14 6t-6 14v510q0 8 6 14t14 6h48q8 0 14 -6t6 -14v-214l200 225q5 5 8.5 7t11.5 2h70q15 0 15 -11q0 -6 -5 -11l-220 -238l222 -268q3 -3 3 -9z" />
    <glyph glyph-name="afii10077" unicode="&#x43b;" horiz-adv-x="538" 
d="M289 460q-5 18 -19 18q-15 0 -20 -18l-121 -445q-2 -6 -7 -10.5t-11 -4.5h-59q-17 0 -17 16q0 5 1 7l132 458q6 23 17.5 37.5t25.5 23t29.5 12t29.5 3.5t29 -3t29 -11.5t25.5 -23t17.5 -37.5l131 -459q1 -2 1 -7q0 -16 -17 -16h-59q-7 0 -11 4.5t-6 10.5z" />
    <glyph glyph-name="afii10078" unicode="&#x43c;" horiz-adv-x="663" 
d="M595 20q0 -8 -6 -14t-14 -6h-46q-8 0 -14 6t-6 14v421l-115 -210q-7 -12 -16.5 -18t-26.5 -6h-39q-17 0 -26.5 6t-16.5 18l-115 210v-421q0 -8 -6 -14t-14 -6h-46q-8 0 -14 6t-6 14v510q0 8 6 14t14 6h65q12 0 19.5 -3t12.5 -12l141 -256q3 -6 5 -6q3 0 6 6l141 256
q5 9 12.5 12t19.5 3h65q8 0 14 -6t6 -14v-510v0z" />
    <glyph glyph-name="afii10079" unicode="&#x43d;" horiz-adv-x="577" 
d="M509 20q0 -8 -6 -14t-14 -6h-48q-8 0 -14 6t-6 14v223h-265v-223q0 -8 -6 -14t-14 -6h-48q-8 0 -14 6t-6 14v510q0 8 6 14t14 6h48q8 0 14 -6t6 -14v-212h265v212q0 8 6 14t14 6h48q8 0 14 -6t6 -14v-510v0z" />
    <glyph glyph-name="afii10080" unicode="&#x43e;" horiz-adv-x="545" 
d="M495 237q0 -55 -14 -100t-42 -77t-70 -49.5t-97 -17.5t-96.5 17.5t-69.5 49.5t-42 77t-14 100v76q0 55 14 100t42 77t69.5 49.5t96.5 17.5t97 -17.5t70 -49.5t42 -77t14 -100v-76zM407 313q0 77 -32 122t-103 45q-70 0 -102 -44.5t-32 -122.5v-76q0 -77 31.5 -122
t102.5 -45q70 0 102.5 44.5t32.5 122.5v76z" />
    <glyph glyph-name="afii10081" unicode="&#x43f;" horiz-adv-x="577" 
d="M509 20q0 -8 -6 -14t-14 -6h-48q-8 0 -14 6t-6 14v416q0 23 -7.5 30.5t-30.5 7.5h-189q-23 0 -30.5 -7.5t-7.5 -30.5v-416q0 -8 -6 -14t-14 -6h-48q-8 0 -14 6t-6 14v416q0 43 13 66t32.5 33.5t41.5 12.5t39 2h189q17 0 39 -2t41.5 -12.5t32.5 -33.5t13 -66v-416z" />
    <glyph glyph-name="afii10082" unicode="&#x440;" horiz-adv-x="541" 
d="M491 238q0 -118 -54 -181.5t-164 -63.5q-23 0 -55.5 3t-61.5 8v-181q0 -8 -5.5 -13.5t-13.5 -5.5h-51q-8 0 -13 5.5t-5 13.5v688q0 10 3.5 15t17.5 8q40 10 89 16.5t95 6.5q56 0 97 -17.5t68 -50t40 -78t13 -101.5v-72zM403 310q0 39 -6.5 71t-21.5 54.5t-40 35t-62 12.5
q-32 0 -64 -3t-53 -7v-396q25 -5 59 -7.5t58 -2.5q37 0 62 11.5t40 33.5t21.5 54t6.5 72v72z" />
    <glyph glyph-name="afii10083" unicode="&#x441;" horiz-adv-x="452" 
d="M408 26q0 -10 -4 -15t-16 -7q-25 -5 -57.5 -8t-67.5 -3q-51 0 -90.5 17.5t-67 49t-41.5 76.5t-14 100v78q0 55 14 100t41 76.5t67 49t91 17.5q35 0 67.5 -3t57.5 -8q12 -2 16 -6.5t4 -15.5v-36q0 -8 -6.5 -12t-14.5 -3q-33 4 -60 5.5t-64 1.5q-60 0 -92.5 -40.5
t-32.5 -125.5v-78q0 -85 32 -125.5t93 -40.5q37 0 64 1.5t60 5.5q8 1 14.5 -3t6.5 -12v-36v0z" />
    <glyph glyph-name="afii10084" unicode="&#x442;" horiz-adv-x="528" 
d="M493 497q0 -8 -6 -14t-14 -6h-165v-457q0 -8 -6 -14t-14 -6h-48q-8 0 -14 6t-6 14v457h-165q-8 0 -14 6t-6 14v33q0 8 6 14t14 6h418q8 0 14 -6t6 -14v-33v0z" />
    <glyph glyph-name="afii10085" unicode="&#x443;" horiz-adv-x="534" 
d="M329 -50q-12 -41 -25.5 -69t-34.5 -45.5t-50.5 -25.5t-72.5 -8q-21 0 -44.5 2.5t-39.5 6.5q-9 2 -15 5t-6 11v37q0 18 22 16q17 -2 44.5 -4t44.5 -2q21 0 37 3.5t27.5 13t20 26t14.5 42.5l10 41h-14q-11 0 -21.5 2t-20 9t-17.5 21t-15 37l-133 457q-3 10 1.5 17t15.5 7
h55q6 0 10.5 -5t6.5 -11l118 -434q4 -15 9 -18.5t10 -3.5h16l122 457q2 6 7 10.5t12 4.5h56q9 0 13.5 -7t1.5 -17z" />
    <glyph glyph-name="afii10086" unicode="&#x444;" horiz-adv-x="830" 
d="M459 552q26 3 51 4t42 1q63 0 106.5 -17.5t70.5 -50t39 -78t12 -101.5v-72q0 -118 -54.5 -181.5t-163.5 -63.5q-19 0 -48 2.5t-55 5.5v-178q0 -8 -5.5 -13.5t-13.5 -5.5h-51q-8 0 -13 5.5t-5 13.5v178q-27 -3 -55.5 -5.5t-47.5 -2.5q-109 0 -163.5 63.5t-54.5 181.5v72
q0 56 12 101.5t39 78t70.5 50t106.5 17.5q16 0 41.5 -1t51.5 -4v180q0 8 6 14t14 6h48q8 0 14 -6t6 -14v-180zM554 483q-26 0 -50.5 -1.5t-44.5 -3.5v-404q26 -3 55.5 -5t47.5 -2q37 0 62 11.5t40 33.5t21.5 54t6.5 72v72q0 40 -6.5 72t-22.5 54.5t-42.5 34.5t-66.5 12z
M268 67q17 0 47 2t56 5v404q-20 2 -44.5 3.5t-50.5 1.5q-40 0 -66.5 -12t-42.5 -34.5t-22.5 -54.5t-6.5 -72v-72q0 -40 6.5 -72t21.5 -54t40 -33.5t62 -11.5z" />
    <glyph glyph-name="afii10087" unicode="&#x445;" horiz-adv-x="547" 
d="M507 23q5 -8 4 -15.5t-13 -7.5h-69q-9 0 -14 8l-143 209l-143 -207q-5 -7 -7.5 -8.5t-9.5 -1.5h-60q-10 0 -12 6.5t5 16.5l180 257l-170 245q-8 11 -4 18t14 7h65q6 0 10.5 -3t9.5 -11l127 -188l128 188q7 10 10.5 12t10.5 2h58q10 0 12.5 -7.5t-4.5 -17.5l-168 -239
l183 -263v0z" />
    <glyph glyph-name="afii10088" unicode="&#x446;" horiz-adv-x="584" 
d="M421 530q0 8 6 14t14 6h48q8 0 14 -6t6 -14v-417q0 -20 -4 -37h39q8 0 14 -5.5t6 -13.5v-146q0 -8 -6 -14t-14 -6h-47q-8 0 -14 6t-6 14v89h-283q-17 0 -39 2t-41.5 12.5t-32.5 33.5t-13 66v416q0 8 6 14t14 6h48q8 0 14 -6t6 -14v-416q0 -23 7.5 -30.5t30.5 -7.5h189
q23 0 30.5 7.5t7.5 30.5v416z" />
    <glyph glyph-name="afii10089" unicode="&#x447;" horiz-adv-x="545" 
d="M477 20q0 -8 -6 -14t-14 -6h-48q-8 0 -14 6t-6 14v205q-31 -5 -72 -9t-74 -4q-39 0 -74.5 6.5t-61.5 24.5t-41.5 49t-15.5 80v158q0 8 6 14t14 6h48q8 0 14 -6t6 -14v-158q0 -26 6 -43.5t20.5 -27.5t38 -14t58.5 -4q9 0 26.5 1t36.5 2.5t36.5 3.5t28.5 4v236q0 8 6 14
t14 6h48q8 0 14 -6t6 -14v-510v0z" />
    <glyph glyph-name="afii10090" unicode="&#x448;" horiz-adv-x="810" 
d="M742 114q0 -43 -13 -66t-32.5 -33.5t-41.5 -12.5t-39 -2h-422q-17 0 -39 2t-41.5 12.5t-32.5 33.5t-13 66v416q0 8 6 14t14 6h48q8 0 14 -6t6 -14v-416q0 -23 7.5 -30.5t30.5 -7.5h167v454q0 8 6 14t14 6h48q8 0 14 -6t6 -14v-454h167q23 0 30.5 7.5t7.5 30.5v416
q0 8 6 14t14 6h48q8 0 14 -6t6 -14v-416z" />
    <glyph glyph-name="afii10091" unicode="&#x449;" horiz-adv-x="822" 
d="M742 113q0 -14 -1 -22t-3 -15h39q8 0 14 -5.5t6 -13.5v-146q0 -8 -6 -14t-14 -6h-47q-8 0 -14 6t-6 14v89h-516q-17 0 -39 2t-41.5 12.5t-32.5 33.5t-13 66v416q0 8 6 14t14 6h48q8 0 14 -6t6 -14v-416q0 -23 7.5 -30.5t30.5 -7.5h167v454q0 8 6 14t14 6h48q8 0 14 -6
t6 -14v-454h167q23 0 30.5 7.5t7.5 30.5v416q0 8 6 14t14 6h48q8 0 14 -6t6 -14v-417z" />
    <glyph glyph-name="afii10092" unicode="&#x44a;" horiz-adv-x="595" 
d="M555 161q0 -47 -19 -79t-53 -52t-80.5 -28.5t-100.5 -8.5q-44 0 -86 1.5t-67 4.5q-15 2 -22 8t-7 20v447h-85q-8 0 -14 6t-6 14v36q0 8 6 14t14 6h153q8 0 14 -6t6 -14v-195q22 1 46 1.5t48 0.5q54 0 100.5 -8.5t80.5 -28.5t53 -52t19 -79v-8zM466 169q0 51 -43 71.5
t-124 20.5q-23 0 -46 -1t-45 -2v-186q22 -1 45 -2t46 -1q81 0 124 20.5t43 71.5v8z" />
    <glyph glyph-name="afii10093" unicode="&#x44b;" horiz-adv-x="747" 
d="M669 20q0 -8 -6 -14t-14 -6h-48q-8 0 -14 6t-6 14v510q0 8 6 14t14 6h48q8 0 14 -6t6 -14v-510zM503 161q0 -47 -19 -79t-53 -52t-80.5 -28.5t-100.5 -8.5q-44 0 -86 1.5t-67 4.5q-15 2 -22 8t-7 20v503q0 8 6 14t14 6h48q8 0 14 -6t6 -14v-195q22 1 46 1.5t48 0.5
q54 0 100.5 -8.5t80.5 -28.5t53 -52t19 -79v-8zM414 169q0 51 -43 71.5t-124 20.5q-23 0 -46 -1t-45 -2v-186q22 -1 45 -2t46 -1q81 0 124 20.5t43 71.5v8z" />
    <glyph glyph-name="afii10094" unicode="&#x44c;" horiz-adv-x="543" 
d="M503 161q0 -47 -19 -79t-53 -52t-80.5 -28.5t-100.5 -8.5q-44 0 -86 1.5t-67 4.5q-15 2 -22 8t-7 20v503q0 8 6 14t14 6h48q8 0 14 -6t6 -14v-195q22 1 46 1.5t48 0.5q54 0 100.5 -8.5t80.5 -28.5t53 -52t19 -79v-8zM414 169q0 51 -43 71.5t-124 20.5q-23 0 -46 -1
t-45 -2v-186q22 -1 45 -2t46 -1q81 0 124 20.5t43 71.5v8z" />
    <glyph glyph-name="afii10095" unicode="&#x44d;" horiz-adv-x="452" 
d="M44 62q0 16 21 15q34 -3 59.5 -5t57.5 -2q132 0 132 166v6h-207q-8 0 -14 6t-6 14v35q0 8 6 14t14 6h207q-1 84 -34 123.5t-98 39.5q-32 0 -58 -1.5t-59 -5.5q-21 -2 -21 15v36q0 11 4 15.5t16 6.5q25 5 57.5 8t67.5 3q54 0 94 -17.5t66.5 -49t39.5 -76.5t13 -100v-78
q0 -55 -13.5 -100t-40 -76.5t-66.5 -49t-93 -17.5q-35 0 -67.5 3t-57.5 8q-12 2 -16 7t-4 15v36z" />
    <glyph glyph-name="afii10096" unicode="&#x44e;" horiz-adv-x="772" 
d="M722 237q0 -55 -14 -100t-42 -77t-70 -49.5t-97 -17.5t-96.5 17.5t-69.5 49.5t-42 77t-14 100v7h-121v-224q0 -8 -6 -14t-14 -6h-48q-8 0 -14 6t-6 14v510q0 8 6 14t14 6h48q8 0 14 -6t6 -14v-213h121q0 54 14.5 98.5t42 76t69 48.5t96.5 17t97 -17.5t70 -49.5t42 -77
t14 -100v-76zM634 313q0 77 -32 122t-103 45q-70 0 -102 -44.5t-32 -122.5v-76q0 -77 31.5 -122t102.5 -45q70 0 102.5 44.5t32.5 122.5v76z" />
    </font>
</defs>
</svg>
